<?xml version="1.0" encoding="UTF-8" standalone="no"?>
<!DOCTYPE svg PUBLIC "-//W3C//DTD SVG 1.1//EN"
 "http://www.w3.org/Graphics/SVG/1.1/DTD/svg11.dtd">
<!-- Generated by graphviz version 2.26.3 (20100126.1600)
 -->
<!-- Title: _anonymous_0 Pages: 1 -->
<svg width="3233pt" height="474pt"
 viewBox="0.00 0.00 3233.00 474.00" xmlns="http://www.w3.org/2000/svg" xmlns:xlink="http://www.w3.org/1999/xlink">
<g id="graph1" class="graph" transform="scale(1 1) rotate(0) translate(4 470)">
<title>_anonymous_0</title>
<polygon fill="white" stroke="white" points="-4,5 -4,-470 3230,-470 3230,5 -4,5"/>
<!-- 140336093443640 -->
<g id="node1" class="node"><title>140336093443640</title>
<ellipse fill="none" stroke="black" cx="1566" cy="-448" rx="27" ry="18"/>
<text text-anchor="middle" x="1566" y="-445.5" font-family="Times Roman,serif" font-size="10.00">protocol</text>
</g>
<!-- 140336092904624 -->
<g id="node2" class="node"><title>140336092904624</title>
<ellipse fill="none" stroke="black" cx="1124" cy="-362" rx="27" ry="18"/>
<text text-anchor="middle" x="1124" y="-359.5" font-family="Times Roman,serif" font-size="10.00">src_port</text>
</g>
<!-- 140336093443640&#45;&gt;140336092904624 -->
<g id="edge2" class="edge"><title>140336093443640&#45;&gt;140336092904624</title>
<path fill="none" stroke="black" d="M1540,-442.941C1464.69,-428.289 1246.28,-385.793 1159.84,-368.973"/>
<polygon fill="black" stroke="black" points="1160.45,-365.527 1149.97,-367.052 1159.11,-372.398 1160.45,-365.527"/>
<text text-anchor="middle" x="1384" y="-402.5" font-family="Times Roman,serif" font-size="10.00">(0&#45;0)</text>
</g>
<!-- 140336093444720 -->
<g id="node20" class="node"><title>140336093444720</title>
<ellipse fill="none" stroke="black" cx="1395" cy="-362" rx="27" ry="18"/>
<text text-anchor="middle" x="1395" y="-359.5" font-family="Times Roman,serif" font-size="10.00">src_port</text>
</g>
<!-- 140336093443640&#45;&gt;140336093444720 -->
<g id="edge20" class="edge"><title>140336093443640&#45;&gt;140336093444720</title>
<path fill="none" stroke="black" d="M1544.34,-437.108C1514.36,-422.028 1460.04,-394.709 1425.83,-377.505"/>
<polygon fill="black" stroke="black" points="1427.26,-374.305 1416.75,-372.939 1424.11,-380.559 1427.26,-374.305"/>
<text text-anchor="middle" x="1503" y="-402.5" font-family="Times Roman,serif" font-size="10.00">(1&#45;1)</text>
</g>
<!-- 140336092906776 -->
<g id="node48" class="node"><title>140336092906776</title>
<ellipse fill="none" stroke="black" cx="1566" cy="-362" rx="27" ry="18"/>
<text text-anchor="middle" x="1566" y="-359.5" font-family="Times Roman,serif" font-size="10.00">src_port</text>
</g>
<!-- 140336093443640&#45;&gt;140336092906776 -->
<g id="edge48" class="edge"><title>140336093443640&#45;&gt;140336092906776</title>
<path fill="none" stroke="black" d="M1566,-429.762C1566,-418.36 1566,-403.434 1566,-390.494"/>
<polygon fill="black" stroke="black" points="1569.5,-390.212 1566,-380.212 1562.5,-390.212 1569.5,-390.212"/>
<text text-anchor="middle" x="1578" y="-402.5" font-family="Times Roman,serif" font-size="10.00">(2&#45;2)</text>
</g>
<!-- 140336093443712 -->
<g id="node66" class="node"><title>140336093443712</title>
<ellipse fill="none" stroke="black" cx="1663" cy="-362" rx="27" ry="18"/>
<text text-anchor="middle" x="1663" y="-359.5" font-family="Times Roman,serif" font-size="10.00">src_port</text>
</g>
<!-- 140336093443640&#45;&gt;140336093443712 -->
<g id="edge66" class="edge"><title>140336093443640&#45;&gt;140336093443712</title>
<path fill="none" stroke="black" d="M1582.45,-433.411C1597.92,-419.697 1621.26,-399.005 1638.84,-383.419"/>
<polygon fill="black" stroke="black" points="1641.3,-385.913 1646.46,-376.66 1636.66,-380.675 1641.3,-385.913"/>
<text text-anchor="middle" x="1633" y="-402.5" font-family="Times Roman,serif" font-size="10.00">(3&#45;3)</text>
</g>
<!-- 140336093442704 -->
<g id="node84" class="node"><title>140336093442704</title>
<ellipse fill="none" stroke="black" cx="1748" cy="-362" rx="27" ry="18"/>
<text text-anchor="middle" x="1748" y="-359.5" font-family="Times Roman,serif" font-size="10.00">src_port</text>
</g>
<!-- 140336093443640&#45;&gt;140336093442704 -->
<g id="edge84" class="edge"><title>140336093443640&#45;&gt;140336093442704</title>
<path fill="none" stroke="black" d="M1589.06,-438.425C1605.81,-431.368 1628.95,-421.402 1649,-412 1672.22,-401.111 1698.08,-388.017 1717.55,-377.96"/>
<polygon fill="black" stroke="black" points="1719.28,-381.002 1726.55,-373.29 1716.06,-374.788 1719.28,-381.002"/>
<text text-anchor="middle" x="1695" y="-402.5" font-family="Times Roman,serif" font-size="10.00">(4&#45;255)</text>
</g>
<!-- 140336092901816 -->
<g id="node4" class="node"><title>140336092901816</title>
<ellipse fill="none" stroke="black" cx="353" cy="-276" rx="27" ry="18"/>
<text text-anchor="middle" x="353" y="-273.5" font-family="Times Roman,serif" font-size="10.00">dst_port</text>
</g>
<!-- 140336092904624&#45;&gt;140336092901816 -->
<g id="edge4" class="edge"><title>140336092904624&#45;&gt;140336092901816</title>
<path fill="none" stroke="black" d="M1097.01,-358.99C980.886,-346.037 523.615,-295.031 389.907,-280.117"/>
<polygon fill="black" stroke="black" points="390.096,-276.616 379.769,-278.986 389.32,-283.573 390.096,-276.616"/>
<text text-anchor="middle" x="809" y="-316.5" font-family="Times Roman,serif" font-size="10.00">(0&#45;65535)</text>
</g>
<!-- 140336092901600 -->
<g id="node6" class="node"><title>140336092901600</title>
<ellipse fill="none" stroke="black" cx="209" cy="-190" rx="27" ry="18"/>
<text text-anchor="middle" x="209" y="-187.5" font-family="Times Roman,serif" font-size="10.00">src_ip</text>
</g>
<!-- 140336092901816&#45;&gt;140336092901600 -->
<g id="edge6" class="edge"><title>140336092901816&#45;&gt;140336092901600</title>
<path fill="none" stroke="black" d="M326.456,-271.324C303.968,-266.381 271.694,-256.892 248,-240 238.857,-233.482 230.808,-224.22 224.433,-215.436"/>
<polygon fill="black" stroke="black" points="227.161,-213.224 218.638,-206.93 221.376,-217.165 227.161,-213.224"/>
<text text-anchor="middle" x="298.5" y="-230.5" font-family="Times Roman,serif" font-size="10.00">(0&#45;442)(444&#45;9999) ...</text>
</g>
<!-- 140336092902032 -->
<g id="node12" class="node"><title>140336092902032</title>
<ellipse fill="none" stroke="black" cx="353" cy="-190" rx="27" ry="18"/>
<text text-anchor="middle" x="353" y="-187.5" font-family="Times Roman,serif" font-size="10.00">src_ip</text>
</g>
<!-- 140336092901816&#45;&gt;140336092902032 -->
<g id="edge12" class="edge"><title>140336092901816&#45;&gt;140336092902032</title>
<path fill="none" stroke="black" d="M353,-257.762C353,-246.36 353,-231.434 353,-218.494"/>
<polygon fill="black" stroke="black" points="356.5,-218.212 353,-208.212 349.5,-218.212 356.5,-218.212"/>
<text text-anchor="middle" x="412.5" y="-230.5" font-family="Times Roman,serif" font-size="10.00">(443&#45;443)(10000&#45;10000)</text>
</g>
<!-- 140336092901960 -->
<g id="node8" class="node"><title>140336092901960</title>
<ellipse fill="none" stroke="black" cx="131" cy="-104" rx="27" ry="18"/>
<text text-anchor="middle" x="131" y="-101.5" font-family="Times Roman,serif" font-size="10.00">dst_ip</text>
</g>
<!-- 140336092901600&#45;&gt;140336092901960 -->
<g id="edge8" class="edge"><title>140336092901600&#45;&gt;140336092901960</title>
<path fill="none" stroke="black" d="M194.694,-174.226C182.819,-161.134 165.756,-142.32 152.278,-127.461"/>
<polygon fill="black" stroke="black" points="154.526,-124.73 145.216,-119.674 149.341,-129.432 154.526,-124.73"/>
<text text-anchor="middle" x="214" y="-144.5" font-family="Times Roman,serif" font-size="10.00">(0&#45;4294967295)</text>
</g>
<!-- 140336092901744 -->
<g id="node10" class="node"><title>140336092901744</title>
<polygon fill="none" stroke="black" points="54,-36 2.13163e-14,-36 0,-1.77636e-14 54,-3.55271e-15 54,-36"/>
<text text-anchor="middle" x="27" y="-15.5" font-family="Times Roman,serif" font-size="10.00">deny</text>
</g>
<!-- 140336092901960&#45;&gt;140336092901744 -->
<g id="edge10" class="edge"><title>140336092901960&#45;&gt;140336092901744</title>
<path fill="none" stroke="black" d="M105.182,-98.5C77.7971,-92.0873 37.2282,-80.7294 28,-68 23.5155,-61.8141 21.996,-53.9728 21.9328,-46.3451"/>
<polygon fill="black" stroke="black" points="25.4327,-46.463 22.6078,-36.2517 18.4483,-45.9959 25.4327,-46.463"/>
<text text-anchor="middle" x="67" y="-58.5" font-family="Times Roman,serif" font-size="10.00">(0&#45;4294967295)</text>
</g>
<!-- 140336092903112 -->
<g id="node14" class="node"><title>140336092903112</title>
<ellipse fill="none" stroke="black" cx="353" cy="-104" rx="27" ry="18"/>
<text text-anchor="middle" x="353" y="-101.5" font-family="Times Roman,serif" font-size="10.00">dst_ip</text>
</g>
<!-- 140336092902032&#45;&gt;140336092903112 -->
<g id="edge14" class="edge"><title>140336092902032&#45;&gt;140336092903112</title>
<path fill="none" stroke="black" d="M353,-171.762C353,-160.36 353,-145.434 353,-132.494"/>
<polygon fill="black" stroke="black" points="356.5,-132.212 353,-122.212 349.5,-132.212 356.5,-132.212"/>
<text text-anchor="middle" x="392" y="-144.5" font-family="Times Roman,serif" font-size="10.00">(0&#45;4294967295)</text>
</g>
<!-- 140336092903400 -->
<g id="node16" class="node"><title>140336092903400</title>
<polygon fill="none" stroke="black" points="155,-36 101,-36 101,-1.77636e-14 155,-3.55271e-15 155,-36"/>
<text text-anchor="middle" x="128" y="-15.5" font-family="Times Roman,serif" font-size="10.00">deny</text>
</g>
<!-- 140336092903112&#45;&gt;140336092903400 -->
<g id="edge16" class="edge"><title>140336092903112&#45;&gt;140336092903400</title>
<path fill="none" stroke="black" d="M325.737,-102.747C275.441,-99.8929 170.74,-91.2563 144,-68 137.617,-62.4487 133.76,-54.3506 131.435,-46.282"/>
<polygon fill="black" stroke="black" points="134.8,-45.2875 129.236,-36.2715 127.963,-46.7896 134.8,-45.2875"/>
<text text-anchor="middle" x="248.5" y="-58.5" font-family="Times Roman,serif" font-size="10.00">(0&#45;1080565843)(1080565845&#45;4294967295)</text>
</g>
<!-- 140336092902104 -->
<g id="node18" class="node"><title>140336092902104</title>
<polygon fill="none" stroke="black" points="387,-36 333,-36 333,-1.77636e-14 387,-3.55271e-15 387,-36"/>
<text text-anchor="middle" x="360" y="-15.5" font-family="Times Roman,serif" font-size="10.00">permit</text>
</g>
<!-- 140336092903112&#45;&gt;140336092902104 -->
<g id="edge18" class="edge"><title>140336092903112&#45;&gt;140336092902104</title>
<path fill="none" stroke="black" d="M354.485,-85.7616C355.413,-74.3597 356.627,-59.4342 357.681,-46.494"/>
<polygon fill="black" stroke="black" points="361.195,-46.4631 358.518,-36.2121 354.218,-45.8952 361.195,-46.4631"/>
<text text-anchor="middle" x="423" y="-58.5" font-family="Times Roman,serif" font-size="10.00">(1080565844&#45;1080565844)</text>
</g>
<!-- 140336093444216 -->
<g id="node22" class="node"><title>140336093444216</title>
<ellipse fill="none" stroke="black" cx="698" cy="-276" rx="27" ry="18"/>
<text text-anchor="middle" x="698" y="-273.5" font-family="Times Roman,serif" font-size="10.00">dst_port</text>
</g>
<!-- 140336093444720&#45;&gt;140336093444216 -->
<g id="edge22" class="edge"><title>140336093444720&#45;&gt;140336093444216</title>
<path fill="none" stroke="black" d="M1368.1,-358.681C1260.29,-345.379 859.248,-295.896 734.964,-280.561"/>
<polygon fill="black" stroke="black" points="735.169,-277.06 724.816,-279.309 734.312,-284.007 735.169,-277.06"/>
<text text-anchor="middle" x="1113" y="-316.5" font-family="Times Roman,serif" font-size="10.00">(0&#45;65535)</text>
</g>
<!-- 140336093445008 -->
<g id="node24" class="node"><title>140336093445008</title>
<ellipse fill="none" stroke="black" cx="515" cy="-190" rx="27" ry="18"/>
<text text-anchor="middle" x="515" y="-187.5" font-family="Times Roman,serif" font-size="10.00">src_ip</text>
</g>
<!-- 140336093444216&#45;&gt;140336093445008 -->
<g id="edge24" class="edge"><title>140336093444216&#45;&gt;140336093445008</title>
<path fill="none" stroke="black" d="M670.976,-273.874C627.825,-269.92 546.165,-259.96 526,-240 520.137,-234.197 517.08,-226.029 515.564,-217.975"/>
<polygon fill="black" stroke="black" points="519.036,-217.533 514.373,-208.019 512.085,-218.364 519.036,-217.533"/>
<text text-anchor="middle" x="573.5" y="-230.5" font-family="Times Roman,serif" font-size="10.00">(0&#45;442)(444&#45;499) ...</text>
</g>
<!-- 140336092902320 -->
<g id="node30" class="node"><title>140336092902320</title>
<ellipse fill="none" stroke="black" cx="625" cy="-190" rx="27" ry="18"/>
<text text-anchor="middle" x="625" y="-187.5" font-family="Times Roman,serif" font-size="10.00">src_ip</text>
</g>
<!-- 140336093444216&#45;&gt;140336092902320 -->
<g id="edge30" class="edge"><title>140336093444216&#45;&gt;140336092902320</title>
<path fill="none" stroke="black" d="M672.855,-269.266C657.878,-263.886 639.911,-254.745 630,-240 625.717,-233.629 623.788,-225.729 623.101,-218.105"/>
<polygon fill="black" stroke="black" points="626.598,-217.951 622.828,-208.049 619.6,-218.14 626.598,-217.951"/>
<text text-anchor="middle" x="683.5" y="-230.5" font-family="Times Roman,serif" font-size="10.00">(443&#45;443)(500&#45;500) ...</text>
</g>
<!-- 140336093443568 -->
<g id="node36" class="node"><title>140336093443568</title>
<ellipse fill="none" stroke="black" cx="763" cy="-190" rx="27" ry="18"/>
<text text-anchor="middle" x="763" y="-187.5" font-family="Times Roman,serif" font-size="10.00">src_ip</text>
</g>
<!-- 140336093444216&#45;&gt;140336093443568 -->
<g id="edge36" class="edge"><title>140336093444216&#45;&gt;140336093443568</title>
<path fill="none" stroke="black" d="M717.295,-262.919C725.403,-256.7 734.452,-248.719 741,-240 746.126,-233.175 750.366,-224.969 753.711,-217.197"/>
<polygon fill="black" stroke="black" points="757.036,-218.306 757.467,-207.72 750.529,-215.727 757.036,-218.306"/>
<text text-anchor="middle" x="774" y="-230.5" font-family="Times Roman,serif" font-size="10.00">(902&#45;903)</text>
</g>
<!-- 140336093444288 -->
<g id="node26" class="node"><title>140336093444288</title>
<ellipse fill="none" stroke="black" cx="515" cy="-104" rx="27" ry="18"/>
<text text-anchor="middle" x="515" y="-101.5" font-family="Times Roman,serif" font-size="10.00">dst_ip</text>
</g>
<!-- 140336093445008&#45;&gt;140336093444288 -->
<g id="edge26" class="edge"><title>140336093445008&#45;&gt;140336093444288</title>
<path fill="none" stroke="black" d="M515,-171.762C515,-160.36 515,-145.434 515,-132.494"/>
<polygon fill="black" stroke="black" points="518.5,-132.212 515,-122.212 511.5,-132.212 518.5,-132.212"/>
<text text-anchor="middle" x="554" y="-144.5" font-family="Times Roman,serif" font-size="10.00">(0&#45;4294967295)</text>
</g>
<!-- 140336093442920 -->
<g id="node28" class="node"><title>140336093442920</title>
<polygon fill="none" stroke="black" points="542,-36 488,-36 488,-1.77636e-14 542,-3.55271e-15 542,-36"/>
<text text-anchor="middle" x="515" y="-15.5" font-family="Times Roman,serif" font-size="10.00">deny</text>
</g>
<!-- 140336093444288&#45;&gt;140336093442920 -->
<g id="edge28" class="edge"><title>140336093444288&#45;&gt;140336093442920</title>
<path fill="none" stroke="black" d="M515,-85.7616C515,-74.3597 515,-59.4342 515,-46.494"/>
<polygon fill="black" stroke="black" points="518.5,-46.2121 515,-36.2121 511.5,-46.2121 518.5,-46.2121"/>
<text text-anchor="middle" x="554" y="-58.5" font-family="Times Roman,serif" font-size="10.00">(0&#45;4294967295)</text>
</g>
<!-- 140336092902752 -->
<g id="node32" class="node"><title>140336092902752</title>
<ellipse fill="none" stroke="black" cx="616" cy="-104" rx="27" ry="18"/>
<text text-anchor="middle" x="616" y="-101.5" font-family="Times Roman,serif" font-size="10.00">dst_ip</text>
</g>
<!-- 140336092902320&#45;&gt;140336092902752 -->
<g id="edge32" class="edge"><title>140336092902320&#45;&gt;140336092902752</title>
<path fill="none" stroke="black" d="M620.304,-172.176C618.985,-166.417 617.716,-159.976 617,-154 616.163,-147.016 615.755,-139.445 615.589,-132.358"/>
<polygon fill="black" stroke="black" points="619.087,-132.081 615.499,-122.112 612.087,-132.142 619.087,-132.081"/>
<text text-anchor="middle" x="656" y="-144.5" font-family="Times Roman,serif" font-size="10.00">(0&#45;4294967295)</text>
</g>
<!-- 140336092903472 -->
<g id="node34" class="node"><title>140336092903472</title>
<polygon fill="none" stroke="black" points="643,-36 589,-36 589,-1.77636e-14 643,-3.55271e-15 643,-36"/>
<text text-anchor="middle" x="616" y="-15.5" font-family="Times Roman,serif" font-size="10.00">permit</text>
</g>
<!-- 140336092902752&#45;&gt;140336092903472 -->
<g id="edge34" class="edge"><title>140336092902752&#45;&gt;140336092903472</title>
<path fill="none" stroke="black" d="M616,-85.7616C616,-74.3597 616,-59.4342 616,-46.494"/>
<polygon fill="black" stroke="black" points="619.5,-46.2121 616,-36.2121 612.5,-46.2121 619.5,-46.2121"/>
<text text-anchor="middle" x="655" y="-58.5" font-family="Times Roman,serif" font-size="10.00">(0&#45;4294967295)</text>
</g>
<!-- 140336093443208 -->
<g id="node38" class="node"><title>140336093443208</title>
<ellipse fill="none" stroke="black" cx="717" cy="-104" rx="27" ry="18"/>
<text text-anchor="middle" x="717" y="-101.5" font-family="Times Roman,serif" font-size="10.00">dst_ip</text>
</g>
<!-- 140336093443568&#45;&gt;140336093443208 -->
<g id="edge38" class="edge"><title>140336093443568&#45;&gt;140336093443208</title>
<path fill="none" stroke="black" d="M741.478,-178.501C732.519,-172.488 723.043,-164.23 718,-154 714.712,-147.331 713.512,-139.528 713.371,-132.097"/>
<polygon fill="black" stroke="black" points="716.873,-132.125 713.769,-121.995 709.878,-131.849 716.873,-132.125"/>
<text text-anchor="middle" x="822.5" y="-144.5" font-family="Times Roman,serif" font-size="10.00">(0&#45;2432578387)(2432578389&#45;4294967295)</text>
</g>
<!-- 140336093443784 -->
<g id="node42" class="node"><title>140336093443784</title>
<ellipse fill="none" stroke="black" cx="949" cy="-104" rx="27" ry="18"/>
<text text-anchor="middle" x="949" y="-101.5" font-family="Times Roman,serif" font-size="10.00">dst_ip</text>
</g>
<!-- 140336093443568&#45;&gt;140336093443784 -->
<g id="edge42" class="edge"><title>140336093443568&#45;&gt;140336093443784</title>
<path fill="none" stroke="black" d="M789.697,-187.091C830.606,-182.156 906.252,-170.992 927,-154 933.961,-148.299 938.784,-139.956 942.098,-131.713"/>
<polygon fill="black" stroke="black" points="945.411,-132.84 945.332,-122.246 938.787,-130.577 945.411,-132.84"/>
<text text-anchor="middle" x="1005" y="-144.5" font-family="Times Roman,serif" font-size="10.00">(2432578388&#45;2432578388)</text>
</g>
<!-- 140336093442632 -->
<g id="node40" class="node"><title>140336093442632</title>
<polygon fill="none" stroke="black" points="744,-36 690,-36 690,-1.77636e-14 744,-3.55271e-15 744,-36"/>
<text text-anchor="middle" x="717" y="-15.5" font-family="Times Roman,serif" font-size="10.00">deny</text>
</g>
<!-- 140336093443208&#45;&gt;140336093442632 -->
<g id="edge40" class="edge"><title>140336093443208&#45;&gt;140336093442632</title>
<path fill="none" stroke="black" d="M717,-85.7616C717,-74.3597 717,-59.4342 717,-46.494"/>
<polygon fill="black" stroke="black" points="720.5,-46.2121 717,-36.2121 713.5,-46.2121 720.5,-46.2121"/>
<text text-anchor="middle" x="756" y="-58.5" font-family="Times Roman,serif" font-size="10.00">(0&#45;4294967295)</text>
</g>
<!-- 140336093444072 -->
<g id="node44" class="node"><title>140336093444072</title>
<polygon fill="none" stroke="black" points="845,-36 791,-36 791,-1.77636e-14 845,-3.55271e-15 845,-36"/>
<text text-anchor="middle" x="818" y="-15.5" font-family="Times Roman,serif" font-size="10.00">deny</text>
</g>
<!-- 140336093443784&#45;&gt;140336093444072 -->
<g id="edge44" class="edge"><title>140336093443784&#45;&gt;140336093444072</title>
<path fill="none" stroke="black" d="M922.299,-100.664C887.064,-95.6508 827.972,-84.9175 815,-68 810.343,-61.9272 809.243,-54.1213 809.803,-46.4913"/>
<polygon fill="black" stroke="black" points="813.298,-46.8022 811.42,-36.3752 806.386,-45.6975 813.298,-46.8022"/>
<text text-anchor="middle" x="913.5" y="-58.5" font-family="Times Roman,serif" font-size="10.00">(0&#45;171094289)(171094291&#45;4294967295)</text>
</g>
<!-- 140336093443280 -->
<g id="node46" class="node"><title>140336093443280</title>
<polygon fill="none" stroke="black" points="1065,-36 1011,-36 1011,-1.77636e-14 1065,-3.55271e-15 1065,-36"/>
<text text-anchor="middle" x="1038" y="-15.5" font-family="Times Roman,serif" font-size="10.00">permit</text>
</g>
<!-- 140336093443784&#45;&gt;140336093443280 -->
<g id="edge46" class="edge"><title>140336093443784&#45;&gt;140336093443280</title>
<path fill="none" stroke="black" d="M973.247,-95.5828C987.252,-89.692 1004.35,-80.6055 1016,-68 1021.79,-61.7323 1026.23,-53.6918 1029.55,-45.8996"/>
<polygon fill="black" stroke="black" points="1032.92,-46.906 1033.18,-36.3145 1026.37,-44.4291 1032.92,-46.906"/>
<text text-anchor="middle" x="1086" y="-58.5" font-family="Times Roman,serif" font-size="10.00">(171094290&#45;171094290)</text>
</g>
<!-- 140336093203920 -->
<g id="node50" class="node"><title>140336093203920</title>
<ellipse fill="none" stroke="black" cx="1566" cy="-276" rx="27" ry="18"/>
<text text-anchor="middle" x="1566" y="-273.5" font-family="Times Roman,serif" font-size="10.00">dst_port</text>
</g>
<!-- 140336092906776&#45;&gt;140336093203920 -->
<g id="edge50" class="edge"><title>140336092906776&#45;&gt;140336093203920</title>
<path fill="none" stroke="black" d="M1566,-343.762C1566,-332.36 1566,-317.434 1566,-304.494"/>
<polygon fill="black" stroke="black" points="1569.5,-304.212 1566,-294.212 1562.5,-304.212 1569.5,-304.212"/>
<text text-anchor="middle" x="1590" y="-316.5" font-family="Times Roman,serif" font-size="10.00">(0&#45;65535)</text>
</g>
<!-- 140336092887160 -->
<g id="node52" class="node"><title>140336092887160</title>
<ellipse fill="none" stroke="black" cx="1566" cy="-190" rx="27" ry="18"/>
<text text-anchor="middle" x="1566" y="-187.5" font-family="Times Roman,serif" font-size="10.00">src_ip</text>
</g>
<!-- 140336093203920&#45;&gt;140336092887160 -->
<g id="edge52" class="edge"><title>140336093203920&#45;&gt;140336092887160</title>
<path fill="none" stroke="black" d="M1566,-257.762C1566,-246.36 1566,-231.434 1566,-218.494"/>
<polygon fill="black" stroke="black" points="1569.5,-218.212 1566,-208.212 1562.5,-218.212 1569.5,-218.212"/>
<text text-anchor="middle" x="1590" y="-230.5" font-family="Times Roman,serif" font-size="10.00">(0&#45;65535)</text>
</g>
<!-- 140336092885144 -->
<g id="node54" class="node"><title>140336092885144</title>
<ellipse fill="none" stroke="black" cx="1425" cy="-104" rx="27" ry="18"/>
<text text-anchor="middle" x="1425" y="-101.5" font-family="Times Roman,serif" font-size="10.00">dst_ip</text>
</g>
<!-- 140336092887160&#45;&gt;140336092885144 -->
<g id="edge54" class="edge"><title>140336092887160&#45;&gt;140336092885144</title>
<path fill="none" stroke="black" d="M1539.58,-186.009C1516.44,-181.445 1482.89,-172.126 1459,-154 1450.68,-147.689 1443.7,-138.736 1438.26,-130.145"/>
<polygon fill="black" stroke="black" points="1441.24,-128.311 1433.17,-121.45 1435.2,-131.848 1441.24,-128.311"/>
<text text-anchor="middle" x="1563.5" y="-144.5" font-family="Times Roman,serif" font-size="10.00">(0&#45;1387402057)(1387402059&#45;4294967295)</text>
</g>
<!-- 140336092887016 -->
<g id="node60" class="node"><title>140336092887016</title>
<ellipse fill="none" stroke="black" cx="1723" cy="-104" rx="27" ry="18"/>
<text text-anchor="middle" x="1723" y="-101.5" font-family="Times Roman,serif" font-size="10.00">dst_ip</text>
</g>
<!-- 140336092887160&#45;&gt;140336092887016 -->
<g id="edge60" class="edge"><title>140336092887160&#45;&gt;140336092887016</title>
<path fill="none" stroke="black" d="M1591.54,-184.026C1612.96,-178.324 1643.82,-168.447 1668,-154 1680.24,-146.688 1692.16,-136.377 1701.75,-127.015"/>
<polygon fill="black" stroke="black" points="1704.36,-129.355 1708.91,-119.787 1699.39,-124.429 1704.36,-129.355"/>
<text text-anchor="middle" x="1753" y="-144.5" font-family="Times Roman,serif" font-size="10.00">(1387402058&#45;1387402058)</text>
</g>
<!-- 140336092887880 -->
<g id="node56" class="node"><title>140336092887880</title>
<polygon fill="none" stroke="black" points="1208,-36 1154,-36 1154,-1.77636e-14 1208,-3.55271e-15 1208,-36"/>
<text text-anchor="middle" x="1181" y="-15.5" font-family="Times Roman,serif" font-size="10.00">deny</text>
</g>
<!-- 140336092885144&#45;&gt;140336092887880 -->
<g id="edge56" class="edge"><title>140336092885144&#45;&gt;140336092887880</title>
<path fill="none" stroke="black" d="M1397.86,-102.989C1344.8,-100.491 1229.91,-92.3472 1200,-68 1193.24,-62.4991 1188.88,-54.3122 1186.08,-46.1479"/>
<polygon fill="black" stroke="black" points="1189.41,-45.0802 1183.36,-36.3823 1182.67,-46.9544 1189.41,-45.0802"/>
<text text-anchor="middle" x="1310.5" y="-58.5" font-family="Times Roman,serif" font-size="10.00">(0&#45;1080565843)(1080565845&#45;2904853119) ...</text>
</g>
<!-- 140336092903616 -->
<g id="node58" class="node"><title>140336092903616</title>
<polygon fill="none" stroke="black" points="1452,-36 1398,-36 1398,-1.77636e-14 1452,-3.55271e-15 1452,-36"/>
<text text-anchor="middle" x="1425" y="-15.5" font-family="Times Roman,serif" font-size="10.00">permit</text>
</g>
<!-- 140336092885144&#45;&gt;140336092903616 -->
<g id="edge58" class="edge"><title>140336092885144&#45;&gt;140336092903616</title>
<path fill="none" stroke="black" d="M1425,-85.7616C1425,-74.3597 1425,-59.4342 1425,-46.494"/>
<polygon fill="black" stroke="black" points="1428.5,-46.2121 1425,-36.2121 1421.5,-46.2121 1428.5,-46.2121"/>
<text text-anchor="middle" x="1562.5" y="-58.5" font-family="Times Roman,serif" font-size="10.00">(1080565844&#45;1080565844)(2904853120&#45;2904853247) ...</text>
</g>
<!-- 140336092885360 -->
<g id="node62" class="node"><title>140336092885360</title>
<polygon fill="none" stroke="black" points="1750,-36 1696,-36 1696,-1.77636e-14 1750,-3.55271e-15 1750,-36"/>
<text text-anchor="middle" x="1723" y="-15.5" font-family="Times Roman,serif" font-size="10.00">deny</text>
</g>
<!-- 140336092887016&#45;&gt;140336092885360 -->
<g id="edge62" class="edge"><title>140336092887016&#45;&gt;140336092885360</title>
<path fill="none" stroke="black" d="M1723,-85.7616C1723,-74.3597 1723,-59.4342 1723,-46.494"/>
<polygon fill="black" stroke="black" points="1726.5,-46.2121 1723,-36.2121 1719.5,-46.2121 1726.5,-46.2121"/>
<text text-anchor="middle" x="1833.5" y="-58.5" font-family="Times Roman,serif" font-size="10.00">(0&#45;1080565843)(1080565845&#45;2904853119) ...</text>
</g>
<!-- 140336092904480 -->
<g id="node64" class="node"><title>140336092904480</title>
<polygon fill="none" stroke="black" points="1994,-36 1940,-36 1940,-1.77636e-14 1994,-3.55271e-15 1994,-36"/>
<text text-anchor="middle" x="1967" y="-15.5" font-family="Times Roman,serif" font-size="10.00">permit</text>
</g>
<!-- 140336092887016&#45;&gt;140336092904480 -->
<g id="edge64" class="edge"><title>140336092887016&#45;&gt;140336092904480</title>
<path fill="none" stroke="black" d="M1750.08,-102.788C1802.42,-99.9453 1914.97,-91.2367 1945,-68 1952.12,-62.4939 1956.98,-54.2015 1960.28,-45.9444"/>
<polygon fill="black" stroke="black" points="1963.61,-47.0306 1963.48,-36.4365 1956.98,-44.7965 1963.61,-47.0306"/>
<text text-anchor="middle" x="2094.5" y="-58.5" font-family="Times Roman,serif" font-size="10.00">(1080565844&#45;1080565844)(2904853120&#45;2904853247) ...</text>
</g>
<!-- 140336093443352 -->
<g id="node68" class="node"><title>140336093443352</title>
<ellipse fill="none" stroke="black" cx="1826" cy="-276" rx="27" ry="18"/>
<text text-anchor="middle" x="1826" y="-273.5" font-family="Times Roman,serif" font-size="10.00">dst_port</text>
</g>
<!-- 140336093443712&#45;&gt;140336093443352 -->
<g id="edge68" class="edge"><title>140336093443712&#45;&gt;140336093443352</title>
<path fill="none" stroke="black" d="M1684.31,-350.757C1712.74,-335.756 1763.26,-309.104 1795.66,-292.009"/>
<polygon fill="black" stroke="black" points="1797.47,-295.008 1804.69,-287.246 1794.21,-288.817 1797.47,-295.008"/>
<text text-anchor="middle" x="1779" y="-316.5" font-family="Times Roman,serif" font-size="10.00">(0&#45;65535)</text>
</g>
<!-- 140336093442272 -->
<g id="node70" class="node"><title>140336093442272</title>
<ellipse fill="none" stroke="black" cx="2342" cy="-190" rx="27" ry="18"/>
<text text-anchor="middle" x="2342" y="-187.5" font-family="Times Roman,serif" font-size="10.00">src_ip</text>
</g>
<!-- 140336093443352&#45;&gt;140336093442272 -->
<g id="edge70" class="edge"><title>140336093443352&#45;&gt;140336093442272</title>
<path fill="none" stroke="black" d="M1846.89,-264.301C1851.74,-261.941 1856.96,-259.674 1862,-258 2020.97,-205.186 2222.88,-193.391 2304.88,-190.757"/>
<polygon fill="black" stroke="black" points="2305.06,-194.253 2314.96,-190.461 2304.86,-187.256 2305.06,-194.253"/>
<text text-anchor="middle" x="2002" y="-230.5" font-family="Times Roman,serif" font-size="10.00">(0&#45;65535)</text>
</g>
<!-- 140336092906344 -->
<g id="node72" class="node"><title>140336092906344</title>
<ellipse fill="none" stroke="black" cx="2342" cy="-104" rx="27" ry="18"/>
<text text-anchor="middle" x="2342" y="-101.5" font-family="Times Roman,serif" font-size="10.00">dst_ip</text>
</g>
<!-- 140336093442272&#45;&gt;140336092906344 -->
<g id="edge72" class="edge"><title>140336093442272&#45;&gt;140336092906344</title>
<path fill="none" stroke="black" d="M2342,-171.762C2342,-160.36 2342,-145.434 2342,-132.494"/>
<polygon fill="black" stroke="black" points="2345.5,-132.212 2342,-122.212 2338.5,-132.212 2345.5,-132.212"/>
<text text-anchor="middle" x="2446.5" y="-144.5" font-family="Times Roman,serif" font-size="10.00">(0&#45;1080501488)(1080501490&#45;4294967295)</text>
</g>
<!-- 140336092906488 -->
<g id="node78" class="node"><title>140336092906488</title>
<ellipse fill="none" stroke="black" cx="2652" cy="-104" rx="27" ry="18"/>
<text text-anchor="middle" x="2652" y="-101.5" font-family="Times Roman,serif" font-size="10.00">dst_ip</text>
</g>
<!-- 140336093442272&#45;&gt;140336092906488 -->
<g id="edge78" class="edge"><title>140336093442272&#45;&gt;140336092906488</title>
<path fill="none" stroke="black" d="M2368.87,-188.124C2409.91,-184.672 2490.24,-175.581 2555,-154 2579.25,-145.918 2604.88,-132.467 2623.7,-121.55"/>
<polygon fill="black" stroke="black" points="2625.54,-124.534 2632.36,-116.43 2621.97,-118.509 2625.54,-124.534"/>
<text text-anchor="middle" x="2654" y="-144.5" font-family="Times Roman,serif" font-size="10.00">(1080501489&#45;1080501489)</text>
</g>
<!-- 140336092905696 -->
<g id="node74" class="node"><title>140336092905696</title>
<polygon fill="none" stroke="black" points="2292,-36 2238,-36 2238,-1.77636e-14 2292,-3.55271e-15 2292,-36"/>
<text text-anchor="middle" x="2265" y="-15.5" font-family="Times Roman,serif" font-size="10.00">deny</text>
</g>
<!-- 140336092906344&#45;&gt;140336092905696 -->
<g id="edge74" class="edge"><title>140336092906344&#45;&gt;140336092905696</title>
<path fill="none" stroke="black" d="M2315.79,-98.9919C2298.48,-94.1882 2277.02,-85.0391 2266,-68 2261.85,-61.5849 2260.43,-53.672 2260.36,-46.0491"/>
<polygon fill="black" stroke="black" points="2263.86,-46.1949 2260.97,-36.0018 2256.88,-45.7721 2263.86,-46.1949"/>
<text text-anchor="middle" x="2370.5" y="-58.5" font-family="Times Roman,serif" font-size="10.00">(0&#45;2904853119)(2904853248&#45;4294967295)</text>
</g>
<!-- 140336092885504 -->
<g id="node76" class="node"><title>140336092885504</title>
<polygon fill="none" stroke="black" points="2524,-36 2470,-36 2470,-1.77636e-14 2524,-3.55271e-15 2524,-36"/>
<text text-anchor="middle" x="2497" y="-15.5" font-family="Times Roman,serif" font-size="10.00">permit</text>
</g>
<!-- 140336092906344&#45;&gt;140336092885504 -->
<g id="edge76" class="edge"><title>140336092906344&#45;&gt;140336092885504</title>
<path fill="none" stroke="black" d="M2368.46,-99.6199C2402.48,-93.5273 2459.09,-81.6876 2475,-68 2481.75,-62.1967 2486.5,-53.9291 2489.82,-45.7839"/>
<polygon fill="black" stroke="black" points="2493.22,-46.6778 2493.2,-36.083 2486.61,-44.3792 2493.22,-46.6778"/>
<text text-anchor="middle" x="2551" y="-58.5" font-family="Times Roman,serif" font-size="10.00">(2904853120&#45;2904853247)</text>
</g>
<!-- 140336092905840 -->
<g id="node80" class="node"><title>140336092905840</title>
<polygon fill="none" stroke="black" points="2679,-36 2625,-36 2625,-1.77636e-14 2679,-3.55271e-15 2679,-36"/>
<text text-anchor="middle" x="2652" y="-15.5" font-family="Times Roman,serif" font-size="10.00">deny</text>
</g>
<!-- 140336092906488&#45;&gt;140336092905840 -->
<g id="edge80" class="edge"><title>140336092906488&#45;&gt;140336092905840</title>
<path fill="none" stroke="black" d="M2652,-85.7616C2652,-74.3597 2652,-59.4342 2652,-46.494"/>
<polygon fill="black" stroke="black" points="2655.5,-46.2121 2652,-36.2121 2648.5,-46.2121 2655.5,-46.2121"/>
<text text-anchor="middle" x="2756.5" y="-58.5" font-family="Times Roman,serif" font-size="10.00">(0&#45;171856896)(171856898&#45;2904853119) ...</text>
</g>
<!-- 140336092907784 -->
<g id="node82" class="node"><title>140336092907784</title>
<polygon fill="none" stroke="black" points="2911,-36 2857,-36 2857,-1.77636e-14 2911,-3.55271e-15 2911,-36"/>
<text text-anchor="middle" x="2884" y="-15.5" font-family="Times Roman,serif" font-size="10.00">permit</text>
</g>
<!-- 140336092906488&#45;&gt;140336092907784 -->
<g id="edge82" class="edge"><title>140336092906488&#45;&gt;140336092907784</title>
<path fill="none" stroke="black" d="M2679.17,-102.499C2729.34,-99.227 2833.94,-89.9141 2862,-68 2869.09,-62.4619 2873.95,-54.1612 2877.25,-45.9063"/>
<polygon fill="black" stroke="black" points="2880.58,-46.9993 2880.46,-36.4051 2873.95,-44.7605 2880.58,-46.9993"/>
<text text-anchor="middle" x="2998.5" y="-58.5" font-family="Times Roman,serif" font-size="10.00">(171856897&#45;171856897)(2904853120&#45;2904853247)</text>
</g>
<!-- 140336093442344 -->
<g id="node86" class="node"><title>140336093442344</title>
<ellipse fill="none" stroke="black" cx="1898" cy="-276" rx="27" ry="18"/>
<text text-anchor="middle" x="1898" y="-273.5" font-family="Times Roman,serif" font-size="10.00">dst_port</text>
</g>
<!-- 140336093442704&#45;&gt;140336093442344 -->
<g id="edge86" class="edge"><title>140336093442704&#45;&gt;140336093442344</title>
<path fill="none" stroke="black" d="M1768.54,-350.222C1794.32,-335.445 1838.71,-309.993 1868.21,-293.079"/>
<polygon fill="black" stroke="black" points="1870.29,-295.922 1877.22,-287.911 1866.81,-289.849 1870.29,-295.922"/>
<text text-anchor="middle" x="1856" y="-316.5" font-family="Times Roman,serif" font-size="10.00">(0&#45;65535)</text>
</g>
<!-- 140336093442560 -->
<g id="node88" class="node"><title>140336093442560</title>
<ellipse fill="none" stroke="black" cx="2634" cy="-190" rx="27" ry="18"/>
<text text-anchor="middle" x="2634" y="-187.5" font-family="Times Roman,serif" font-size="10.00">src_ip</text>
</g>
<!-- 140336093442344&#45;&gt;140336093442560 -->
<g id="edge88" class="edge"><title>140336093442344&#45;&gt;140336093442560</title>
<path fill="none" stroke="black" d="M1924.63,-272.888C2036.3,-259.84 2467.05,-209.508 2596.8,-194.346"/>
<polygon fill="black" stroke="black" points="2597.49,-197.79 2607.02,-193.153 2596.68,-190.837 2597.49,-197.79"/>
<text text-anchor="middle" x="2334" y="-230.5" font-family="Times Roman,serif" font-size="10.00">(0&#45;65535)</text>
</g>
<!-- 140336093444360 -->
<g id="node90" class="node"><title>140336093444360</title>
<ellipse fill="none" stroke="black" cx="2941" cy="-104" rx="27" ry="18"/>
<text text-anchor="middle" x="2941" y="-101.5" font-family="Times Roman,serif" font-size="10.00">dst_ip</text>
</g>
<!-- 140336093442560&#45;&gt;140336093444360 -->
<g id="edge90" class="edge"><title>140336093442560&#45;&gt;140336093444360</title>
<path fill="none" stroke="black" d="M2659.12,-182.962C2713.79,-167.648 2843.64,-131.274 2906.17,-113.758"/>
<polygon fill="black" stroke="black" points="2907.28,-117.082 2915.96,-111.014 2905.39,-110.342 2907.28,-117.082"/>
<text text-anchor="middle" x="2844" y="-144.5" font-family="Times Roman,serif" font-size="10.00">(0&#45;4294967295)</text>
</g>
<!-- 140336093445656 -->
<g id="node92" class="node"><title>140336093445656</title>
<polygon fill="none" stroke="black" points="3185,-36 3131,-36 3131,-1.77636e-14 3185,-3.55271e-15 3185,-36"/>
<text text-anchor="middle" x="3158" y="-15.5" font-family="Times Roman,serif" font-size="10.00">deny</text>
</g>
<!-- 140336093444360&#45;&gt;140336093445656 -->
<g id="edge92" class="edge"><title>140336093444360&#45;&gt;140336093445656</title>
<path fill="none" stroke="black" d="M2968.09,-102.102C3015.36,-98.2947 3110.35,-88.2946 3136,-68 3143.06,-62.4166 3147.9,-54.1043 3151.21,-45.8526"/>
<polygon fill="black" stroke="black" points="3154.53,-46.9551 3154.43,-36.3608 3147.9,-44.7097 3154.53,-46.9551"/>
<text text-anchor="middle" x="3186" y="-58.5" font-family="Times Roman,serif" font-size="10.00">(0&#45;4294967295)</text>
</g>
</g>
</svg>
