<?xml version="1.0" encoding="UTF-8" standalone="no"?>
<!DOCTYPE svg PUBLIC "-//W3C//DTD SVG 1.1//EN"
 "http://www.w3.org/Graphics/SVG/1.1/DTD/svg11.dtd">
<!-- Generated by graphviz version 2.26.3 (20100126.1600)
 -->
<!-- Title: _anonymous_0 Pages: 1 -->
<svg width="2209pt" height="474pt"
 viewBox="0.00 0.00 2209.00 474.00" xmlns="http://www.w3.org/2000/svg" xmlns:xlink="http://www.w3.org/1999/xlink">
<g id="graph1" class="graph" transform="scale(1 1) rotate(0) translate(4 470)">
<title>_anonymous_0</title>
<polygon fill="white" stroke="white" points="-4,5 -4,-470 2206,-470 2206,5 -4,5"/>
<!-- 140336093432072 -->
<g id="node1" class="node"><title>140336093432072</title>
<ellipse fill="none" stroke="black" cx="403" cy="-448" rx="27" ry="18"/>
<text text-anchor="middle" x="403" y="-445.5" font-family="Times Roman,serif" font-size="10.00">protocol</text>
</g>
<!-- 140336093446224 -->
<g id="node2" class="node"><title>140336093446224</title>
<ellipse fill="none" stroke="black" cx="357" cy="-362" rx="27" ry="18"/>
<text text-anchor="middle" x="357" y="-359.5" font-family="Times Roman,serif" font-size="10.00">src_port</text>
</g>
<!-- 140336093432072&#45;&gt;140336093446224 -->
<g id="edge2" class="edge"><title>140336093432072&#45;&gt;140336093446224</title>
<path fill="none" stroke="black" d="M384.001,-434.991C376.562,-428.89 368.701,-420.98 364,-412 360.519,-405.349 358.583,-397.553 357.549,-390.121"/>
<polygon fill="black" stroke="black" points="361.021,-389.654 356.62,-380.016 354.05,-390.295 361.021,-389.654"/>
<text text-anchor="middle" x="393.5" y="-402.5" font-family="Times Roman,serif" font-size="10.00">(0&#45;0)(2&#45;255)</text>
</g>
<!-- 140336093221160 -->
<g id="node12" class="node"><title>140336093221160</title>
<ellipse fill="none" stroke="black" cx="453" cy="-362" rx="27" ry="18"/>
<text text-anchor="middle" x="453" y="-359.5" font-family="Times Roman,serif" font-size="10.00">src_port</text>
</g>
<!-- 140336093432072&#45;&gt;140336093221160 -->
<g id="edge12" class="edge"><title>140336093432072&#45;&gt;140336093221160</title>
<path fill="none" stroke="black" d="M412.878,-431.009C420.069,-418.641 429.933,-401.675 438.081,-387.661"/>
<polygon fill="black" stroke="black" points="441.142,-389.36 443.142,-378.956 435.09,-385.841 441.142,-389.36"/>
<text text-anchor="middle" x="443" y="-402.5" font-family="Times Roman,serif" font-size="10.00">(1&#45;1)</text>
</g>
<!-- 140336093314440 -->
<g id="node4" class="node"><title>140336093314440</title>
<ellipse fill="none" stroke="black" cx="206" cy="-276" rx="27" ry="18"/>
<text text-anchor="middle" x="206" y="-273.5" font-family="Times Roman,serif" font-size="10.00">dst_port</text>
</g>
<!-- 140336093446224&#45;&gt;140336093314440 -->
<g id="edge4" class="edge"><title>140336093446224&#45;&gt;140336093314440</title>
<path fill="none" stroke="black" d="M336.321,-350.222C310.374,-335.445 265.686,-309.993 235.987,-293.079"/>
<polygon fill="black" stroke="black" points="237.336,-289.819 226.914,-287.911 233.871,-295.902 237.336,-289.819"/>
<text text-anchor="middle" x="315" y="-316.5" font-family="Times Roman,serif" font-size="10.00">(0&#45;65535)</text>
</g>
<!-- 140336093313864 -->
<g id="node6" class="node"><title>140336093313864</title>
<ellipse fill="none" stroke="black" cx="110" cy="-190" rx="27" ry="18"/>
<text text-anchor="middle" x="110" y="-187.5" font-family="Times Roman,serif" font-size="10.00">src_ip</text>
</g>
<!-- 140336093314440&#45;&gt;140336093313864 -->
<g id="edge6" class="edge"><title>140336093314440&#45;&gt;140336093313864</title>
<path fill="none" stroke="black" d="M189.715,-261.411C174.406,-247.697 151.307,-227.005 133.909,-211.419"/>
<polygon fill="black" stroke="black" points="136.149,-208.726 126.365,-204.66 131.478,-213.94 136.149,-208.726"/>
<text text-anchor="middle" x="188" y="-230.5" font-family="Times Roman,serif" font-size="10.00">(0&#45;65535)</text>
</g>
<!-- 140336093313936 -->
<g id="node8" class="node"><title>140336093313936</title>
<ellipse fill="none" stroke="black" cx="71" cy="-104" rx="27" ry="18"/>
<text text-anchor="middle" x="71" y="-101.5" font-family="Times Roman,serif" font-size="10.00">dst_ip</text>
</g>
<!-- 140336093313864&#45;&gt;140336093313936 -->
<g id="edge8" class="edge"><title>140336093313864&#45;&gt;140336093313936</title>
<path fill="none" stroke="black" d="M100.543,-172.972C97.372,-167.035 93.9064,-160.286 91,-154 87.6173,-146.683 84.2445,-138.624 81.2587,-131.151"/>
<polygon fill="black" stroke="black" points="84.4937,-129.814 77.5882,-121.778 77.9757,-132.366 84.4937,-129.814"/>
<text text-anchor="middle" x="130" y="-144.5" font-family="Times Roman,serif" font-size="10.00">(0&#45;4294967295)</text>
</g>
<!-- 140336093314152 -->
<g id="node10" class="node"><title>140336093314152</title>
<polygon fill="none" stroke="black" points="54,-36 2.13163e-14,-36 0,-1.77636e-14 54,-3.55271e-15 54,-36"/>
<text text-anchor="middle" x="27" y="-15.5" font-family="Times Roman,serif" font-size="10.00">permit</text>
</g>
<!-- 140336093313936&#45;&gt;140336093314152 -->
<g id="edge10" class="edge"><title>140336093313936&#45;&gt;140336093314152</title>
<path fill="none" stroke="black" d="M58.0776,-88.1416C53.5428,-82.0828 48.6698,-74.955 45,-68 41.3296,-61.0439 38.1077,-53.1759 35.4425,-45.7748"/>
<polygon fill="black" stroke="black" points="38.6886,-44.4484 32.1635,-36.1013 32.0591,-46.6956 38.6886,-44.4484"/>
<text text-anchor="middle" x="84" y="-58.5" font-family="Times Roman,serif" font-size="10.00">(0&#45;4294967295)</text>
</g>
<!-- 140336092896432 -->
<g id="node14" class="node"><title>140336092896432</title>
<ellipse fill="none" stroke="black" cx="529" cy="-276" rx="27" ry="18"/>
<text text-anchor="middle" x="529" y="-273.5" font-family="Times Roman,serif" font-size="10.00">dst_port</text>
</g>
<!-- 140336093221160&#45;&gt;140336092896432 -->
<g id="edge14" class="edge"><title>140336093221160&#45;&gt;140336092896432</title>
<path fill="none" stroke="black" d="M466.94,-346.226C478.51,-333.134 495.136,-314.32 508.267,-299.461"/>
<polygon fill="black" stroke="black" points="511.149,-301.485 515.149,-291.674 505.904,-296.849 511.149,-301.485"/>
<text text-anchor="middle" x="520" y="-316.5" font-family="Times Roman,serif" font-size="10.00">(0&#45;65535)</text>
</g>
<!-- 140336092897224 -->
<g id="node16" class="node"><title>140336092897224</title>
<ellipse fill="none" stroke="black" cx="321" cy="-190" rx="27" ry="18"/>
<text text-anchor="middle" x="321" y="-187.5" font-family="Times Roman,serif" font-size="10.00">src_ip</text>
</g>
<!-- 140336092896432&#45;&gt;140336092897224 -->
<g id="edge16" class="edge"><title>140336092896432&#45;&gt;140336092897224</title>
<path fill="none" stroke="black" d="M503.365,-269.728C479.299,-263.466 442.531,-252.925 412,-240 390.372,-230.844 367.188,-218.057 349.633,-207.706"/>
<polygon fill="black" stroke="black" points="351.384,-204.675 341.005,-202.547 347.792,-210.683 351.384,-204.675"/>
<text text-anchor="middle" x="468.5" y="-230.5" font-family="Times Roman,serif" font-size="10.00">(0&#45;2054)(2066&#45;4499) ...</text>
</g>
<!-- 15500280 -->
<g id="node22" class="node"><title>15500280</title>
<ellipse fill="none" stroke="black" cx="529" cy="-190" rx="27" ry="18"/>
<text text-anchor="middle" x="529" y="-187.5" font-family="Times Roman,serif" font-size="10.00">src_ip</text>
</g>
<!-- 140336092896432&#45;&gt;15500280 -->
<g id="edge22" class="edge"><title>140336092896432&#45;&gt;15500280</title>
<path fill="none" stroke="black" d="M529,-257.762C529,-246.36 529,-231.434 529,-218.494"/>
<polygon fill="black" stroke="black" points="532.5,-218.212 529,-208.212 525.5,-218.212 532.5,-218.212"/>
<text text-anchor="middle" x="559" y="-230.5" font-family="Times Roman,serif" font-size="10.00">(2055&#45;2065)</text>
</g>
<!-- 140336092894848 -->
<g id="node40" class="node"><title>140336092894848</title>
<ellipse fill="none" stroke="black" cx="996" cy="-190" rx="27" ry="18"/>
<text text-anchor="middle" x="996" y="-187.5" font-family="Times Roman,serif" font-size="10.00">src_ip</text>
</g>
<!-- 140336092896432&#45;&gt;140336092894848 -->
<g id="edge40" class="edge"><title>140336092896432&#45;&gt;140336092894848</title>
<path fill="none" stroke="black" d="M555.109,-271.192C633.82,-256.697 868.952,-213.396 959.705,-196.684"/>
<polygon fill="black" stroke="black" points="960.587,-200.08 969.787,-194.827 959.319,-193.196 960.587,-200.08"/>
<text text-anchor="middle" x="821" y="-230.5" font-family="Times Roman,serif" font-size="10.00">(4500&#45;4500)</text>
</g>
<!-- 140336092896648 -->
<g id="node48" class="node"><title>140336092896648</title>
<ellipse fill="none" stroke="black" cx="1705" cy="-190" rx="27" ry="18"/>
<text text-anchor="middle" x="1705" y="-187.5" font-family="Times Roman,serif" font-size="10.00">src_ip</text>
</g>
<!-- 140336092896432&#45;&gt;140336092896648 -->
<g id="edge48" class="edge"><title>140336092896432&#45;&gt;140336092896648</title>
<path fill="none" stroke="black" d="M556.054,-274.022C711.345,-262.665 1488.7,-205.818 1668.04,-192.703"/>
<polygon fill="black" stroke="black" points="1668.32,-196.192 1678.04,-191.971 1667.81,-189.21 1668.32,-196.192"/>
<text text-anchor="middle" x="1218" y="-230.5" font-family="Times Roman,serif" font-size="10.00">(9000&#45;9001)</text>
</g>
<!-- 140336092894632 -->
<g id="node18" class="node"><title>140336092894632</title>
<ellipse fill="none" stroke="black" cx="157" cy="-104" rx="27" ry="18"/>
<text text-anchor="middle" x="157" y="-101.5" font-family="Times Roman,serif" font-size="10.00">dst_ip</text>
</g>
<!-- 140336092897224&#45;&gt;140336092894632 -->
<g id="edge18" class="edge"><title>140336092897224&#45;&gt;140336092894632</title>
<path fill="none" stroke="black" d="M294.079,-187.146C267.28,-183.239 225.936,-174.235 196,-154 186.697,-147.712 178.616,-138.497 172.26,-129.686"/>
<polygon fill="black" stroke="black" points="174.988,-127.47 166.498,-121.132 169.182,-131.382 174.988,-127.47"/>
<text text-anchor="middle" x="235" y="-144.5" font-family="Times Roman,serif" font-size="10.00">(0&#45;4294967295)</text>
</g>
<!-- 140336092894776 -->
<g id="node20" class="node"><title>140336092894776</title>
<polygon fill="none" stroke="black" points="155,-36 101,-36 101,-1.77636e-14 155,-3.55271e-15 155,-36"/>
<text text-anchor="middle" x="128" y="-15.5" font-family="Times Roman,serif" font-size="10.00">permit</text>
</g>
<!-- 140336092894632&#45;&gt;140336092894776 -->
<g id="edge20" class="edge"><title>140336092894632&#45;&gt;140336092894776</title>
<path fill="none" stroke="black" d="M141.721,-88.8554C136.69,-82.8739 131.697,-75.6125 129,-68 126.584,-61.1819 125.635,-53.506 125.453,-46.2528"/>
<polygon fill="black" stroke="black" points="128.956,-46.1451 125.656,-36.0775 121.958,-46.006 128.956,-46.1451"/>
<text text-anchor="middle" x="168" y="-58.5" font-family="Times Roman,serif" font-size="10.00">(0&#45;4294967295)</text>
</g>
<!-- 15502080 -->
<g id="node24" class="node"><title>15502080</title>
<ellipse fill="none" stroke="black" cx="266" cy="-104" rx="27" ry="18"/>
<text text-anchor="middle" x="266" y="-101.5" font-family="Times Roman,serif" font-size="10.00">dst_ip</text>
</g>
<!-- 15500280&#45;&gt;15502080 -->
<g id="edge24" class="edge"><title>15500280&#45;&gt;15502080</title>
<path fill="none" stroke="black" d="M502.188,-187.192C453.675,-181.808 353.442,-169.208 322,-154 308.723,-147.578 296.242,-137.064 286.448,-127.331"/>
<polygon fill="black" stroke="black" points="288.968,-124.902 279.513,-120.12 283.922,-129.754 288.968,-124.902"/>
<text text-anchor="middle" x="423.5" y="-144.5" font-family="Times Roman,serif" font-size="10.00">(0&#45;171460642)(171460644&#45;171642850) ...</text>
</g>
<!-- 140336092880408 -->
<g id="node28" class="node"><title>140336092880408</title>
<ellipse fill="none" stroke="black" cx="529" cy="-104" rx="27" ry="18"/>
<text text-anchor="middle" x="529" y="-101.5" font-family="Times Roman,serif" font-size="10.00">dst_ip</text>
</g>
<!-- 15500280&#45;&gt;140336092880408 -->
<g id="edge28" class="edge"><title>15500280&#45;&gt;140336092880408</title>
<path fill="none" stroke="black" d="M529,-171.762C529,-160.36 529,-145.434 529,-132.494"/>
<polygon fill="black" stroke="black" points="532.5,-132.212 529,-122.212 525.5,-132.212 532.5,-132.212"/>
<text text-anchor="middle" x="654.5" y="-144.5" font-family="Times Roman,serif" font-size="10.00">(171460643&#45;171460643)(171642851&#45;171642851) ...</text>
</g>
<!-- 15499848 -->
<g id="node34" class="node"><title>15499848</title>
<ellipse fill="none" stroke="black" cx="860" cy="-104" rx="27" ry="18"/>
<text text-anchor="middle" x="860" y="-101.5" font-family="Times Roman,serif" font-size="10.00">dst_ip</text>
</g>
<!-- 15500280&#45;&gt;15499848 -->
<g id="edge34" class="edge"><title>15500280&#45;&gt;15499848</title>
<path fill="none" stroke="black" d="M555.96,-187.702C612.694,-182.621 742.591,-169.637 784,-154 802.354,-147.069 820.79,-135.092 834.907,-124.598"/>
<polygon fill="black" stroke="black" points="837.296,-127.177 843.1,-118.313 833.035,-121.623 837.296,-127.177"/>
<text text-anchor="middle" x="871" y="-144.5" font-family="Times Roman,serif" font-size="10.00">(172130695&#45;172130696)</text>
</g>
<!-- 15503304 -->
<g id="node26" class="node"><title>15503304</title>
<polygon fill="none" stroke="black" points="256,-36 202,-36 202,-1.77636e-14 256,-3.55271e-15 256,-36"/>
<text text-anchor="middle" x="229" y="-15.5" font-family="Times Roman,serif" font-size="10.00">deny</text>
</g>
<!-- 15502080&#45;&gt;15503304 -->
<g id="edge26" class="edge"><title>15502080&#45;&gt;15503304</title>
<path fill="none" stroke="black" d="M247.567,-90.6215C240.733,-84.5618 233.741,-76.7823 230,-68 227.165,-61.3452 226.07,-53.7263 225.881,-46.4757"/>
<polygon fill="black" stroke="black" points="229.386,-46.3626 226.158,-36.2713 222.388,-46.1727 229.386,-46.3626"/>
<text text-anchor="middle" x="269" y="-58.5" font-family="Times Roman,serif" font-size="10.00">(0&#45;4294967295)</text>
</g>
<!-- 140336092877960 -->
<g id="node30" class="node"><title>140336092877960</title>
<polygon fill="none" stroke="black" points="357,-36 303,-36 303,-1.77636e-14 357,-3.55271e-15 357,-36"/>
<text text-anchor="middle" x="330" y="-15.5" font-family="Times Roman,serif" font-size="10.00">deny</text>
</g>
<!-- 140336092880408&#45;&gt;140336092877960 -->
<g id="edge30" class="edge"><title>140336092880408&#45;&gt;140336092877960</title>
<path fill="none" stroke="black" d="M501.944,-103.306C452.139,-101.395 349.015,-94.2849 327,-68 321.953,-61.9739 320.844,-53.9697 321.521,-46.1356"/>
<polygon fill="black" stroke="black" points="324.999,-46.5667 323.26,-36.1155 318.102,-45.37 324.999,-46.5667"/>
<text text-anchor="middle" x="437.5" y="-58.5" font-family="Times Roman,serif" font-size="10.00">(0&#45;2432584034)(2432584036&#45;2432623115) ...</text>
</g>
<!-- 15305400 -->
<g id="node32" class="node"><title>15305400</title>
<polygon fill="none" stroke="black" points="601,-36 547,-36 547,-1.77636e-14 601,-3.55271e-15 601,-36"/>
<text text-anchor="middle" x="574" y="-15.5" font-family="Times Roman,serif" font-size="10.00">permit</text>
</g>
<!-- 140336092880408&#45;&gt;15305400 -->
<g id="edge32" class="edge"><title>140336092880408&#45;&gt;15305400</title>
<path fill="none" stroke="black" d="M540.314,-87.4721C544.224,-81.4622 548.5,-74.5387 552,-68 555.754,-60.9872 559.41,-53.2024 562.629,-45.9043"/>
<polygon fill="black" stroke="black" points="565.992,-46.9423 566.716,-36.3722 559.558,-44.1839 565.992,-46.9423"/>
<text text-anchor="middle" x="690.5" y="-58.5" font-family="Times Roman,serif" font-size="10.00">(2432584035&#45;2432584035)(2432623116&#45;2432623116)</text>
</g>
<!-- 15500208 -->
<g id="node36" class="node"><title>15500208</title>
<polygon fill="none" stroke="black" points="887,-36 833,-36 833,-1.77636e-14 887,-3.55271e-15 887,-36"/>
<text text-anchor="middle" x="860" y="-15.5" font-family="Times Roman,serif" font-size="10.00">deny</text>
</g>
<!-- 15499848&#45;&gt;15500208 -->
<g id="edge36" class="edge"><title>15499848&#45;&gt;15500208</title>
<path fill="none" stroke="black" d="M860,-85.7616C860,-74.3597 860,-59.4342 860,-46.494"/>
<polygon fill="black" stroke="black" points="863.5,-46.2121 860,-36.2121 856.5,-46.2121 863.5,-46.2121"/>
<text text-anchor="middle" x="964.5" y="-58.5" font-family="Times Roman,serif" font-size="10.00">(0&#45;2873603301)(2873603303&#45;4294967295)</text>
</g>
<!-- 15512856 -->
<g id="node38" class="node"><title>15512856</title>
<polygon fill="none" stroke="black" points="1119,-36 1065,-36 1065,-1.77636e-14 1119,-3.55271e-15 1119,-36"/>
<text text-anchor="middle" x="1092" y="-15.5" font-family="Times Roman,serif" font-size="10.00">permit</text>
</g>
<!-- 15499848&#45;&gt;15512856 -->
<g id="edge38" class="edge"><title>15499848&#45;&gt;15512856</title>
<path fill="none" stroke="black" d="M887.173,-102.499C937.339,-99.227 1041.94,-89.9141 1070,-68 1077.09,-62.4619 1081.95,-54.1612 1085.25,-45.9063"/>
<polygon fill="black" stroke="black" points="1088.58,-46.9993 1088.46,-36.4051 1081.95,-44.7605 1088.58,-46.9993"/>
<text text-anchor="middle" x="1148" y="-58.5" font-family="Times Roman,serif" font-size="10.00">(2873603302&#45;2873603302)</text>
</g>
<!-- 140336092893840 -->
<g id="node42" class="node"><title>140336092893840</title>
<ellipse fill="none" stroke="black" cx="1247" cy="-104" rx="27" ry="18"/>
<text text-anchor="middle" x="1247" y="-101.5" font-family="Times Roman,serif" font-size="10.00">dst_ip</text>
</g>
<!-- 140336092894848&#45;&gt;140336092893840 -->
<g id="edge42" class="edge"><title>140336092894848&#45;&gt;140336092893840</title>
<path fill="none" stroke="black" d="M1020.07,-181.754C1064.93,-166.383 1161.44,-133.314 1212.96,-115.662"/>
<polygon fill="black" stroke="black" points="1214.31,-118.9 1222.64,-112.347 1212.04,-112.278 1214.31,-118.9"/>
<text text-anchor="middle" x="1176" y="-144.5" font-family="Times Roman,serif" font-size="10.00">(0&#45;4294967295)</text>
</g>
<!-- 140336092894128 -->
<g id="node44" class="node"><title>140336092894128</title>
<polygon fill="none" stroke="black" points="1274,-36 1220,-36 1220,-1.77636e-14 1274,-3.55271e-15 1274,-36"/>
<text text-anchor="middle" x="1247" y="-15.5" font-family="Times Roman,serif" font-size="10.00">deny</text>
</g>
<!-- 140336092893840&#45;&gt;140336092894128 -->
<g id="edge44" class="edge"><title>140336092893840&#45;&gt;140336092894128</title>
<path fill="none" stroke="black" d="M1247,-85.7616C1247,-74.3597 1247,-59.4342 1247,-46.494"/>
<polygon fill="black" stroke="black" points="1250.5,-46.2121 1247,-36.2121 1243.5,-46.2121 1250.5,-46.2121"/>
<text text-anchor="middle" x="1357.5" y="-58.5" font-family="Times Roman,serif" font-size="10.00">(0&#45;1080565843)(1080565845&#45;2904930424) ...</text>
</g>
<!-- 140336093445944 -->
<g id="node46" class="node"><title>140336093445944</title>
<polygon fill="none" stroke="black" points="1518,-36 1464,-36 1464,-1.77636e-14 1518,-3.55271e-15 1518,-36"/>
<text text-anchor="middle" x="1491" y="-15.5" font-family="Times Roman,serif" font-size="10.00">permit</text>
</g>
<!-- 140336092893840&#45;&gt;140336093445944 -->
<g id="edge46" class="edge"><title>140336092893840&#45;&gt;140336093445944</title>
<path fill="none" stroke="black" d="M1274.08,-102.788C1326.42,-99.9453 1438.97,-91.2367 1469,-68 1476.12,-62.4939 1480.98,-54.2015 1484.28,-45.9444"/>
<polygon fill="black" stroke="black" points="1487.61,-47.0306 1487.48,-36.4365 1480.98,-44.7965 1487.61,-47.0306"/>
<text text-anchor="middle" x="1611.5" y="-58.5" font-family="Times Roman,serif" font-size="10.00">(1080565844&#45;1080565844)(2904930425&#45;2904930425)</text>
</g>
<!-- 140336092894200 -->
<g id="node50" class="node"><title>140336092894200</title>
<ellipse fill="none" stroke="black" cx="1741" cy="-104" rx="27" ry="18"/>
<text text-anchor="middle" x="1741" y="-101.5" font-family="Times Roman,serif" font-size="10.00">dst_ip</text>
</g>
<!-- 140336092896648&#45;&gt;140336092894200 -->
<g id="edge50" class="edge"><title>140336092896648&#45;&gt;140336092894200</title>
<path fill="none" stroke="black" d="M1702.21,-171.752C1701.49,-161.976 1701.85,-149.934 1706,-140 1708.32,-134.435 1711.95,-129.248 1716,-124.642"/>
<polygon fill="black" stroke="black" points="1718.54,-127.052 1723.07,-117.474 1713.56,-122.137 1718.54,-127.052"/>
<text text-anchor="middle" x="1816.5" y="-144.5" font-family="Times Roman,serif" font-size="10.00">(0&#45;2904869649)(2904869651&#45;2904869856) ...</text>
</g>
<!-- 140336092894920 -->
<g id="node54" class="node"><title>140336092894920</title>
<ellipse fill="none" stroke="black" cx="1949" cy="-104" rx="27" ry="18"/>
<text text-anchor="middle" x="1949" y="-101.5" font-family="Times Roman,serif" font-size="10.00">dst_ip</text>
</g>
<!-- 140336092896648&#45;&gt;140336092894920 -->
<g id="edge54" class="edge"><title>140336092896648&#45;&gt;140336092894920</title>
<path fill="none" stroke="black" d="M1732.08,-188.788C1784.42,-185.945 1896.97,-177.237 1927,-154 1934.22,-148.41 1939.13,-139.95 1942.43,-131.569"/>
<polygon fill="black" stroke="black" points="1945.8,-132.538 1945.62,-121.945 1939.15,-130.336 1945.8,-132.538"/>
<text text-anchor="middle" x="2069.5" y="-144.5" font-family="Times Roman,serif" font-size="10.00">(2904869650&#45;2904869650)(2904869857&#45;2904869857)</text>
</g>
<!-- 140336092893984 -->
<g id="node52" class="node"><title>140336092893984</title>
<polygon fill="none" stroke="black" points="1804,-36 1750,-36 1750,-1.77636e-14 1804,-3.55271e-15 1804,-36"/>
<text text-anchor="middle" x="1777" y="-15.5" font-family="Times Roman,serif" font-size="10.00">deny</text>
</g>
<!-- 140336092894200&#45;&gt;140336092893984 -->
<g id="edge52" class="edge"><title>140336092894200&#45;&gt;140336092893984</title>
<path fill="none" stroke="black" d="M1748.29,-86.5966C1753.21,-74.8272 1759.82,-59.0352 1765.46,-45.5704"/>
<polygon fill="black" stroke="black" points="1768.72,-46.8439 1769.35,-36.268 1762.26,-44.1409 1768.72,-46.8439"/>
<text text-anchor="middle" x="1800" y="-58.5" font-family="Times Roman,serif" font-size="10.00">(0&#45;4294967295)</text>
</g>
<!-- 140336092896576 -->
<g id="node56" class="node"><title>140336092896576</title>
<polygon fill="none" stroke="black" points="1976,-36 1922,-36 1922,-1.77636e-14 1976,-3.55271e-15 1976,-36"/>
<text text-anchor="middle" x="1949" y="-15.5" font-family="Times Roman,serif" font-size="10.00">permit</text>
</g>
<!-- 140336092894920&#45;&gt;140336092896576 -->
<g id="edge56" class="edge"><title>140336092894920&#45;&gt;140336092896576</title>
<path fill="none" stroke="black" d="M1949,-85.7616C1949,-74.3597 1949,-59.4342 1949,-46.494"/>
<polygon fill="black" stroke="black" points="1952.5,-46.2121 1949,-36.2121 1945.5,-46.2121 1952.5,-46.2121"/>
<text text-anchor="middle" x="1988" y="-58.5" font-family="Times Roman,serif" font-size="10.00">(0&#45;4294967295)</text>
</g>
</g>
</svg>
