<?xml version="1.0" encoding="UTF-8" standalone="no"?>
<!DOCTYPE svg PUBLIC "-//W3C//DTD SVG 1.1//EN"
 "http://www.w3.org/Graphics/SVG/1.1/DTD/svg11.dtd">
<!-- Generated by graphviz version 2.26.3 (20100126.1600)
 -->
<!-- Title: _anonymous_0 Pages: 1 -->
<svg width="494pt" height="404pt"
 viewBox="0.00 0.00 494.00 404.00" xmlns="http://www.w3.org/2000/svg" xmlns:xlink="http://www.w3.org/1999/xlink">
<g id="graph1" class="graph" transform="scale(1 1) rotate(0) translate(4 400)">
<title>_anonymous_0</title>
<polygon fill="white" stroke="white" points="-4,5 -4,-400 491,-400 491,5 -4,5"/>
<!-- 139672435815992 -->
<g id="node1" class="node"><title>139672435815992</title>
<ellipse fill="none" stroke="black" cx="63" cy="-378" rx="27" ry="18"/>
<text text-anchor="middle" x="63" y="-375.5" font-family="Times Roman,serif" font-size="10.00">17</text>
</g>
<!-- 139672435818368 -->
<g id="node2" class="node"><title>139672435818368</title>
<ellipse fill="none" stroke="black" cx="27" cy="-306" rx="27" ry="18"/>
<text text-anchor="middle" x="27" y="-303.5" font-family="Times Roman,serif" font-size="10.00">2</text>
</g>
<!-- 139672435815992&#45;&gt;139672435818368 -->
<g id="edge2" class="edge"><title>139672435815992&#45;&gt;139672435818368</title>
<path fill="none" stroke="black" d="M54.2854,-360.571C50.0403,-352.081 44.8464,-341.693 40.1337,-332.267"/>
<polygon fill="black" stroke="black" points="43.237,-330.648 35.6343,-323.269 36.976,-333.778 43.237,-330.648"/>
</g>
<!-- 139672435690456 -->
<g id="node12" class="node"><title>139672435690456</title>
<ellipse fill="none" stroke="black" cx="99" cy="-306" rx="27" ry="18"/>
<text text-anchor="middle" x="99" y="-303.5" font-family="Times Roman,serif" font-size="10.00">15</text>
</g>
<!-- 139672435815992&#45;&gt;139672435690456 -->
<g id="edge12" class="edge"><title>139672435815992&#45;&gt;139672435690456</title>
<path fill="none" stroke="black" d="M71.7146,-360.571C75.9597,-352.081 81.1536,-341.693 85.8663,-332.267"/>
<polygon fill="black" stroke="black" points="89.024,-333.778 90.3657,-323.269 82.763,-330.648 89.024,-333.778"/>
</g>
<!-- 139672435817000 -->
<g id="node4" class="node"><title>139672435817000</title>
<ellipse fill="none" stroke="black" cx="27" cy="-234" rx="27" ry="18"/>
<text text-anchor="middle" x="27" y="-231.5" font-family="Times Roman,serif" font-size="10.00">2</text>
</g>
<!-- 139672435818368&#45;&gt;139672435817000 -->
<g id="edge4" class="edge"><title>139672435818368&#45;&gt;139672435817000</title>
<path fill="none" stroke="black" d="M27,-287.831C27,-280.131 27,-270.974 27,-262.417"/>
<polygon fill="black" stroke="black" points="30.5001,-262.413 27,-252.413 23.5001,-262.413 30.5001,-262.413"/>
</g>
<!-- 139672435815056 -->
<g id="node6" class="node"><title>139672435815056</title>
<ellipse fill="none" stroke="black" cx="27" cy="-162" rx="27" ry="18"/>
<text text-anchor="middle" x="27" y="-159.5" font-family="Times Roman,serif" font-size="10.00">2</text>
</g>
<!-- 139672435817000&#45;&gt;139672435815056 -->
<g id="edge6" class="edge"><title>139672435817000&#45;&gt;139672435815056</title>
<path fill="none" stroke="black" d="M27,-215.831C27,-208.131 27,-198.974 27,-190.417"/>
<polygon fill="black" stroke="black" points="30.5001,-190.413 27,-180.413 23.5001,-190.413 30.5001,-190.413"/>
</g>
<!-- 139672435690240 -->
<g id="node8" class="node"><title>139672435690240</title>
<ellipse fill="none" stroke="black" cx="27" cy="-90" rx="27" ry="18"/>
<text text-anchor="middle" x="27" y="-87.5" font-family="Times Roman,serif" font-size="10.00">2</text>
</g>
<!-- 139672435815056&#45;&gt;139672435690240 -->
<g id="edge8" class="edge"><title>139672435815056&#45;&gt;139672435690240</title>
<path fill="none" stroke="black" d="M27,-143.831C27,-136.131 27,-126.974 27,-118.417"/>
<polygon fill="black" stroke="black" points="30.5001,-118.413 27,-108.413 23.5001,-118.413 30.5001,-118.413"/>
</g>
<!-- 139672435690024 -->
<g id="node10" class="node"><title>139672435690024</title>
<polygon fill="none" stroke="black" points="54,-36 2.13163e-14,-36 0,-1.77636e-14 54,-3.55271e-15 54,-36"/>
<text text-anchor="middle" x="27" y="-15.5" font-family="Times Roman,serif" font-size="10.00">2</text>
</g>
<!-- 139672435690240&#45;&gt;139672435690024 -->
<g id="edge10" class="edge"><title>139672435690240&#45;&gt;139672435690024</title>
<path fill="none" stroke="black" d="M27,-71.8314C27,-64.131 27,-54.9743 27,-46.4166"/>
<polygon fill="black" stroke="black" points="30.5001,-46.4132 27,-36.4133 23.5001,-46.4133 30.5001,-46.4132"/>
</g>
<!-- 139672435689880 -->
<g id="node14" class="node"><title>139672435689880</title>
<ellipse fill="none" stroke="black" cx="99" cy="-234" rx="27" ry="18"/>
<text text-anchor="middle" x="99" y="-231.5" font-family="Times Roman,serif" font-size="10.00">15</text>
</g>
<!-- 139672435690456&#45;&gt;139672435689880 -->
<g id="edge14" class="edge"><title>139672435690456&#45;&gt;139672435689880</title>
<path fill="none" stroke="black" d="M99,-287.831C99,-280.131 99,-270.974 99,-262.417"/>
<polygon fill="black" stroke="black" points="102.5,-262.413 99,-252.413 95.5001,-262.413 102.5,-262.413"/>
</g>
<!-- 139672435691176 -->
<g id="node16" class="node"><title>139672435691176</title>
<ellipse fill="none" stroke="black" cx="99" cy="-162" rx="27" ry="18"/>
<text text-anchor="middle" x="99" y="-159.5" font-family="Times Roman,serif" font-size="10.00">2</text>
</g>
<!-- 139672435689880&#45;&gt;139672435691176 -->
<g id="edge16" class="edge"><title>139672435689880&#45;&gt;139672435691176</title>
<path fill="none" stroke="black" d="M99,-215.831C99,-208.131 99,-198.974 99,-190.417"/>
<polygon fill="black" stroke="black" points="102.5,-190.413 99,-180.413 95.5001,-190.413 102.5,-190.413"/>
</g>
<!-- 139672435688296 -->
<g id="node22" class="node"><title>139672435688296</title>
<ellipse fill="none" stroke="black" cx="207" cy="-162" rx="27" ry="18"/>
<text text-anchor="middle" x="207" y="-159.5" font-family="Times Roman,serif" font-size="10.00">13</text>
</g>
<!-- 139672435689880&#45;&gt;139672435688296 -->
<g id="edge22" class="edge"><title>139672435689880&#45;&gt;139672435688296</title>
<path fill="none" stroke="black" d="M118.308,-221.128C135.355,-209.763 160.402,-193.065 179.534,-180.31"/>
<polygon fill="black" stroke="black" points="181.48,-183.22 187.859,-174.761 177.597,-177.396 181.48,-183.22"/>
</g>
<!-- 139672435688944 -->
<g id="node18" class="node"><title>139672435688944</title>
<ellipse fill="none" stroke="black" cx="99" cy="-90" rx="27" ry="18"/>
<text text-anchor="middle" x="99" y="-87.5" font-family="Times Roman,serif" font-size="10.00">2</text>
</g>
<!-- 139672435691176&#45;&gt;139672435688944 -->
<g id="edge18" class="edge"><title>139672435691176&#45;&gt;139672435688944</title>
<path fill="none" stroke="black" d="M99,-143.831C99,-136.131 99,-126.974 99,-118.417"/>
<polygon fill="black" stroke="black" points="102.5,-118.413 99,-108.413 95.5001,-118.413 102.5,-118.413"/>
</g>
<!-- 139672435687864 -->
<g id="node20" class="node"><title>139672435687864</title>
<polygon fill="none" stroke="black" points="126,-36 72,-36 72,-1.77636e-14 126,-3.55271e-15 126,-36"/>
<text text-anchor="middle" x="99" y="-15.5" font-family="Times Roman,serif" font-size="10.00">2</text>
</g>
<!-- 139672435688944&#45;&gt;139672435687864 -->
<g id="edge20" class="edge"><title>139672435688944&#45;&gt;139672435687864</title>
<path fill="none" stroke="black" d="M99,-71.8314C99,-64.131 99,-54.9743 99,-46.4166"/>
<polygon fill="black" stroke="black" points="102.5,-46.4132 99,-36.4133 95.5001,-46.4133 102.5,-46.4132"/>
</g>
<!-- 139672435691464 -->
<g id="node24" class="node"><title>139672435691464</title>
<ellipse fill="none" stroke="black" cx="171" cy="-90" rx="27" ry="18"/>
<text text-anchor="middle" x="171" y="-87.5" font-family="Times Roman,serif" font-size="10.00">4</text>
</g>
<!-- 139672435688296&#45;&gt;139672435691464 -->
<g id="edge24" class="edge"><title>139672435688296&#45;&gt;139672435691464</title>
<path fill="none" stroke="black" d="M198.285,-144.571C194.04,-136.081 188.846,-125.693 184.134,-116.267"/>
<polygon fill="black" stroke="black" points="187.237,-114.648 179.634,-107.269 180.976,-117.778 187.237,-114.648"/>
</g>
<!-- 139672435690096 -->
<g id="node28" class="node"><title>139672435690096</title>
<ellipse fill="none" stroke="black" cx="243" cy="-90" rx="27" ry="18"/>
<text text-anchor="middle" x="243" y="-87.5" font-family="Times Roman,serif" font-size="10.00">6</text>
</g>
<!-- 139672435688296&#45;&gt;139672435690096 -->
<g id="edge28" class="edge"><title>139672435688296&#45;&gt;139672435690096</title>
<path fill="none" stroke="black" d="M215.715,-144.571C219.96,-136.081 225.154,-125.693 229.866,-116.267"/>
<polygon fill="black" stroke="black" points="233.024,-117.778 234.366,-107.269 226.763,-114.648 233.024,-117.778"/>
</g>
<!-- 139672435689376 -->
<g id="node34" class="node"><title>139672435689376</title>
<ellipse fill="none" stroke="black" cx="387" cy="-90" rx="27" ry="18"/>
<text text-anchor="middle" x="387" y="-87.5" font-family="Times Roman,serif" font-size="10.00">3</text>
</g>
<!-- 139672435688296&#45;&gt;139672435689376 -->
<g id="edge34" class="edge"><title>139672435688296&#45;&gt;139672435689376</title>
<path fill="none" stroke="black" d="M230.163,-152.735C261.669,-140.133 318.207,-117.517 354.102,-103.159"/>
<polygon fill="black" stroke="black" points="355.656,-106.307 363.64,-99.3438 353.056,-99.8081 355.656,-106.307"/>
</g>
<!-- 139672435690816 -->
<g id="node26" class="node"><title>139672435690816</title>
<polygon fill="none" stroke="black" points="198,-36 144,-36 144,-1.77636e-14 198,-3.55271e-15 198,-36"/>
<text text-anchor="middle" x="171" y="-15.5" font-family="Times Roman,serif" font-size="10.00">4</text>
</g>
<!-- 139672435691464&#45;&gt;139672435690816 -->
<g id="edge26" class="edge"><title>139672435691464&#45;&gt;139672435690816</title>
<path fill="none" stroke="black" d="M171,-71.8314C171,-64.131 171,-54.9743 171,-46.4166"/>
<polygon fill="black" stroke="black" points="174.5,-46.4132 171,-36.4133 167.5,-46.4133 174.5,-46.4132"/>
</g>
<!-- 139672435689088 -->
<g id="node30" class="node"><title>139672435689088</title>
<polygon fill="none" stroke="black" points="270,-36 216,-36 216,-1.77636e-14 270,-3.55271e-15 270,-36"/>
<text text-anchor="middle" x="243" y="-15.5" font-family="Times Roman,serif" font-size="10.00">4</text>
</g>
<!-- 139672435690096&#45;&gt;139672435689088 -->
<g id="edge30" class="edge"><title>139672435690096&#45;&gt;139672435689088</title>
<path fill="none" stroke="black" d="M243,-71.8314C243,-64.131 243,-54.9743 243,-46.4166"/>
<polygon fill="black" stroke="black" points="246.5,-46.4132 243,-36.4133 239.5,-46.4133 246.5,-46.4132"/>
</g>
<!-- 139672435689664 -->
<g id="node32" class="node"><title>139672435689664</title>
<polygon fill="none" stroke="black" points="342,-36 288,-36 288,-1.77636e-14 342,-3.55271e-15 342,-36"/>
<text text-anchor="middle" x="315" y="-15.5" font-family="Times Roman,serif" font-size="10.00">2</text>
</g>
<!-- 139672435690096&#45;&gt;139672435689664 -->
<g id="edge32" class="edge"><title>139672435690096&#45;&gt;139672435689664</title>
<path fill="none" stroke="black" d="M258.269,-74.7307C267.371,-65.6292 279.154,-53.8461 289.621,-43.3788"/>
<polygon fill="black" stroke="black" points="292.357,-45.5927 296.953,-36.0467 287.407,-40.6429 292.357,-45.5927"/>
</g>
<!-- 139672435690600 -->
<g id="node36" class="node"><title>139672435690600</title>
<polygon fill="none" stroke="black" points="414,-36 360,-36 360,-1.77636e-14 414,-3.55271e-15 414,-36"/>
<text text-anchor="middle" x="387" y="-15.5" font-family="Times Roman,serif" font-size="10.00">2</text>
</g>
<!-- 139672435689376&#45;&gt;139672435690600 -->
<g id="edge36" class="edge"><title>139672435689376&#45;&gt;139672435690600</title>
<path fill="none" stroke="black" d="M387,-71.8314C387,-64.131 387,-54.9743 387,-46.4166"/>
<polygon fill="black" stroke="black" points="390.5,-46.4132 387,-36.4133 383.5,-46.4133 390.5,-46.4132"/>
</g>
<!-- 139672435690960 -->
<g id="node38" class="node"><title>139672435690960</title>
<polygon fill="none" stroke="black" points="486,-36 432,-36 432,-1.77636e-14 486,-3.55271e-15 486,-36"/>
<text text-anchor="middle" x="459" y="-15.5" font-family="Times Roman,serif" font-size="10.00">1</text>
</g>
<!-- 139672435689376&#45;&gt;139672435690960 -->
<g id="edge38" class="edge"><title>139672435689376&#45;&gt;139672435690960</title>
<path fill="none" stroke="black" d="M402.269,-74.7307C411.371,-65.6292 423.154,-53.8461 433.621,-43.3788"/>
<polygon fill="black" stroke="black" points="436.357,-45.5927 440.953,-36.0467 431.407,-40.6429 436.357,-45.5927"/>
</g>
</g>
</svg>
