<?xml version="1.0" encoding="UTF-8" standalone="no"?>
<!DOCTYPE svg PUBLIC "-//W3C//DTD SVG 1.1//EN"
 "http://www.w3.org/Graphics/SVG/1.1/DTD/svg11.dtd">
<!-- Generated by graphviz version 2.26.3 (20100126.1600)
 -->
<!-- Title: _anonymous_0 Pages: 1 -->
<svg width="278pt" height="216pt"
 viewBox="0.00 0.00 278.00 216.00" xmlns="http://www.w3.org/2000/svg" xmlns:xlink="http://www.w3.org/1999/xlink">
<g id="graph1" class="graph" transform="scale(1 1) rotate(0) translate(4 212)">
<title>_anonymous_0</title>
<polygon fill="white" stroke="white" points="-4,5 -4,-212 275,-212 275,5 -4,5"/>
<!-- 140336093314728 -->
<g id="node1" class="node"><title>140336093314728</title>
<ellipse fill="none" stroke="black" cx="140" cy="-190" rx="18" ry="18"/>
</g>
<!-- 140336093314584 -->
<g id="node2" class="node"><title>140336093314584</title>
<ellipse fill="none" stroke="black" cx="99" cy="-104" rx="18" ry="18"/>
</g>
<!-- 140336093314728&#45;&gt;140336093314584 -->
<g id="edge2" class="edge"><title>140336093314728&#45;&gt;140336093314584</title>
<path fill="none" stroke="black" d="M132.095,-173.418C126.196,-161.045 118.025,-143.907 111.279,-129.755"/>
<polygon fill="black" stroke="black" points="114.344,-128.051 106.881,-120.531 108.025,-131.064 114.344,-128.051"/>
<text text-anchor="middle" x="125.5" y="-144.5" font-family="Times Roman,serif" font-size="10.00">0</text>
</g>
<!-- 140336092881336 -->
<g id="node8" class="node"><title>140336092881336</title>
<ellipse fill="none" stroke="black" cx="171" cy="-104" rx="18" ry="18"/>
</g>
<!-- 140336093314728&#45;&gt;140336092881336 -->
<g id="edge8" class="edge"><title>140336093314728&#45;&gt;140336092881336</title>
<path fill="none" stroke="black" d="M146.125,-173.009C150.498,-160.877 156.466,-144.32 161.46,-130.465"/>
<polygon fill="black" stroke="black" points="164.79,-131.55 164.888,-120.956 158.204,-129.176 164.79,-131.55"/>
<text text-anchor="middle" x="160.5" y="-144.5" font-family="Times Roman,serif" font-size="10.00">1</text>
</g>
<!-- 140336092881768 -->
<g id="node4" class="node"><title>140336092881768</title>
<polygon fill="none" stroke="black" points="54,-36 2.13163e-14,-36 0,-1.77636e-14 54,-3.55271e-15 54,-36"/>
<text text-anchor="middle" x="27" y="-15.5" font-family="Times Roman,serif" font-size="10.00">permit</text>
</g>
<!-- 140336093314584&#45;&gt;140336092881768 -->
<g id="edge4" class="edge"><title>140336093314584&#45;&gt;140336092881768</title>
<path fill="none" stroke="black" d="M87.432,-90.1826C77.1016,-77.8435 61.6891,-59.4342 49.0149,-44.2956"/>
<polygon fill="black" stroke="black" points="51.4082,-41.7019 42.3051,-36.2811 46.0409,-46.1955 51.4082,-41.7019"/>
<text text-anchor="middle" x="71.5" y="-58.5" font-family="Times Roman,serif" font-size="10.00">0</text>
</g>
<!-- 140336092881696 -->
<g id="node6" class="node"><title>140336092881696</title>
<polygon fill="none" stroke="black" points="126,-36 72,-36 72,-1.77636e-14 126,-3.55271e-15 126,-36"/>
<text text-anchor="middle" x="99" y="-15.5" font-family="Times Roman,serif" font-size="10.00">deny</text>
</g>
<!-- 140336093314584&#45;&gt;140336092881696 -->
<g id="edge6" class="edge"><title>140336093314584&#45;&gt;140336092881696</title>
<path fill="none" stroke="black" d="M99,-85.7616C99,-74.3597 99,-59.4342 99,-46.494"/>
<polygon fill="black" stroke="black" points="102.5,-46.2121 99,-36.2121 95.5001,-46.2121 102.5,-46.2121"/>
<text text-anchor="middle" x="102.5" y="-58.5" font-family="Times Roman,serif" font-size="10.00">1</text>
</g>
<!-- 140336092881264 -->
<g id="node10" class="node"><title>140336092881264</title>
<polygon fill="none" stroke="black" points="198,-36 144,-36 144,-1.77636e-14 198,-3.55271e-15 198,-36"/>
<text text-anchor="middle" x="171" y="-15.5" font-family="Times Roman,serif" font-size="10.00">permit</text>
</g>
<!-- 140336092881336&#45;&gt;140336092881264 -->
<g id="edge10" class="edge"><title>140336092881336&#45;&gt;140336092881264</title>
<path fill="none" stroke="black" d="M171,-85.7616C171,-74.3597 171,-59.4342 171,-46.494"/>
<polygon fill="black" stroke="black" points="174.5,-46.2121 171,-36.2121 167.5,-46.2121 174.5,-46.2121"/>
<text text-anchor="middle" x="174.5" y="-58.5" font-family="Times Roman,serif" font-size="10.00">0</text>
</g>
<!-- 140336092881408 -->
<g id="node12" class="node"><title>140336092881408</title>
<polygon fill="none" stroke="black" points="270,-36 216,-36 216,-1.77636e-14 270,-3.55271e-15 270,-36"/>
<text text-anchor="middle" x="243" y="-15.5" font-family="Times Roman,serif" font-size="10.00">deny</text>
</g>
<!-- 140336092881336&#45;&gt;140336092881408 -->
<g id="edge12" class="edge"><title>140336092881336&#45;&gt;140336092881408</title>
<path fill="none" stroke="black" d="M182.568,-90.1826C192.898,-77.8435 208.311,-59.4342 220.985,-44.2956"/>
<polygon fill="black" stroke="black" points="223.959,-46.1955 227.695,-36.2811 218.592,-41.7019 223.959,-46.1955"/>
<text text-anchor="middle" x="214.5" y="-58.5" font-family="Times Roman,serif" font-size="10.00">1</text>
</g>
</g>
</svg>
