<?xml version="1.0" encoding="UTF-8" standalone="no"?>
<!DOCTYPE svg PUBLIC "-//W3C//DTD SVG 1.1//EN"
 "http://www.w3.org/Graphics/SVG/1.1/DTD/svg11.dtd">
<!-- Generated by graphviz version 2.26.3 (20100126.1600)
 -->
<!-- Title: _anonymous_0 Pages: 1 -->
<svg width="3653pt" height="474pt"
 viewBox="0.00 0.00 3653.00 474.00" xmlns="http://www.w3.org/2000/svg" xmlns:xlink="http://www.w3.org/1999/xlink">
<g id="graph1" class="graph" transform="scale(1 1) rotate(0) translate(4 470)">
<title>_anonymous_0</title>
<polygon fill="white" stroke="white" points="-4,5 -4,-470 3650,-470 3650,5 -4,5"/>
<!-- 140036453742208 -->
<g id="node1" class="node"><title>140036453742208</title>
<ellipse fill="none" stroke="black" cx="2409" cy="-448" rx="27" ry="18"/>
<text text-anchor="middle" x="2409" y="-445.5" font-family="Times Roman,serif" font-size="10.00">protocol</text>
</g>
<!-- 140036453742640 -->
<g id="node2" class="node"><title>140036453742640</title>
<ellipse fill="none" stroke="black" cx="1809" cy="-362" rx="27" ry="18"/>
<text text-anchor="middle" x="1809" y="-359.5" font-family="Times Roman,serif" font-size="10.00">src_port</text>
</g>
<!-- 140036453742208&#45;&gt;140036453742640 -->
<g id="edge2" class="edge"><title>140036453742208&#45;&gt;140036453742640</title>
<path fill="none" stroke="black" d="M2382.44,-444.194C2286.32,-430.416 1956.39,-383.126 1845.61,-367.247"/>
<polygon fill="black" stroke="black" points="1845.98,-363.765 1835.59,-365.811 1844.99,-370.694 1845.98,-363.765"/>
<text text-anchor="middle" x="2173" y="-402.5" font-family="Times Roman,serif" font-size="10.00">(00000000)</text>
</g>
<!-- 140036453717488 -->
<g id="node36" class="node"><title>140036453717488</title>
<ellipse fill="none" stroke="black" cx="2409" cy="-362" rx="27" ry="18"/>
<text text-anchor="middle" x="2409" y="-359.5" font-family="Times Roman,serif" font-size="10.00">src_port</text>
</g>
<!-- 140036453742208&#45;&gt;140036453717488 -->
<g id="edge36" class="edge"><title>140036453742208&#45;&gt;140036453717488</title>
<path fill="none" stroke="black" d="M2409,-429.762C2409,-418.36 2409,-403.434 2409,-390.494"/>
<polygon fill="black" stroke="black" points="2412.5,-390.212 2409,-380.212 2405.5,-390.212 2412.5,-390.212"/>
<text text-anchor="middle" x="2437" y="-402.5" font-family="Times Roman,serif" font-size="10.00">(00000001)</text>
</g>
<!-- 140036453742424 -->
<g id="node66" class="node"><title>140036453742424</title>
<ellipse fill="none" stroke="black" cx="2709" cy="-362" rx="27" ry="18"/>
<text text-anchor="middle" x="2709" y="-359.5" font-family="Times Roman,serif" font-size="10.00">src_port</text>
</g>
<!-- 140036453742208&#45;&gt;140036453742424 -->
<g id="edge66" class="edge"><title>140036453742208&#45;&gt;140036453742424</title>
<path fill="none" stroke="black" d="M2433.81,-440.889C2487.15,-425.596 2612.91,-389.546 2674.2,-371.975"/>
<polygon fill="black" stroke="black" points="2675.52,-375.239 2684.17,-369.119 2673.59,-368.51 2675.52,-375.239"/>
<text text-anchor="middle" x="2637.5" y="-402.5" font-family="Times Roman,serif" font-size="10.00">(0000001*)(000001**) ...</text>
</g>
<!-- 140036453742712 -->
<g id="node4" class="node"><title>140036453742712</title>
<ellipse fill="none" stroke="black" cx="947" cy="-276" rx="27" ry="18"/>
<text text-anchor="middle" x="947" y="-273.5" font-family="Times Roman,serif" font-size="10.00">dst_port</text>
</g>
<!-- 140036453742640&#45;&gt;140036453742712 -->
<g id="edge4" class="edge"><title>140036453742640&#45;&gt;140036453742712</title>
<path fill="none" stroke="black" d="M1782.26,-359.332C1657.09,-346.844 1129.09,-294.167 984.016,-279.693"/>
<polygon fill="black" stroke="black" points="984.155,-276.19 973.857,-278.679 983.46,-283.155 984.155,-276.19"/>
<text text-anchor="middle" x="1476" y="-316.5" font-family="Times Roman,serif" font-size="10.00">(****************)</text>
</g>
<!-- 140036453743144 -->
<g id="node6" class="node"><title>140036453743144</title>
<ellipse fill="none" stroke="black" cx="445" cy="-190" rx="27" ry="18"/>
<text text-anchor="middle" x="445" y="-187.5" font-family="Times Roman,serif" font-size="10.00">src_ip</text>
</g>
<!-- 140036453742712&#45;&gt;140036453743144 -->
<g id="edge6" class="edge"><title>140036453742712&#45;&gt;140036453743144</title>
<path fill="none" stroke="black" d="M920.161,-273.622C868.939,-268.869 753.806,-257.161 658,-240 594.617,-228.646 521.776,-210.404 479.798,-199.375"/>
<polygon fill="black" stroke="black" points="480.628,-195.975 470.066,-196.802 478.839,-202.742 480.628,-195.975"/>
<text text-anchor="middle" x="760.5" y="-230.5" font-family="Times Roman,serif" font-size="10.00">(00000***********)(0000100*********) ...</text>
</g>
<!-- 140036453743936 -->
<g id="node12" class="node"><title>140036453743936</title>
<ellipse fill="none" stroke="black" cx="804" cy="-190" rx="27" ry="18"/>
<text text-anchor="middle" x="804" y="-187.5" font-family="Times Roman,serif" font-size="10.00">src_ip</text>
</g>
<!-- 140036453742712&#45;&gt;140036453743936 -->
<g id="edge12" class="edge"><title>140036453742712&#45;&gt;140036453743936</title>
<path fill="none" stroke="black" d="M926.815,-263.861C902.329,-249.135 860.873,-224.203 832.978,-207.428"/>
<polygon fill="black" stroke="black" points="834.456,-204.232 824.082,-202.078 830.848,-210.231 834.456,-204.232"/>
<text text-anchor="middle" x="937" y="-230.5" font-family="Times Roman,serif" font-size="10.00">(0000101011011000)</text>
</g>
<!-- 140036453713608 -->
<g id="node24" class="node"><title>140036453713608</title>
<ellipse fill="none" stroke="black" cx="1142" cy="-190" rx="27" ry="18"/>
<text text-anchor="middle" x="1142" y="-187.5" font-family="Times Roman,serif" font-size="10.00">src_ip</text>
</g>
<!-- 140036453742712&#45;&gt;140036453713608 -->
<g id="edge24" class="edge"><title>140036453742712&#45;&gt;140036453713608</title>
<path fill="none" stroke="black" d="M969.751,-265.966C1004.39,-250.69 1070.49,-221.539 1109.97,-204.128"/>
<polygon fill="black" stroke="black" points="1111.66,-207.207 1119.39,-199.97 1108.83,-200.803 1111.66,-207.207"/>
<text text-anchor="middle" x="1167" y="-230.5" font-family="Times Roman,serif" font-size="10.00">(0000101011011001)(0001011101110110) ...</text>
</g>
<!-- 140036453743360 -->
<g id="node8" class="node"><title>140036453743360</title>
<ellipse fill="none" stroke="black" cx="90" cy="-104" rx="27" ry="18"/>
<text text-anchor="middle" x="90" y="-101.5" font-family="Times Roman,serif" font-size="10.00">dst_ip</text>
</g>
<!-- 140036453743144&#45;&gt;140036453743360 -->
<g id="edge8" class="edge"><title>140036453743144&#45;&gt;140036453743360</title>
<path fill="none" stroke="black" d="M418.079,-187.715C359.329,-182.514 221.338,-169.067 177,-154 155.567,-146.717 133.478,-133.946 116.921,-123.134"/>
<polygon fill="black" stroke="black" points="118.586,-120.037 108.331,-117.377 114.689,-125.852 118.586,-120.037"/>
<text text-anchor="middle" x="265" y="-144.5" font-family="Times Roman,serif" font-size="10.00">(********************************)</text>
</g>
<!-- 140036453743648 -->
<g id="node10" class="node"><title>140036453743648</title>
<polygon fill="none" stroke="black" points="54,-36 2.13163e-14,-36 0,-1.77636e-14 54,-3.55271e-15 54,-36"/>
<text text-anchor="middle" x="27" y="-15.5" font-family="Times Roman,serif" font-size="10.00">deny</text>
</g>
<!-- 140036453743360&#45;&gt;140036453743648 -->
<g id="edge10" class="edge"><title>140036453743360&#45;&gt;140036453743648</title>
<path fill="none" stroke="black" d="M65.3805,-96.4252C51.8292,-90.8675 36.1498,-81.8344 28,-68 24.2259,-61.5934 22.865,-53.8777 22.7251,-46.4456"/>
<polygon fill="black" stroke="black" points="26.2289,-46.4514 23.2161,-36.2939 19.237,-46.1132 26.2289,-46.4514"/>
<text text-anchor="middle" x="116" y="-58.5" font-family="Times Roman,serif" font-size="10.00">(********************************)</text>
</g>
<!-- 140036453744080 -->
<g id="node14" class="node"><title>140036453744080</title>
<ellipse fill="none" stroke="black" cx="326" cy="-104" rx="27" ry="18"/>
<text text-anchor="middle" x="326" y="-101.5" font-family="Times Roman,serif" font-size="10.00">dst_ip</text>
</g>
<!-- 140036453743936&#45;&gt;140036453744080 -->
<g id="edge14" class="edge"><title>140036453743936&#45;&gt;140036453744080</title>
<path fill="none" stroke="black" d="M777.033,-188.677C702.324,-184.813 493.862,-172.627 428,-154 401.952,-146.633 374.513,-132.792 354.663,-121.537"/>
<polygon fill="black" stroke="black" points="356.245,-118.409 345.839,-116.42 352.734,-124.464 356.245,-118.409"/>
<text text-anchor="middle" x="614" y="-144.5" font-family="Times Roman,serif" font-size="10.00">(0*******************************)(1000000000**********************) ...</text>
</g>
<!-- 140036453711952 -->
<g id="node18" class="node"><title>140036453711952</title>
<ellipse fill="none" stroke="black" cx="804" cy="-104" rx="27" ry="18"/>
<text text-anchor="middle" x="804" y="-101.5" font-family="Times Roman,serif" font-size="10.00">dst_ip</text>
</g>
<!-- 140036453743936&#45;&gt;140036453711952 -->
<g id="edge18" class="edge"><title>140036453743936&#45;&gt;140036453711952</title>
<path fill="none" stroke="black" d="M804,-171.762C804,-160.36 804,-145.434 804,-132.494"/>
<polygon fill="black" stroke="black" points="807.5,-132.212 804,-122.212 800.5,-132.212 807.5,-132.212"/>
<text text-anchor="middle" x="904" y="-144.5" font-family="Times Roman,serif" font-size="10.00">(10000000011010110101010110111011)</text>
</g>
<!-- 140036453744368 -->
<g id="node16" class="node"><title>140036453744368</title>
<polygon fill="none" stroke="black" points="253,-36 199,-36 199,-1.77636e-14 253,-3.55271e-15 253,-36"/>
<text text-anchor="middle" x="226" y="-15.5" font-family="Times Roman,serif" font-size="10.00">deny</text>
</g>
<!-- 140036453744080&#45;&gt;140036453744368 -->
<g id="edge16" class="edge"><title>140036453744080&#45;&gt;140036453744368</title>
<path fill="none" stroke="black" d="M300.213,-98.1191C273.901,-91.5407 235.726,-80.1966 227,-68 222.554,-61.7861 221.047,-53.9361 220.983,-46.309"/>
<polygon fill="black" stroke="black" points="224.483,-46.4304 221.65,-36.2212 217.498,-45.9684 224.483,-46.4304"/>
<text text-anchor="middle" x="315" y="-58.5" font-family="Times Roman,serif" font-size="10.00">(********************************)</text>
</g>
<!-- 140036453712096 -->
<g id="node20" class="node"><title>140036453712096</title>
<polygon fill="none" stroke="black" points="452,-36 398,-36 398,-1.77636e-14 452,-3.55271e-15 452,-36"/>
<text text-anchor="middle" x="425" y="-15.5" font-family="Times Roman,serif" font-size="10.00">deny</text>
</g>
<!-- 140036453711952&#45;&gt;140036453712096 -->
<g id="edge20" class="edge"><title>140036453711952&#45;&gt;140036453712096</title>
<path fill="none" stroke="black" d="M777.002,-103.194C696.196,-100.532 460.27,-90.8579 435,-68 428.907,-62.4883 425.917,-54.4011 424.582,-46.3303"/>
<polygon fill="black" stroke="black" points="428.062,-45.9509 423.666,-36.3111 421.091,-46.5882 428.062,-45.9509"/>
<text text-anchor="middle" x="621.5" y="-58.5" font-family="Times Roman,serif" font-size="10.00">(00000***************************)(0000100*************************) ...</text>
</g>
<!-- 140036453715840 -->
<g id="node22" class="node"><title>140036453715840</title>
<polygon fill="none" stroke="black" points="848,-36 794,-36 794,-1.77636e-14 848,-3.55271e-15 848,-36"/>
<text text-anchor="middle" x="821" y="-15.5" font-family="Times Roman,serif" font-size="10.00">permit</text>
</g>
<!-- 140036453711952&#45;&gt;140036453715840 -->
<g id="edge22" class="edge"><title>140036453711952&#45;&gt;140036453715840</title>
<path fill="none" stroke="black" d="M807.605,-85.7616C809.882,-74.2456 812.869,-59.1353 815.444,-46.1064"/>
<polygon fill="black" stroke="black" points="818.894,-46.701 817.4,-36.2121 812.027,-45.3435 818.894,-46.701"/>
<text text-anchor="middle" x="1020" y="-58.5" font-family="Times Roman,serif" font-size="10.00">(00001010001000111100101000000010)(00001010001000111101000101011100) ...</text>
</g>
<!-- 140036453713680 -->
<g id="node26" class="node"><title>140036453713680</title>
<ellipse fill="none" stroke="black" cx="1218" cy="-104" rx="27" ry="18"/>
<text text-anchor="middle" x="1218" y="-101.5" font-family="Times Roman,serif" font-size="10.00">dst_ip</text>
</g>
<!-- 140036453713608&#45;&gt;140036453713680 -->
<g id="edge26" class="edge"><title>140036453713608&#45;&gt;140036453713680</title>
<path fill="none" stroke="black" d="M1137.99,-172.01C1136.74,-161.846 1136.99,-149.346 1143,-140 1151.76,-126.38 1167.24,-117.785 1181.86,-112.426"/>
<polygon fill="black" stroke="black" points="1183.33,-115.629 1191.76,-109.21 1181.17,-108.972 1183.33,-115.629"/>
<text text-anchor="middle" x="1329" y="-144.5" font-family="Times Roman,serif" font-size="10.00">(0*******************************)(1000000000**********************) ...</text>
</g>
<!-- 140036453713896 -->
<g id="node30" class="node"><title>140036453713896</title>
<ellipse fill="none" stroke="black" cx="1537" cy="-104" rx="27" ry="18"/>
<text text-anchor="middle" x="1537" y="-101.5" font-family="Times Roman,serif" font-size="10.00">dst_ip</text>
</g>
<!-- 140036453713608&#45;&gt;140036453713896 -->
<g id="edge30" class="edge"><title>140036453713608&#45;&gt;140036453713896</title>
<path fill="none" stroke="black" d="M1169.08,-188.954C1250.16,-185.609 1487.1,-174.186 1515,-154 1522.4,-148.646 1527.35,-140.244 1530.64,-131.845"/>
<polygon fill="black" stroke="black" points="1534.02,-132.761 1533.79,-122.169 1527.36,-130.593 1534.02,-132.761"/>
<text text-anchor="middle" x="1627" y="-144.5" font-family="Times Roman,serif" font-size="10.00">(10000000011010110101010110111011)</text>
</g>
<!-- 140036453713752 -->
<g id="node28" class="node"><title>140036453713752</title>
<polygon fill="none" stroke="black" points="1283,-36 1229,-36 1229,-1.77636e-14 1283,-3.55271e-15 1283,-36"/>
<text text-anchor="middle" x="1256" y="-15.5" font-family="Times Roman,serif" font-size="10.00">deny</text>
</g>
<!-- 140036453713680&#45;&gt;140036453713752 -->
<g id="edge28" class="edge"><title>140036453713680&#45;&gt;140036453713752</title>
<path fill="none" stroke="black" d="M1225.69,-86.5966C1230.89,-74.8272 1237.87,-59.0352 1243.82,-45.5704"/>
<polygon fill="black" stroke="black" points="1247.09,-46.8294 1247.93,-36.268 1240.68,-44.0003 1247.09,-46.8294"/>
<text text-anchor="middle" x="1328" y="-58.5" font-family="Times Roman,serif" font-size="10.00">(********************************)</text>
</g>
<!-- 140036453714040 -->
<g id="node32" class="node"><title>140036453714040</title>
<polygon fill="none" stroke="black" points="1482,-36 1428,-36 1428,-1.77636e-14 1482,-3.55271e-15 1482,-36"/>
<text text-anchor="middle" x="1455" y="-15.5" font-family="Times Roman,serif" font-size="10.00">deny</text>
</g>
<!-- 140036453713896&#45;&gt;140036453714040 -->
<g id="edge32" class="edge"><title>140036453713896&#45;&gt;140036453714040</title>
<path fill="none" stroke="black" d="M1510.7,-99.8644C1492.02,-95.4159 1468.18,-86.3311 1456,-68 1451.77,-61.6355 1450.33,-53.7384 1450.27,-46.1144"/>
<polygon fill="black" stroke="black" points="1453.76,-46.2543 1450.89,-36.0569 1446.78,-45.8213 1453.76,-46.2543"/>
<text text-anchor="middle" x="1642.5" y="-58.5" font-family="Times Roman,serif" font-size="10.00">(00000***************************)(0000100*************************) ...</text>
</g>
<!-- 140036453714472 -->
<g id="node34" class="node"><title>140036453714472</title>
<polygon fill="none" stroke="black" points="1878,-36 1824,-36 1824,-1.77636e-14 1878,-3.55271e-15 1878,-36"/>
<text text-anchor="middle" x="1851" y="-15.5" font-family="Times Roman,serif" font-size="10.00">permit</text>
</g>
<!-- 140036453713896&#45;&gt;140036453714472 -->
<g id="edge34" class="edge"><title>140036453713896&#45;&gt;140036453714472</title>
<path fill="none" stroke="black" d="M1563.9,-102.196C1632.11,-97.4096 1807.92,-83.6794 1829,-68 1836.33,-62.5491 1841.26,-54.1225 1844.55,-45.7309"/>
<polygon fill="black" stroke="black" points="1847.93,-46.669 1847.72,-36.0763 1841.28,-44.4875 1847.93,-46.669"/>
<text text-anchor="middle" x="2041" y="-58.5" font-family="Times Roman,serif" font-size="10.00">(00001010001000111100101000000010)(10000000011010111100100110001000)</text>
</g>
<!-- 140036453717560 -->
<g id="node38" class="node"><title>140036453717560</title>
<ellipse fill="none" stroke="black" cx="2338" cy="-276" rx="27" ry="18"/>
<text text-anchor="middle" x="2338" y="-273.5" font-family="Times Roman,serif" font-size="10.00">dst_port</text>
</g>
<!-- 140036453717488&#45;&gt;140036453717560 -->
<g id="edge38" class="edge"><title>140036453717488&#45;&gt;140036453717560</title>
<path fill="none" stroke="black" d="M2384.86,-353.784C2371.65,-348.046 2356.15,-339.046 2347,-326 2342.54,-319.644 2340.09,-311.75 2338.78,-304.126"/>
<polygon fill="black" stroke="black" points="2342.25,-303.607 2337.64,-294.067 2335.29,-304.398 2342.25,-303.607"/>
<text text-anchor="middle" x="2395.5" y="-316.5" font-family="Times Roman,serif" font-size="10.00">(000000**********)</text>
</g>
<!-- 140036453717848 -->
<g id="node46" class="node"><title>140036453717848</title>
<ellipse fill="none" stroke="black" cx="2473" cy="-276" rx="27" ry="18"/>
<text text-anchor="middle" x="2473" y="-273.5" font-family="Times Roman,serif" font-size="10.00">dst_port</text>
</g>
<!-- 140036453717488&#45;&gt;140036453717848 -->
<g id="edge46" class="edge"><title>140036453717488&#45;&gt;140036453717848</title>
<path fill="none" stroke="black" d="M2426.64,-348.134C2433.85,-341.889 2441.91,-334.103 2448,-326 2453.31,-318.94 2458,-310.581 2461.84,-302.739"/>
<polygon fill="black" stroke="black" points="2465.07,-304.097 2466.1,-293.552 2458.72,-301.156 2465.07,-304.097"/>
<text text-anchor="middle" x="2559" y="-316.5" font-family="Times Roman,serif" font-size="10.00">(000001**********)(00001***********) ...</text>
</g>
<!-- 140036453717632 -->
<g id="node40" class="node"><title>140036453717632</title>
<ellipse fill="none" stroke="black" cx="2313" cy="-190" rx="27" ry="18"/>
<text text-anchor="middle" x="2313" y="-187.5" font-family="Times Roman,serif" font-size="10.00">src_ip</text>
</g>
<!-- 140036453717560&#45;&gt;140036453717632 -->
<g id="edge40" class="edge"><title>140036453717560&#45;&gt;140036453717632</title>
<path fill="none" stroke="black" d="M2332.82,-258.181C2329.4,-246.419 2324.85,-230.777 2320.98,-217.442"/>
<polygon fill="black" stroke="black" points="2324.33,-216.422 2318.17,-207.796 2317.6,-218.376 2324.33,-216.422"/>
<text text-anchor="middle" x="2373" y="-230.5" font-family="Times Roman,serif" font-size="10.00">(****************)</text>
</g>
<!-- 140036453717704 -->
<g id="node42" class="node"><title>140036453717704</title>
<ellipse fill="none" stroke="black" cx="2274" cy="-104" rx="27" ry="18"/>
<text text-anchor="middle" x="2274" y="-101.5" font-family="Times Roman,serif" font-size="10.00">dst_ip</text>
</g>
<!-- 140036453717632&#45;&gt;140036453717704 -->
<g id="edge42" class="edge"><title>140036453717632&#45;&gt;140036453717704</title>
<path fill="none" stroke="black" d="M2302.92,-173.049C2299.58,-167.119 2295.95,-160.354 2293,-154 2289.66,-146.821 2286.44,-138.879 2283.63,-131.478"/>
<polygon fill="black" stroke="black" points="2286.82,-130.013 2280.07,-121.843 2280.25,-132.436 2286.82,-130.013"/>
<text text-anchor="middle" x="2381" y="-144.5" font-family="Times Roman,serif" font-size="10.00">(********************************)</text>
</g>
<!-- 140036453717776 -->
<g id="node44" class="node"><title>140036453717776</title>
<polygon fill="none" stroke="black" points="2301,-36 2247,-36 2247,-1.77636e-14 2301,-3.55271e-15 2301,-36"/>
<text text-anchor="middle" x="2274" y="-15.5" font-family="Times Roman,serif" font-size="10.00">deny</text>
</g>
<!-- 140036453717704&#45;&gt;140036453717776 -->
<g id="edge44" class="edge"><title>140036453717704&#45;&gt;140036453717776</title>
<path fill="none" stroke="black" d="M2274,-85.7616C2274,-74.3597 2274,-59.4342 2274,-46.494"/>
<polygon fill="black" stroke="black" points="2277.5,-46.2121 2274,-36.2121 2270.5,-46.2121 2277.5,-46.2121"/>
<text text-anchor="middle" x="2362" y="-58.5" font-family="Times Roman,serif" font-size="10.00">(********************************)</text>
</g>
<!-- 140036453717920 -->
<g id="node48" class="node"><title>140036453717920</title>
<ellipse fill="none" stroke="black" cx="2473" cy="-190" rx="27" ry="18"/>
<text text-anchor="middle" x="2473" y="-187.5" font-family="Times Roman,serif" font-size="10.00">src_ip</text>
</g>
<!-- 140036453717848&#45;&gt;140036453717920 -->
<g id="edge48" class="edge"><title>140036453717848&#45;&gt;140036453717920</title>
<path fill="none" stroke="black" d="M2473,-257.762C2473,-246.36 2473,-231.434 2473,-218.494"/>
<polygon fill="black" stroke="black" points="2476.5,-218.212 2473,-208.212 2469.5,-218.212 2476.5,-218.212"/>
<text text-anchor="middle" x="2521.5" y="-230.5" font-family="Times Roman,serif" font-size="10.00">(000000**********)</text>
</g>
<!-- 140036453718280 -->
<g id="node54" class="node"><title>140036453718280</title>
<ellipse fill="none" stroke="black" cx="2672" cy="-190" rx="27" ry="18"/>
<text text-anchor="middle" x="2672" y="-187.5" font-family="Times Roman,serif" font-size="10.00">src_ip</text>
</g>
<!-- 140036453717848&#45;&gt;140036453718280 -->
<g id="edge54" class="edge"><title>140036453717848&#45;&gt;140036453718280</title>
<path fill="none" stroke="black" d="M2497.42,-268.281C2518.09,-261.515 2548.36,-251.056 2574,-240 2597.36,-229.926 2622.95,-216.799 2642.11,-206.523"/>
<polygon fill="black" stroke="black" points="2643.84,-209.569 2650.97,-201.733 2640.51,-203.412 2643.84,-209.569"/>
<text text-anchor="middle" x="2707" y="-230.5" font-family="Times Roman,serif" font-size="10.00">(000001**********)(00001***********) ...</text>
</g>
<!-- 140036453717992 -->
<g id="node50" class="node"><title>140036453717992</title>
<ellipse fill="none" stroke="black" cx="2473" cy="-104" rx="27" ry="18"/>
<text text-anchor="middle" x="2473" y="-101.5" font-family="Times Roman,serif" font-size="10.00">dst_ip</text>
</g>
<!-- 140036453717920&#45;&gt;140036453717992 -->
<g id="edge50" class="edge"><title>140036453717920&#45;&gt;140036453717992</title>
<path fill="none" stroke="black" d="M2473,-171.762C2473,-160.36 2473,-145.434 2473,-132.494"/>
<polygon fill="black" stroke="black" points="2476.5,-132.212 2473,-122.212 2469.5,-132.212 2476.5,-132.212"/>
<text text-anchor="middle" x="2561" y="-144.5" font-family="Times Roman,serif" font-size="10.00">(********************************)</text>
</g>
<!-- 140036453718064 -->
<g id="node52" class="node"><title>140036453718064</title>
<polygon fill="none" stroke="black" points="2500,-36 2446,-36 2446,-1.77636e-14 2500,-3.55271e-15 2500,-36"/>
<text text-anchor="middle" x="2473" y="-15.5" font-family="Times Roman,serif" font-size="10.00">deny</text>
</g>
<!-- 140036453717992&#45;&gt;140036453718064 -->
<g id="edge52" class="edge"><title>140036453717992&#45;&gt;140036453718064</title>
<path fill="none" stroke="black" d="M2473,-85.7616C2473,-74.3597 2473,-59.4342 2473,-46.494"/>
<polygon fill="black" stroke="black" points="2476.5,-46.2121 2473,-36.2121 2469.5,-46.2121 2476.5,-46.2121"/>
<text text-anchor="middle" x="2561" y="-58.5" font-family="Times Roman,serif" font-size="10.00">(********************************)</text>
</g>
<!-- 140036453718352 -->
<g id="node56" class="node"><title>140036453718352</title>
<ellipse fill="none" stroke="black" cx="2672" cy="-104" rx="27" ry="18"/>
<text text-anchor="middle" x="2672" y="-101.5" font-family="Times Roman,serif" font-size="10.00">dst_ip</text>
</g>
<!-- 140036453718280&#45;&gt;140036453718352 -->
<g id="edge56" class="edge"><title>140036453718280&#45;&gt;140036453718352</title>
<path fill="none" stroke="black" d="M2672,-171.762C2672,-160.36 2672,-145.434 2672,-132.494"/>
<polygon fill="black" stroke="black" points="2675.5,-132.212 2672,-122.212 2668.5,-132.212 2675.5,-132.212"/>
<text text-anchor="middle" x="2858.5" y="-144.5" font-family="Times Roman,serif" font-size="10.00">(00000***************************)(0000100*************************) ...</text>
</g>
<!-- 140036453719000 -->
<g id="node60" class="node"><title>140036453719000</title>
<ellipse fill="none" stroke="black" cx="3068" cy="-104" rx="27" ry="18"/>
<text text-anchor="middle" x="3068" y="-101.5" font-family="Times Roman,serif" font-size="10.00">dst_ip</text>
</g>
<!-- 140036453718280&#45;&gt;140036453719000 -->
<g id="edge60" class="edge"><title>140036453718280&#45;&gt;140036453719000</title>
<path fill="none" stroke="black" d="M2699.15,-188.959C2780.45,-185.626 3018.02,-174.236 3046,-154 3053.4,-148.647 3058.35,-140.245 3061.64,-131.846"/>
<polygon fill="black" stroke="black" points="3065.02,-132.762 3064.79,-122.17 3058.36,-130.595 3065.02,-132.762"/>
<text text-anchor="middle" x="3154.5" y="-144.5" font-family="Times Roman,serif" font-size="10.00">(0000101000011100010000011*******)</text>
</g>
<!-- 140036453718424 -->
<g id="node58" class="node"><title>140036453718424</title>
<polygon fill="none" stroke="black" points="2699,-36 2645,-36 2645,-1.77636e-14 2699,-3.55271e-15 2699,-36"/>
<text text-anchor="middle" x="2672" y="-15.5" font-family="Times Roman,serif" font-size="10.00">deny</text>
</g>
<!-- 140036453718352&#45;&gt;140036453718424 -->
<g id="edge58" class="edge"><title>140036453718352&#45;&gt;140036453718424</title>
<path fill="none" stroke="black" d="M2672,-85.7616C2672,-74.3597 2672,-59.4342 2672,-46.494"/>
<polygon fill="black" stroke="black" points="2675.5,-46.2121 2672,-36.2121 2668.5,-46.2121 2675.5,-46.2121"/>
<text text-anchor="middle" x="2760" y="-58.5" font-family="Times Roman,serif" font-size="10.00">(********************************)</text>
</g>
<!-- 140036453719144 -->
<g id="node62" class="node"><title>140036453719144</title>
<polygon fill="none" stroke="black" points="2898,-36 2844,-36 2844,-1.77636e-14 2898,-3.55271e-15 2898,-36"/>
<text text-anchor="middle" x="2871" y="-15.5" font-family="Times Roman,serif" font-size="10.00">deny</text>
</g>
<!-- 140036453719000&#45;&gt;140036453719144 -->
<g id="edge62" class="edge"><title>140036453719000&#45;&gt;140036453719144</title>
<path fill="none" stroke="black" d="M3040.82,-103.247C2991.36,-101.242 2889.72,-93.9839 2868,-68 2862.96,-61.9695 2861.85,-53.964 2862.53,-46.1301"/>
<polygon fill="black" stroke="black" points="2866.01,-46.562 2864.27,-36.111 2859.11,-45.3659 2866.01,-46.562"/>
<text text-anchor="middle" x="3051.5" y="-58.5" font-family="Times Roman,serif" font-size="10.00">(0*******************************)(100*****************************) ...</text>
</g>
<!-- 140036453720144 -->
<g id="node64" class="node"><title>140036453720144</title>
<polygon fill="none" stroke="black" points="3288,-36 3234,-36 3234,-1.77636e-14 3288,-3.55271e-15 3288,-36"/>
<text text-anchor="middle" x="3261" y="-15.5" font-family="Times Roman,serif" font-size="10.00">permit</text>
</g>
<!-- 140036453719000&#45;&gt;140036453720144 -->
<g id="edge64" class="edge"><title>140036453719000&#45;&gt;140036453720144</title>
<path fill="none" stroke="black" d="M3094.79,-101.348C3137.18,-96.6701 3217.15,-85.7348 3239,-68 3245.99,-62.3291 3250.82,-53.9941 3254.13,-45.7486"/>
<polygon fill="black" stroke="black" points="3257.44,-46.8696 3257.36,-36.2751 3250.82,-44.6111 3257.44,-46.8696"/>
<text text-anchor="middle" x="3350" y="-58.5" font-family="Times Roman,serif" font-size="10.00">(10101011010001101001000011110101)</text>
</g>
<!-- 140036453742352 -->
<g id="node68" class="node"><title>140036453742352</title>
<ellipse fill="none" stroke="black" cx="2902" cy="-276" rx="27" ry="18"/>
<text text-anchor="middle" x="2902" y="-273.5" font-family="Times Roman,serif" font-size="10.00">dst_port</text>
</g>
<!-- 140036453742424&#45;&gt;140036453742352 -->
<g id="edge68" class="edge"><title>140036453742424&#45;&gt;140036453742352</title>
<path fill="none" stroke="black" d="M2731.52,-351.966C2765.71,-336.731 2830.87,-307.695 2869.98,-290.268"/>
<polygon fill="black" stroke="black" points="2871.62,-293.37 2879.33,-286.103 2868.77,-286.976 2871.62,-293.37"/>
<text text-anchor="middle" x="2863" y="-316.5" font-family="Times Roman,serif" font-size="10.00">(****************)</text>
</g>
<!-- 140036453742496 -->
<g id="node70" class="node"><title>140036453742496</title>
<ellipse fill="none" stroke="black" cx="3225" cy="-190" rx="27" ry="18"/>
<text text-anchor="middle" x="3225" y="-187.5" font-family="Times Roman,serif" font-size="10.00">src_ip</text>
</g>
<!-- 140036453742352&#45;&gt;140036453742496 -->
<g id="edge70" class="edge"><title>140036453742352&#45;&gt;140036453742496</title>
<path fill="none" stroke="black" d="M2927.08,-269.323C2984.2,-254.114 3124.12,-216.86 3189.83,-199.364"/>
<polygon fill="black" stroke="black" points="3190.95,-202.687 3199.72,-196.732 3189.15,-195.923 3190.95,-202.687"/>
<text text-anchor="middle" x="3128" y="-230.5" font-family="Times Roman,serif" font-size="10.00">(****************)</text>
</g>
<!-- 140036453742568 -->
<g id="node72" class="node"><title>140036453742568</title>
<ellipse fill="none" stroke="black" cx="3434" cy="-104" rx="27" ry="18"/>
<text text-anchor="middle" x="3434" y="-101.5" font-family="Times Roman,serif" font-size="10.00">dst_ip</text>
</g>
<!-- 140036453742496&#45;&gt;140036453742568 -->
<g id="edge72" class="edge"><title>140036453742496&#45;&gt;140036453742568</title>
<path fill="none" stroke="black" d="M3248.17,-180.468C3285.44,-165.132 3358.83,-134.931 3401.38,-117.422"/>
<polygon fill="black" stroke="black" points="3402.82,-120.617 3410.73,-113.575 3400.15,-114.143 3402.82,-120.617"/>
<text text-anchor="middle" x="3430" y="-144.5" font-family="Times Roman,serif" font-size="10.00">(********************************)</text>
</g>
<!-- 140036453742280 -->
<g id="node74" class="node"><title>140036453742280</title>
<polygon fill="none" stroke="black" points="3511,-36 3457,-36 3457,-1.77636e-14 3511,-3.55271e-15 3511,-36"/>
<text text-anchor="middle" x="3484" y="-15.5" font-family="Times Roman,serif" font-size="10.00">deny</text>
</g>
<!-- 140036453742568&#45;&gt;140036453742280 -->
<g id="edge74" class="edge"><title>140036453742568&#45;&gt;140036453742280</title>
<path fill="none" stroke="black" d="M3447.72,-88.1213C3452.58,-82.0603 3457.86,-74.9363 3462,-68 3466.19,-60.9774 3470.05,-53.0137 3473.33,-45.5393"/>
<polygon fill="black" stroke="black" points="3476.64,-46.691 3477.29,-36.1158 3470.19,-43.9808 3476.64,-46.691"/>
<text text-anchor="middle" x="3557" y="-58.5" font-family="Times Roman,serif" font-size="10.00">(********************************)</text>
</g>
</g>
</svg>
