<?xml version="1.0" encoding="UTF-8" standalone="no"?>
<!DOCTYPE svg PUBLIC "-//W3C//DTD SVG 1.1//EN"
 "http://www.w3.org/Graphics/SVG/1.1/DTD/svg11.dtd">
<!-- Generated by graphviz version 2.26.3 (20100126.1600)
 -->
<!-- Title: _anonymous_0 Pages: 1 -->
<svg width="3121pt" height="474pt"
 viewBox="0.00 0.00 3121.00 474.00" xmlns="http://www.w3.org/2000/svg" xmlns:xlink="http://www.w3.org/1999/xlink">
<g id="graph1" class="graph" transform="scale(1 1) rotate(0) translate(4 470)">
<title>_anonymous_0</title>
<polygon fill="white" stroke="white" points="-4,5 -4,-470 3118,-470 3118,5 -4,5"/>
<!-- 15500352 -->
<g id="node1" class="node"><title>15500352</title>
<ellipse fill="none" stroke="black" cx="270" cy="-448" rx="27" ry="18"/>
<text text-anchor="middle" x="270" y="-445.5" font-family="Times Roman,serif" font-size="10.00">protocol</text>
</g>
<!-- 15503232 -->
<g id="node2" class="node"><title>15503232</title>
<ellipse fill="none" stroke="black" cx="227" cy="-362" rx="27" ry="18"/>
<text text-anchor="middle" x="227" y="-359.5" font-family="Times Roman,serif" font-size="10.00">src_port</text>
</g>
<!-- 15500352&#45;&gt;15503232 -->
<g id="edge2" class="edge"><title>15500352&#45;&gt;15503232</title>
<path fill="none" stroke="black" d="M250.739,-435.123C243.256,-429.044 235.433,-421.115 231,-412 227.827,-405.475 226.296,-397.902 225.674,-390.653"/>
<polygon fill="black" stroke="black" points="229.164,-390.302 225.327,-380.426 222.168,-390.539 229.164,-390.302"/>
<text text-anchor="middle" x="260.5" y="-402.5" font-family="Times Roman,serif" font-size="10.00">(0&#45;0)(2&#45;255)</text>
</g>
<!-- 140336092896792 -->
<g id="node12" class="node"><title>140336092896792</title>
<ellipse fill="none" stroke="black" cx="316" cy="-362" rx="27" ry="18"/>
<text text-anchor="middle" x="316" y="-359.5" font-family="Times Roman,serif" font-size="10.00">src_port</text>
</g>
<!-- 15500352&#45;&gt;140336092896792 -->
<g id="edge12" class="edge"><title>15500352&#45;&gt;140336092896792</title>
<path fill="none" stroke="black" d="M279.66,-430.84C282.973,-424.893 286.682,-418.171 290,-412 294.15,-404.281 298.58,-395.841 302.584,-388.131"/>
<polygon fill="black" stroke="black" points="305.726,-389.676 307.212,-379.186 299.508,-386.46 305.726,-389.676"/>
<text text-anchor="middle" x="310" y="-402.5" font-family="Times Roman,serif" font-size="10.00">(1&#45;1)</text>
</g>
<!-- 15500568 -->
<g id="node4" class="node"><title>15500568</title>
<ellipse fill="none" stroke="black" cx="138" cy="-276" rx="27" ry="18"/>
<text text-anchor="middle" x="138" y="-273.5" font-family="Times Roman,serif" font-size="10.00">dst_port</text>
</g>
<!-- 15503232&#45;&gt;15500568 -->
<g id="edge4" class="edge"><title>15503232&#45;&gt;15500568</title>
<path fill="none" stroke="black" d="M211.497,-347.02C197.545,-333.538 176.856,-313.546 160.98,-298.205"/>
<polygon fill="black" stroke="black" points="163.247,-295.529 153.624,-291.097 158.383,-300.563 163.247,-295.529"/>
<text text-anchor="middle" x="212" y="-316.5" font-family="Times Roman,serif" font-size="10.00">(0&#45;65535)</text>
</g>
<!-- 15499704 -->
<g id="node6" class="node"><title>15499704</title>
<ellipse fill="none" stroke="black" cx="103" cy="-190" rx="27" ry="18"/>
<text text-anchor="middle" x="103" y="-187.5" font-family="Times Roman,serif" font-size="10.00">src_ip</text>
</g>
<!-- 15500568&#45;&gt;15499704 -->
<g id="edge6" class="edge"><title>15500568&#45;&gt;15499704</title>
<path fill="none" stroke="black" d="M130.917,-258.597C126.031,-246.59 119.441,-230.398 113.891,-216.76"/>
<polygon fill="black" stroke="black" points="117.084,-215.32 110.072,-207.378 110.6,-217.959 117.084,-215.32"/>
<text text-anchor="middle" x="147" y="-230.5" font-family="Times Roman,serif" font-size="10.00">(0&#45;65535)</text>
</g>
<!-- 140336093443064 -->
<g id="node8" class="node"><title>140336093443064</title>
<ellipse fill="none" stroke="black" cx="31" cy="-104" rx="27" ry="18"/>
<text text-anchor="middle" x="31" y="-101.5" font-family="Times Roman,serif" font-size="10.00">dst_ip</text>
</g>
<!-- 15499704&#45;&gt;140336093443064 -->
<g id="edge8" class="edge"><title>15499704&#45;&gt;140336093443064</title>
<path fill="none" stroke="black" d="M89.7941,-174.226C78.9013,-161.215 63.2788,-142.555 50.8753,-127.74"/>
<polygon fill="black" stroke="black" points="53.4691,-125.386 44.366,-119.965 48.1018,-129.879 53.4691,-125.386"/>
<text text-anchor="middle" x="111" y="-144.5" font-family="Times Roman,serif" font-size="10.00">(0&#45;4294967295)</text>
</g>
<!-- 140336092895136 -->
<g id="node10" class="node"><title>140336092895136</title>
<polygon fill="none" stroke="black" points="54,-36 2.13163e-14,-36 0,-1.77636e-14 54,-3.55271e-15 54,-36"/>
<text text-anchor="middle" x="27" y="-15.5" font-family="Times Roman,serif" font-size="10.00">permit</text>
</g>
<!-- 140336093443064&#45;&gt;140336092895136 -->
<g id="edge10" class="edge"><title>140336093443064&#45;&gt;140336092895136</title>
<path fill="none" stroke="black" d="M29.2501,-85.701C28.7685,-80.0323 28.2974,-73.7623 28,-68 27.6374,-60.9753 27.4042,-53.3893 27.2547,-46.3006"/>
<polygon fill="black" stroke="black" points="30.7504,-46.0026 27.0863,-36.0616 23.7513,-46.1178 30.7504,-46.0026"/>
<text text-anchor="middle" x="67" y="-58.5" font-family="Times Roman,serif" font-size="10.00">(0&#45;4294967295)</text>
</g>
<!-- 140336092893624 -->
<g id="node14" class="node"><title>140336092893624</title>
<ellipse fill="none" stroke="black" cx="361" cy="-276" rx="27" ry="18"/>
<text text-anchor="middle" x="361" y="-273.5" font-family="Times Roman,serif" font-size="10.00">dst_port</text>
</g>
<!-- 140336092896792&#45;&gt;140336092893624 -->
<g id="edge14" class="edge"><title>140336092896792&#45;&gt;140336092893624</title>
<path fill="none" stroke="black" d="M325.106,-344.597C331.492,-332.394 340.139,-315.867 347.347,-302.093"/>
<polygon fill="black" stroke="black" points="350.526,-303.567 352.061,-293.084 344.323,-300.322 350.526,-303.567"/>
<text text-anchor="middle" x="366" y="-316.5" font-family="Times Roman,serif" font-size="10.00">(0&#45;65535)</text>
</g>
<!-- 140336092895928 -->
<g id="node16" class="node"><title>140336092895928</title>
<ellipse fill="none" stroke="black" cx="232" cy="-190" rx="27" ry="18"/>
<text text-anchor="middle" x="232" y="-187.5" font-family="Times Roman,serif" font-size="10.00">src_ip</text>
</g>
<!-- 140336092893624&#45;&gt;140336092895928 -->
<g id="edge16" class="edge"><title>140336092893624&#45;&gt;140336092895928</title>
<path fill="none" stroke="black" d="M334.591,-271.476C313.112,-266.688 283.024,-257.337 262,-240 254.51,-233.823 248.421,-225.257 243.735,-216.959"/>
<polygon fill="black" stroke="black" points="246.731,-215.132 239.041,-207.845 240.508,-218.337 246.731,-215.132"/>
<text text-anchor="middle" x="309.5" y="-230.5" font-family="Times Roman,serif" font-size="10.00">(0&#45;442)(444&#45;499) ...</text>
</g>
<!-- 140336093436960 -->
<g id="node22" class="node"><title>140336093436960</title>
<ellipse fill="none" stroke="black" cx="361" cy="-190" rx="27" ry="18"/>
<text text-anchor="middle" x="361" y="-187.5" font-family="Times Roman,serif" font-size="10.00">src_ip</text>
</g>
<!-- 140336092893624&#45;&gt;140336093436960 -->
<g id="edge22" class="edge"><title>140336092893624&#45;&gt;140336093436960</title>
<path fill="none" stroke="black" d="M361,-257.762C361,-246.36 361,-231.434 361,-218.494"/>
<polygon fill="black" stroke="black" points="364.5,-218.212 361,-208.212 357.5,-218.212 364.5,-218.212"/>
<text text-anchor="middle" x="385" y="-230.5" font-family="Times Roman,serif" font-size="10.00">(443&#45;443)</text>
</g>
<!-- 15499136 -->
<g id="node30" class="node"><title>15499136</title>
<ellipse fill="none" stroke="black" cx="998" cy="-190" rx="27" ry="18"/>
<text text-anchor="middle" x="998" y="-187.5" font-family="Times Roman,serif" font-size="10.00">src_ip</text>
</g>
<!-- 140336092893624&#45;&gt;15499136 -->
<g id="edge30" class="edge"><title>140336092893624&#45;&gt;15499136</title>
<path fill="none" stroke="black" d="M387.56,-272.414C488.027,-258.85 844.987,-210.658 961.165,-194.973"/>
<polygon fill="black" stroke="black" points="961.885,-198.408 971.327,-193.601 960.948,-191.471 961.885,-198.408"/>
<text text-anchor="middle" x="742" y="-230.5" font-family="Times Roman,serif" font-size="10.00">(500&#45;500)</text>
</g>
<!-- 140336092896216 -->
<g id="node50" class="node"><title>140336092896216</title>
<ellipse fill="none" stroke="black" cx="2307" cy="-190" rx="27" ry="18"/>
<text text-anchor="middle" x="2307" y="-187.5" font-family="Times Roman,serif" font-size="10.00">src_ip</text>
</g>
<!-- 140336092893624&#45;&gt;140336092896216 -->
<g id="edge50" class="edge"><title>140336092893624&#45;&gt;140336092896216</title>
<path fill="none" stroke="black" d="M388.138,-274.801C602.402,-265.332 2019.57,-202.702 2269.41,-191.661"/>
<polygon fill="black" stroke="black" points="2269.93,-195.142 2279.77,-191.203 2269.63,-188.148 2269.93,-195.142"/>
<text text-anchor="middle" x="1487" y="-230.5" font-family="Times Roman,serif" font-size="10.00">(10000&#45;10000)</text>
</g>
<!-- 140336092896288 -->
<g id="node18" class="node"><title>140336092896288</title>
<ellipse fill="none" stroke="black" cx="204" cy="-104" rx="27" ry="18"/>
<text text-anchor="middle" x="204" y="-101.5" font-family="Times Roman,serif" font-size="10.00">dst_ip</text>
</g>
<!-- 140336092895928&#45;&gt;140336092896288 -->
<g id="edge18" class="edge"><title>140336092895928&#45;&gt;140336092896288</title>
<path fill="none" stroke="black" d="M226.198,-172.181C222.369,-160.419 217.276,-144.777 212.934,-131.442"/>
<polygon fill="black" stroke="black" points="216.218,-130.222 209.794,-121.796 209.562,-132.389 216.218,-130.222"/>
<text text-anchor="middle" x="259" y="-144.5" font-family="Times Roman,serif" font-size="10.00">(0&#45;4294967295)</text>
</g>
<!-- 140336092893768 -->
<g id="node20" class="node"><title>140336092893768</title>
<polygon fill="none" stroke="black" points="155,-36 101,-36 101,-1.77636e-14 155,-3.55271e-15 155,-36"/>
<text text-anchor="middle" x="128" y="-15.5" font-family="Times Roman,serif" font-size="10.00">permit</text>
</g>
<!-- 140336092896288&#45;&gt;140336092893768 -->
<g id="edge20" class="edge"><title>140336092896288&#45;&gt;140336092893768</title>
<path fill="none" stroke="black" d="M177.759,-98.7895C160.735,-93.9144 139.783,-84.7628 129,-68 124.977,-61.7466 123.534,-54.0815 123.395,-46.649"/>
<polygon fill="black" stroke="black" points="126.9,-46.6391 123.933,-36.4682 119.91,-46.2695 126.9,-46.6391"/>
<text text-anchor="middle" x="168" y="-58.5" font-family="Times Roman,serif" font-size="10.00">(0&#45;4294967295)</text>
</g>
<!-- 140336093437464 -->
<g id="node24" class="node"><title>140336093437464</title>
<ellipse fill="none" stroke="black" cx="361" cy="-104" rx="27" ry="18"/>
<text text-anchor="middle" x="361" y="-101.5" font-family="Times Roman,serif" font-size="10.00">dst_ip</text>
</g>
<!-- 140336093436960&#45;&gt;140336093437464 -->
<g id="edge24" class="edge"><title>140336093436960&#45;&gt;140336093437464</title>
<path fill="none" stroke="black" d="M361,-171.762C361,-160.36 361,-145.434 361,-132.494"/>
<polygon fill="black" stroke="black" points="364.5,-132.212 361,-122.212 357.5,-132.212 364.5,-132.212"/>
<text text-anchor="middle" x="400" y="-144.5" font-family="Times Roman,serif" font-size="10.00">(0&#45;4294967295)</text>
</g>
<!-- 140336093437536 -->
<g id="node26" class="node"><title>140336093437536</title>
<polygon fill="none" stroke="black" points="256,-36 202,-36 202,-1.77636e-14 256,-3.55271e-15 256,-36"/>
<text text-anchor="middle" x="229" y="-15.5" font-family="Times Roman,serif" font-size="10.00">deny</text>
</g>
<!-- 140336093437464&#45;&gt;140336093437536 -->
<g id="edge26" class="edge"><title>140336093437464&#45;&gt;140336093437536</title>
<path fill="none" stroke="black" d="M334.403,-100.736C298.944,-95.7763 239.115,-85.0712 226,-68 221.338,-61.9316 220.235,-54.127 220.796,-46.4969"/>
<polygon fill="black" stroke="black" points="224.291,-46.8071 222.414,-36.3799 217.379,-45.7018 224.291,-46.8071"/>
<text text-anchor="middle" x="330.5" y="-58.5" font-family="Times Roman,serif" font-size="10.00">(0&#45;1080565843)(1080565845&#45;4294967295)</text>
</g>
<!-- 140336093436312 -->
<g id="node28" class="node"><title>140336093436312</title>
<polygon fill="none" stroke="black" points="488,-36 434,-36 434,-1.77636e-14 488,-3.55271e-15 488,-36"/>
<text text-anchor="middle" x="461" y="-15.5" font-family="Times Roman,serif" font-size="10.00">permit</text>
</g>
<!-- 140336093437464&#45;&gt;140336093436312 -->
<g id="edge28" class="edge"><title>140336093437464&#45;&gt;140336093436312</title>
<path fill="none" stroke="black" d="M386.246,-97.464C403.038,-91.9973 424.577,-82.6833 439,-68 445.142,-61.747 449.717,-53.4921 453.055,-45.4957"/>
<polygon fill="black" stroke="black" points="456.372,-46.6156 456.536,-36.0221 449.802,-44.2011 456.372,-46.6156"/>
<text text-anchor="middle" x="515" y="-58.5" font-family="Times Roman,serif" font-size="10.00">(1080565844&#45;1080565844)</text>
</g>
<!-- 15495608 -->
<g id="node32" class="node"><title>15495608</title>
<ellipse fill="none" stroke="black" cx="860" cy="-104" rx="27" ry="18"/>
<text text-anchor="middle" x="860" y="-101.5" font-family="Times Roman,serif" font-size="10.00">dst_ip</text>
</g>
<!-- 15499136&#45;&gt;15495608 -->
<g id="edge32" class="edge"><title>15499136&#45;&gt;15495608</title>
<path fill="none" stroke="black" d="M970.946,-187.965C945.218,-184.697 906.858,-176.183 882,-154 875.36,-148.074 870.632,-139.774 867.306,-131.636"/>
<polygon fill="black" stroke="black" points="870.525,-130.238 863.91,-121.962 863.919,-132.557 870.525,-130.238"/>
<text text-anchor="middle" x="992.5" y="-144.5" font-family="Times Roman,serif" font-size="10.00">(0&#45;1387402057)(1387402059&#45;3250355535) ...</text>
</g>
<!-- 15467080 -->
<g id="node38" class="node"><title>15467080</title>
<ellipse fill="none" stroke="black" cx="1146" cy="-104" rx="27" ry="18"/>
<text text-anchor="middle" x="1146" y="-101.5" font-family="Times Roman,serif" font-size="10.00">dst_ip</text>
</g>
<!-- 15499136&#45;&gt;15467080 -->
<g id="edge38" class="edge"><title>15499136&#45;&gt;15467080</title>
<path fill="none" stroke="black" d="M1024.34,-185.036C1046.71,-179.913 1078.91,-170.32 1103,-154 1112.77,-147.382 1121.64,-137.989 1128.76,-129.128"/>
<polygon fill="black" stroke="black" points="1131.74,-130.981 1135.01,-120.903 1126.17,-126.744 1131.74,-130.981"/>
<text text-anchor="middle" x="1185" y="-144.5" font-family="Times Roman,serif" font-size="10.00">(1387402058&#45;1387402058)</text>
</g>
<!-- 15498488 -->
<g id="node44" class="node"><title>15498488</title>
<ellipse fill="none" stroke="black" cx="1688" cy="-104" rx="27" ry="18"/>
<text text-anchor="middle" x="1688" y="-101.5" font-family="Times Roman,serif" font-size="10.00">dst_ip</text>
</g>
<!-- 15499136&#45;&gt;15498488 -->
<g id="edge44" class="edge"><title>15499136&#45;&gt;15498488</title>
<path fill="none" stroke="black" d="M1024.63,-186.681C1131.36,-173.379 1528.37,-123.896 1651.41,-108.561"/>
<polygon fill="black" stroke="black" points="1651.96,-112.019 1661.45,-107.309 1651.1,-105.072 1651.96,-112.019"/>
<text text-anchor="middle" x="1451" y="-144.5" font-family="Times Roman,serif" font-size="10.00">(3250355536&#45;3250355539)</text>
</g>
<!-- 15496112 -->
<g id="node34" class="node"><title>15496112</title>
<polygon fill="none" stroke="black" points="643,-36 589,-36 589,-1.77636e-14 643,-3.55271e-15 643,-36"/>
<text text-anchor="middle" x="616" y="-15.5" font-family="Times Roman,serif" font-size="10.00">deny</text>
</g>
<!-- 15495608&#45;&gt;15496112 -->
<g id="edge34" class="edge"><title>15495608&#45;&gt;15496112</title>
<path fill="none" stroke="black" d="M832.858,-102.989C779.805,-100.491 664.915,-92.3472 635,-68 628.241,-62.4991 623.884,-54.3122 621.077,-46.1479"/>
<polygon fill="black" stroke="black" points="624.413,-45.0802 618.363,-36.3823 617.668,-46.9544 624.413,-45.0802"/>
<text text-anchor="middle" x="745.5" y="-58.5" font-family="Times Roman,serif" font-size="10.00">(0&#45;1080565843)(1080565845&#45;2904930424) ...</text>
</g>
<!-- 15349160 -->
<g id="node36" class="node"><title>15349160</title>
<polygon fill="none" stroke="black" points="887,-36 833,-36 833,-1.77636e-14 887,-3.55271e-15 887,-36"/>
<text text-anchor="middle" x="860" y="-15.5" font-family="Times Roman,serif" font-size="10.00">permit</text>
</g>
<!-- 15495608&#45;&gt;15349160 -->
<g id="edge36" class="edge"><title>15495608&#45;&gt;15349160</title>
<path fill="none" stroke="black" d="M860,-85.7616C860,-74.3597 860,-59.4342 860,-46.494"/>
<polygon fill="black" stroke="black" points="863.5,-46.2121 860,-36.2121 856.5,-46.2121 863.5,-46.2121"/>
<text text-anchor="middle" x="991.5" y="-58.5" font-family="Times Roman,serif" font-size="10.00">(1080565844&#45;1080565844)(2904930425&#45;2904930425)</text>
</g>
<!-- 140336092878176 -->
<g id="node40" class="node"><title>140336092878176</title>
<polygon fill="none" stroke="black" points="1173,-36 1119,-36 1119,-1.77636e-14 1173,-3.55271e-15 1173,-36"/>
<text text-anchor="middle" x="1146" y="-15.5" font-family="Times Roman,serif" font-size="10.00">deny</text>
</g>
<!-- 15467080&#45;&gt;140336092878176 -->
<g id="edge40" class="edge"><title>15467080&#45;&gt;140336092878176</title>
<path fill="none" stroke="black" d="M1146,-85.7616C1146,-74.3597 1146,-59.4342 1146,-46.494"/>
<polygon fill="black" stroke="black" points="1149.5,-46.2121 1146,-36.2121 1142.5,-46.2121 1149.5,-46.2121"/>
<text text-anchor="middle" x="1256.5" y="-58.5" font-family="Times Roman,serif" font-size="10.00">(0&#45;1080565843)(1080565845&#45;2904930424) ...</text>
</g>
<!-- 140336092877312 -->
<g id="node42" class="node"><title>140336092877312</title>
<polygon fill="none" stroke="black" points="1417,-36 1363,-36 1363,-1.77636e-14 1417,-3.55271e-15 1417,-36"/>
<text text-anchor="middle" x="1390" y="-15.5" font-family="Times Roman,serif" font-size="10.00">permit</text>
</g>
<!-- 15467080&#45;&gt;140336092877312 -->
<g id="edge42" class="edge"><title>15467080&#45;&gt;140336092877312</title>
<path fill="none" stroke="black" d="M1173.08,-102.788C1225.42,-99.9453 1337.97,-91.2367 1368,-68 1375.12,-62.4939 1379.98,-54.2015 1383.28,-45.9444"/>
<polygon fill="black" stroke="black" points="1386.61,-47.0306 1386.48,-36.4365 1379.98,-44.7965 1386.61,-47.0306"/>
<text text-anchor="middle" x="1517.5" y="-58.5" font-family="Times Roman,serif" font-size="10.00">(1080565844&#45;1080565844)(2904930425&#45;2904930425) ...</text>
</g>
<!-- 15496400 -->
<g id="node46" class="node"><title>15496400</title>
<polygon fill="none" stroke="black" points="1715,-36 1661,-36 1661,-1.77636e-14 1715,-3.55271e-15 1715,-36"/>
<text text-anchor="middle" x="1688" y="-15.5" font-family="Times Roman,serif" font-size="10.00">deny</text>
</g>
<!-- 15498488&#45;&gt;15496400 -->
<g id="edge46" class="edge"><title>15498488&#45;&gt;15496400</title>
<path fill="none" stroke="black" d="M1688,-85.7616C1688,-74.3597 1688,-59.4342 1688,-46.494"/>
<polygon fill="black" stroke="black" points="1691.5,-46.2121 1688,-36.2121 1684.5,-46.2121 1691.5,-46.2121"/>
<text text-anchor="middle" x="1798.5" y="-58.5" font-family="Times Roman,serif" font-size="10.00">(0&#45;1080565843)(1080565845&#45;2873617932) ...</text>
</g>
<!-- 15496328 -->
<g id="node48" class="node"><title>15496328</title>
<polygon fill="none" stroke="black" points="1959,-36 1905,-36 1905,-1.77636e-14 1959,-3.55271e-15 1959,-36"/>
<text text-anchor="middle" x="1932" y="-15.5" font-family="Times Roman,serif" font-size="10.00">permit</text>
</g>
<!-- 15498488&#45;&gt;15496328 -->
<g id="edge48" class="edge"><title>15498488&#45;&gt;15496328</title>
<path fill="none" stroke="black" d="M1715.08,-102.788C1767.42,-99.9453 1879.97,-91.2367 1910,-68 1917.12,-62.4939 1921.98,-54.2015 1925.28,-45.9444"/>
<polygon fill="black" stroke="black" points="1928.61,-47.0306 1928.48,-36.4365 1921.98,-44.7965 1928.61,-47.0306"/>
<text text-anchor="middle" x="2059.5" y="-58.5" font-family="Times Roman,serif" font-size="10.00">(1080565844&#45;1080565844)(2873617933&#45;2873617933) ...</text>
</g>
<!-- 15305472 -->
<g id="node52" class="node"><title>15305472</title>
<ellipse fill="none" stroke="black" cx="2307" cy="-104" rx="27" ry="18"/>
<text text-anchor="middle" x="2307" y="-101.5" font-family="Times Roman,serif" font-size="10.00">dst_ip</text>
</g>
<!-- 140336092896216&#45;&gt;15305472 -->
<g id="edge52" class="edge"><title>140336092896216&#45;&gt;15305472</title>
<path fill="none" stroke="black" d="M2307,-171.762C2307,-160.36 2307,-145.434 2307,-132.494"/>
<polygon fill="black" stroke="black" points="2310.5,-132.212 2307,-122.212 2303.5,-132.212 2310.5,-132.212"/>
<text text-anchor="middle" x="2411.5" y="-144.5" font-family="Times Roman,serif" font-size="10.00">(0&#45;3250355535)(3250355540&#45;4294967295)</text>
</g>
<!-- 15303528 -->
<g id="node58" class="node"><title>15303528</title>
<ellipse fill="none" stroke="black" cx="2617" cy="-104" rx="27" ry="18"/>
<text text-anchor="middle" x="2617" y="-101.5" font-family="Times Roman,serif" font-size="10.00">dst_ip</text>
</g>
<!-- 140336092896216&#45;&gt;15303528 -->
<g id="edge58" class="edge"><title>140336092896216&#45;&gt;15303528</title>
<path fill="none" stroke="black" d="M2333.87,-188.124C2374.91,-184.672 2455.24,-175.581 2520,-154 2544.25,-145.918 2569.88,-132.467 2588.7,-121.55"/>
<polygon fill="black" stroke="black" points="2590.54,-124.534 2597.36,-116.43 2586.97,-118.509 2590.54,-124.534"/>
<text text-anchor="middle" x="2619" y="-144.5" font-family="Times Roman,serif" font-size="10.00">(3250355536&#45;3250355539)</text>
</g>
<!-- 15306264 -->
<g id="node54" class="node"><title>15306264</title>
<polygon fill="none" stroke="black" points="2257,-36 2203,-36 2203,-1.77636e-14 2257,-3.55271e-15 2257,-36"/>
<text text-anchor="middle" x="2230" y="-15.5" font-family="Times Roman,serif" font-size="10.00">deny</text>
</g>
<!-- 15305472&#45;&gt;15306264 -->
<g id="edge54" class="edge"><title>15305472&#45;&gt;15306264</title>
<path fill="none" stroke="black" d="M2280.79,-98.9919C2263.48,-94.1882 2242.02,-85.0391 2231,-68 2226.85,-61.5849 2225.43,-53.672 2225.36,-46.0491"/>
<polygon fill="black" stroke="black" points="2228.86,-46.1949 2225.97,-36.0018 2221.88,-45.7721 2228.86,-46.1949"/>
<text text-anchor="middle" x="2335.5" y="-58.5" font-family="Times Roman,serif" font-size="10.00">(0&#45;1080565843)(1080565845&#45;4294967295)</text>
</g>
<!-- 140336093011696 -->
<g id="node56" class="node"><title>140336093011696</title>
<polygon fill="none" stroke="black" points="2489,-36 2435,-36 2435,-1.77636e-14 2489,-3.55271e-15 2489,-36"/>
<text text-anchor="middle" x="2462" y="-15.5" font-family="Times Roman,serif" font-size="10.00">permit</text>
</g>
<!-- 15305472&#45;&gt;140336093011696 -->
<g id="edge56" class="edge"><title>15305472&#45;&gt;140336093011696</title>
<path fill="none" stroke="black" d="M2333.46,-99.6199C2367.48,-93.5273 2424.09,-81.6876 2440,-68 2446.75,-62.1967 2451.5,-53.9291 2454.82,-45.7839"/>
<polygon fill="black" stroke="black" points="2458.22,-46.6778 2458.2,-36.083 2451.61,-44.3792 2458.22,-46.6778"/>
<text text-anchor="middle" x="2516" y="-58.5" font-family="Times Roman,serif" font-size="10.00">(1080565844&#45;1080565844)</text>
</g>
<!-- 15306624 -->
<g id="node60" class="node"><title>15306624</title>
<polygon fill="none" stroke="black" points="2644,-36 2590,-36 2590,-1.77636e-14 2644,-3.55271e-15 2644,-36"/>
<text text-anchor="middle" x="2617" y="-15.5" font-family="Times Roman,serif" font-size="10.00">deny</text>
</g>
<!-- 15303528&#45;&gt;15306624 -->
<g id="edge60" class="edge"><title>15303528&#45;&gt;15306624</title>
<path fill="none" stroke="black" d="M2617,-85.7616C2617,-74.3597 2617,-59.4342 2617,-46.494"/>
<polygon fill="black" stroke="black" points="2620.5,-46.2121 2617,-36.2121 2613.5,-46.2121 2620.5,-46.2121"/>
<text text-anchor="middle" x="2727.5" y="-58.5" font-family="Times Roman,serif" font-size="10.00">(0&#45;1080565843)(1080565845&#45;2873617932) ...</text>
</g>
<!-- 15306696 -->
<g id="node62" class="node"><title>15306696</title>
<polygon fill="none" stroke="black" points="2888,-36 2834,-36 2834,-1.77636e-14 2888,-3.55271e-15 2888,-36"/>
<text text-anchor="middle" x="2861" y="-15.5" font-family="Times Roman,serif" font-size="10.00">permit</text>
</g>
<!-- 15303528&#45;&gt;15306696 -->
<g id="edge62" class="edge"><title>15303528&#45;&gt;15306696</title>
<path fill="none" stroke="black" d="M2644.08,-102.788C2696.42,-99.9453 2808.97,-91.2367 2839,-68 2846.12,-62.4939 2850.98,-54.2015 2854.28,-45.9444"/>
<polygon fill="black" stroke="black" points="2857.61,-47.0306 2857.48,-36.4365 2850.98,-44.7965 2857.61,-47.0306"/>
<text text-anchor="middle" x="2981.5" y="-58.5" font-family="Times Roman,serif" font-size="10.00">(1080565844&#45;1080565844)(2873617933&#45;2873617933)</text>
</g>
</g>
</svg>
