<?xml version="1.0" encoding="UTF-8" standalone="no"?>
<!DOCTYPE svg PUBLIC "-//W3C//DTD SVG 1.1//EN"
 "http://www.w3.org/Graphics/SVG/1.1/DTD/svg11.dtd">
<!-- Generated by graphviz version 2.26.3 (20100126.1600)
 -->
<!-- Title: _anonymous_0 Pages: 1 -->
<svg width="2078pt" height="404pt"
 viewBox="0.00 0.00 2078.00 404.00" xmlns="http://www.w3.org/2000/svg" xmlns:xlink="http://www.w3.org/1999/xlink">
<g id="graph1" class="graph" transform="scale(1 1) rotate(0) translate(4 400)">
<title>_anonymous_0</title>
<polygon fill="white" stroke="white" points="-4,5 -4,-400 2075,-400 2075,5 -4,5"/>
<!-- 140336093443640 -->
<g id="node1" class="node"><title>140336093443640</title>
<ellipse fill="none" stroke="black" cx="1575" cy="-378" rx="27" ry="18"/>
<text text-anchor="middle" x="1575" y="-375.5" font-family="Times Roman,serif" font-size="10.00">47</text>
</g>
<!-- 140336092904624 -->
<g id="node2" class="node"><title>140336092904624</title>
<ellipse fill="none" stroke="black" cx="801" cy="-306" rx="27" ry="18"/>
<text text-anchor="middle" x="801" y="-303.5" font-family="Times Roman,serif" font-size="10.00">5</text>
</g>
<!-- 140336093443640&#45;&gt;140336092904624 -->
<g id="edge2" class="edge"><title>140336093443640&#45;&gt;140336092904624</title>
<path fill="none" stroke="black" d="M1547.91,-375.48C1431.33,-364.635 972.279,-321.933 838.051,-309.447"/>
<polygon fill="black" stroke="black" points="838.155,-305.941 827.873,-308.5 837.506,-312.911 838.155,-305.941"/>
</g>
<!-- 140336093444720 -->
<g id="node20" class="node"><title>140336093444720</title>
<ellipse fill="none" stroke="black" cx="1215" cy="-306" rx="27" ry="18"/>
<text text-anchor="middle" x="1215" y="-303.5" font-family="Times Roman,serif" font-size="10.00">27</text>
</g>
<!-- 140336093443640&#45;&gt;140336093444720 -->
<g id="edge20" class="edge"><title>140336093443640&#45;&gt;140336093444720</title>
<path fill="none" stroke="black" d="M1549.11,-372.822C1485.95,-360.191 1323.86,-327.771 1251.19,-313.238"/>
<polygon fill="black" stroke="black" points="1251.63,-309.757 1241.14,-311.228 1250.26,-316.621 1251.63,-309.757"/>
</g>
<!-- 140336092906776 -->
<g id="node90" class="node"><title>140336092906776</title>
<ellipse fill="none" stroke="black" cx="1575" cy="-306" rx="27" ry="18"/>
<text text-anchor="middle" x="1575" y="-303.5" font-family="Times Roman,serif" font-size="10.00">9</text>
</g>
<!-- 140336093443640&#45;&gt;140336092906776 -->
<g id="edge90" class="edge"><title>140336093443640&#45;&gt;140336092906776</title>
<path fill="none" stroke="black" d="M1575,-359.831C1575,-352.131 1575,-342.974 1575,-334.417"/>
<polygon fill="black" stroke="black" points="1578.5,-334.413 1575,-324.413 1571.5,-334.413 1578.5,-334.413"/>
</g>
<!-- 140336093443712 -->
<g id="node108" class="node"><title>140336093443712</title>
<ellipse fill="none" stroke="black" cx="1660" cy="-306" rx="27" ry="18"/>
<text text-anchor="middle" x="1660" y="-303.5" font-family="Times Roman,serif" font-size="10.00">5</text>
</g>
<!-- 140336093443640&#45;&gt;140336093443712 -->
<g id="edge108" class="edge"><title>140336093443640&#45;&gt;140336093443712</title>
<path fill="none" stroke="black" d="M1591.79,-363.775C1604.25,-353.223 1621.43,-338.674 1635.43,-326.816"/>
<polygon fill="black" stroke="black" points="1637.87,-329.329 1643.24,-320.195 1633.35,-323.988 1637.87,-329.329"/>
</g>
<!-- 140336093442704 -->
<g id="node126" class="node"><title>140336093442704</title>
<ellipse fill="none" stroke="black" cx="1759" cy="-306" rx="27" ry="18"/>
<text text-anchor="middle" x="1759" y="-303.5" font-family="Times Roman,serif" font-size="10.00">1</text>
</g>
<!-- 140336093443640&#45;&gt;140336093442704 -->
<g id="edge126" class="edge"><title>140336093443640&#45;&gt;140336093442704</title>
<path fill="none" stroke="black" d="M1598.3,-368.881C1630.57,-356.256 1689.02,-333.384 1725.83,-318.981"/>
<polygon fill="black" stroke="black" points="1727.56,-322.062 1735.6,-315.158 1725.01,-315.543 1727.56,-322.062"/>
</g>
<!-- 140336092901816 -->
<g id="node4" class="node"><title>140336092901816</title>
<ellipse fill="none" stroke="black" cx="162" cy="-234" rx="27" ry="18"/>
<text text-anchor="middle" x="162" y="-231.5" font-family="Times Roman,serif" font-size="10.00">5</text>
</g>
<!-- 140336092904624&#45;&gt;140336092901816 -->
<g id="edge4" class="edge"><title>140336092904624&#45;&gt;140336092901816</title>
<path fill="none" stroke="black" d="M774.357,-302.998C673.574,-291.642 315.494,-251.295 198.951,-238.163"/>
<polygon fill="black" stroke="black" points="199.086,-234.657 188.757,-237.015 198.302,-241.613 199.086,-234.657"/>
</g>
<!-- 140336092901600 -->
<g id="node6" class="node"><title>140336092901600</title>
<ellipse fill="none" stroke="black" cx="54" cy="-162" rx="27" ry="18"/>
<text text-anchor="middle" x="54" y="-159.5" font-family="Times Roman,serif" font-size="10.00">1</text>
</g>
<!-- 140336092901816&#45;&gt;140336092901600 -->
<g id="edge6" class="edge"><title>140336092901816&#45;&gt;140336092901600</title>
<path fill="none" stroke="black" d="M142.692,-221.128C125.645,-209.763 100.598,-193.065 81.4656,-180.31"/>
<polygon fill="black" stroke="black" points="83.4031,-177.396 73.1411,-174.761 79.5201,-183.22 83.4031,-177.396"/>
</g>
<!-- 140336092902032 -->
<g id="node12" class="node"><title>140336092902032</title>
<ellipse fill="none" stroke="black" cx="162" cy="-162" rx="27" ry="18"/>
<text text-anchor="middle" x="162" y="-159.5" font-family="Times Roman,serif" font-size="10.00">4</text>
</g>
<!-- 140336092901816&#45;&gt;140336092902032 -->
<g id="edge12" class="edge"><title>140336092901816&#45;&gt;140336092902032</title>
<path fill="none" stroke="black" d="M162,-215.831C162,-208.131 162,-198.974 162,-190.417"/>
<polygon fill="black" stroke="black" points="165.5,-190.413 162,-180.413 158.5,-190.413 165.5,-190.413"/>
</g>
<!-- 140336092901960 -->
<g id="node8" class="node"><title>140336092901960</title>
<ellipse fill="none" stroke="black" cx="36" cy="-90" rx="27" ry="18"/>
<text text-anchor="middle" x="36" y="-87.5" font-family="Times Roman,serif" font-size="10.00">1</text>
</g>
<!-- 140336092901600&#45;&gt;140336092901960 -->
<g id="edge8" class="edge"><title>140336092901600&#45;&gt;140336092901960</title>
<path fill="none" stroke="black" d="M49.5506,-144.202C47.5602,-136.241 45.1668,-126.667 42.9489,-117.796"/>
<polygon fill="black" stroke="black" points="46.2816,-116.695 40.4606,-107.843 39.4906,-118.393 46.2816,-116.695"/>
</g>
<!-- 140336092901744 -->
<g id="node10" class="node"><title>140336092901744</title>
<polygon fill="none" stroke="black" points="54,-36 2.13163e-14,-36 0,-1.77636e-14 54,-3.55271e-15 54,-36"/>
<text text-anchor="middle" x="27" y="-15.5" font-family="Times Roman,serif" font-size="10.00">1</text>
</g>
<!-- 140336092901960&#45;&gt;140336092901744 -->
<g id="edge10" class="edge"><title>140336092901960&#45;&gt;140336092901744</title>
<path fill="none" stroke="black" d="M33.7289,-71.8314C32.7664,-64.131 31.6218,-54.9743 30.5521,-46.4166"/>
<polygon fill="black" stroke="black" points="34.0151,-45.9019 29.3017,-36.4133 27.0691,-46.7702 34.0151,-45.9019"/>
</g>
<!-- 140336092903112 -->
<g id="node14" class="node"><title>140336092903112</title>
<ellipse fill="none" stroke="black" cx="162" cy="-90" rx="27" ry="18"/>
<text text-anchor="middle" x="162" y="-87.5" font-family="Times Roman,serif" font-size="10.00">4</text>
</g>
<!-- 140336092902032&#45;&gt;140336092903112 -->
<g id="edge14" class="edge"><title>140336092902032&#45;&gt;140336092903112</title>
<path fill="none" stroke="black" d="M162,-143.831C162,-136.131 162,-126.974 162,-118.417"/>
<polygon fill="black" stroke="black" points="165.5,-118.413 162,-108.413 158.5,-118.413 165.5,-118.413"/>
</g>
<!-- 140336092903400 -->
<g id="node16" class="node"><title>140336092903400</title>
<polygon fill="none" stroke="black" points="126,-36 72,-36 72,-1.77636e-14 126,-3.55271e-15 126,-36"/>
<text text-anchor="middle" x="99" y="-15.5" font-family="Times Roman,serif" font-size="10.00">2</text>
</g>
<!-- 140336092903112&#45;&gt;140336092903400 -->
<g id="edge16" class="edge"><title>140336092903112&#45;&gt;140336092903400</title>
<path fill="none" stroke="black" d="M148.33,-74.3771C140.486,-65.4125 130.443,-53.9344 121.468,-43.6774"/>
<polygon fill="black" stroke="black" points="124.086,-41.3548 114.867,-36.1338 118.818,-45.9643 124.086,-41.3548"/>
</g>
<!-- 140336092902104 -->
<g id="node18" class="node"><title>140336092902104</title>
<polygon fill="none" stroke="black" points="198,-36 144,-36 144,-1.77636e-14 198,-3.55271e-15 198,-36"/>
<text text-anchor="middle" x="171" y="-15.5" font-family="Times Roman,serif" font-size="10.00">2</text>
</g>
<!-- 140336092903112&#45;&gt;140336092902104 -->
<g id="edge18" class="edge"><title>140336092903112&#45;&gt;140336092902104</title>
<path fill="none" stroke="black" d="M164.271,-71.8314C165.234,-64.131 166.378,-54.9743 167.448,-46.4166"/>
<polygon fill="black" stroke="black" points="170.931,-46.7702 168.698,-36.4133 163.985,-45.9019 170.931,-46.7702"/>
</g>
<!-- 140336093444216 -->
<g id="node22" class="node"><title>140336093444216</title>
<ellipse fill="none" stroke="black" cx="927" cy="-234" rx="27" ry="18"/>
<text text-anchor="middle" x="927" y="-231.5" font-family="Times Roman,serif" font-size="10.00">27</text>
</g>
<!-- 140336093444720&#45;&gt;140336093444216 -->
<g id="edge22" class="edge"><title>140336093444720&#45;&gt;140336093444216</title>
<path fill="none" stroke="black" d="M1189.69,-299.674C1138.29,-286.822 1021.53,-257.633 962.533,-242.883"/>
<polygon fill="black" stroke="black" points="963.108,-239.419 952.558,-240.389 961.41,-246.21 963.108,-239.419"/>
</g>
<!-- 140336093445008 -->
<g id="node24" class="node"><title>140336093445008</title>
<ellipse fill="none" stroke="black" cx="378" cy="-162" rx="27" ry="18"/>
<text text-anchor="middle" x="378" y="-159.5" font-family="Times Roman,serif" font-size="10.00">1</text>
</g>
<!-- 140336093444216&#45;&gt;140336093445008 -->
<g id="edge24" class="edge"><title>140336093444216&#45;&gt;140336093445008</title>
<path fill="none" stroke="black" d="M900.149,-230.479C810.028,-218.659 518.217,-180.389 414.775,-166.823"/>
<polygon fill="black" stroke="black" points="415.17,-163.345 404.799,-165.515 414.259,-170.285 415.17,-163.345"/>
</g>
<!-- 140336092902320 -->
<g id="node30" class="node"><title>140336092902320</title>
<ellipse fill="none" stroke="black" cx="576" cy="-162" rx="27" ry="18"/>
<text text-anchor="middle" x="576" y="-159.5" font-family="Times Roman,serif" font-size="10.00">2</text>
</g>
<!-- 140336093444216&#45;&gt;140336092902320 -->
<g id="edge30" class="edge"><title>140336093444216&#45;&gt;140336092902320</title>
<path fill="none" stroke="black" d="M901.19,-228.706C839.322,-216.015 682.458,-183.838 611.649,-169.313"/>
<polygon fill="black" stroke="black" points="612.347,-165.883 601.848,-167.302 610.94,-172.74 612.347,-165.883"/>
</g>
<!-- 140336092887088 -->
<g id="node38" class="node"><title>140336092887088</title>
<ellipse fill="none" stroke="black" cx="711" cy="-162" rx="27" ry="18"/>
<text text-anchor="middle" x="711" y="-159.5" font-family="Times Roman,serif" font-size="10.00">11</text>
</g>
<!-- 140336093444216&#45;&gt;140336092887088 -->
<g id="edge38" class="edge"><title>140336093444216&#45;&gt;140336092887088</title>
<path fill="none" stroke="black" d="M902.642,-225.881C864.053,-213.018 788.756,-187.919 744.91,-173.303"/>
<polygon fill="black" stroke="black" points="745.863,-169.932 735.269,-170.09 743.649,-176.572 745.863,-169.932"/>
</g>
<!-- 140336093443568 -->
<g id="node58" class="node"><title>140336093443568</title>
<ellipse fill="none" stroke="black" cx="927" cy="-162" rx="27" ry="18"/>
<text text-anchor="middle" x="927" y="-159.5" font-family="Times Roman,serif" font-size="10.00">3</text>
</g>
<!-- 140336093444216&#45;&gt;140336093443568 -->
<g id="edge58" class="edge"><title>140336093444216&#45;&gt;140336093443568</title>
<path fill="none" stroke="black" d="M927,-215.831C927,-208.131 927,-198.974 927,-190.417"/>
<polygon fill="black" stroke="black" points="930.5,-190.413 927,-180.413 923.5,-190.413 930.5,-190.413"/>
</g>
<!-- 15498056 -->
<g id="node70" class="node"><title>15498056</title>
<ellipse fill="none" stroke="black" cx="1035" cy="-162" rx="27" ry="18"/>
<text text-anchor="middle" x="1035" y="-159.5" font-family="Times Roman,serif" font-size="10.00">5</text>
</g>
<!-- 140336093444216&#45;&gt;15498056 -->
<g id="edge70" class="edge"><title>140336093444216&#45;&gt;15498056</title>
<path fill="none" stroke="black" d="M946.308,-221.128C963.355,-209.763 988.402,-193.065 1007.53,-180.31"/>
<polygon fill="black" stroke="black" points="1009.48,-183.22 1015.86,-174.761 1005.6,-177.396 1009.48,-183.22"/>
</g>
<!-- 140336092904552 -->
<g id="node76" class="node"><title>140336092904552</title>
<ellipse fill="none" stroke="black" cx="1215" cy="-162" rx="27" ry="18"/>
<text text-anchor="middle" x="1215" y="-159.5" font-family="Times Roman,serif" font-size="10.00">5</text>
</g>
<!-- 140336093444216&#45;&gt;140336092904552 -->
<g id="edge76" class="edge"><title>140336093444216&#45;&gt;140336092904552</title>
<path fill="none" stroke="black" d="M952.306,-227.674C1003.71,-214.822 1120.47,-185.633 1179.47,-170.883"/>
<polygon fill="black" stroke="black" points="1180.59,-174.21 1189.44,-168.389 1178.89,-167.419 1180.59,-174.21"/>
</g>
<!-- 140336093444288 -->
<g id="node26" class="node"><title>140336093444288</title>
<ellipse fill="none" stroke="black" cx="279" cy="-90" rx="27" ry="18"/>
<text text-anchor="middle" x="279" y="-87.5" font-family="Times Roman,serif" font-size="10.00">1</text>
</g>
<!-- 140336093445008&#45;&gt;140336093444288 -->
<g id="edge26" class="edge"><title>140336093445008&#45;&gt;140336093444288</title>
<path fill="none" stroke="black" d="M359.379,-148.457C344.307,-137.496 322.875,-121.909 305.931,-109.586"/>
<polygon fill="black" stroke="black" points="307.684,-106.533 297.538,-103.482 303.566,-112.194 307.684,-106.533"/>
</g>
<!-- 140336093442920 -->
<g id="node28" class="node"><title>140336093442920</title>
<polygon fill="none" stroke="black" points="270,-36 216,-36 216,-1.77636e-14 270,-3.55271e-15 270,-36"/>
<text text-anchor="middle" x="243" y="-15.5" font-family="Times Roman,serif" font-size="10.00">1</text>
</g>
<!-- 140336093444288&#45;&gt;140336093442920 -->
<g id="edge28" class="edge"><title>140336093444288&#45;&gt;140336093442920</title>
<path fill="none" stroke="black" d="M270.285,-72.5708C266.177,-64.3544 261.18,-54.3608 256.591,-45.1821"/>
<polygon fill="black" stroke="black" points="259.613,-43.3996 252.01,-36.0206 253.352,-46.5301 259.613,-43.3996"/>
</g>
<!-- 140336092902752 -->
<g id="node32" class="node"><title>140336092902752</title>
<ellipse fill="none" stroke="black" cx="387" cy="-90" rx="27" ry="18"/>
<text text-anchor="middle" x="387" y="-87.5" font-family="Times Roman,serif" font-size="10.00">2</text>
</g>
<!-- 140336092902320&#45;&gt;140336092902752 -->
<g id="edge32" class="edge"><title>140336092902320&#45;&gt;140336092902752</title>
<path fill="none" stroke="black" d="M552.445,-153.027C519.108,-140.327 458.011,-117.052 420.12,-102.617"/>
<polygon fill="black" stroke="black" points="421.145,-99.2623 410.554,-98.973 418.653,-105.804 421.145,-99.2623"/>
</g>
<!-- 140336092903472 -->
<g id="node34" class="node"><title>140336092903472</title>
<polygon fill="none" stroke="black" points="342,-36 288,-36 288,-1.77636e-14 342,-3.55271e-15 342,-36"/>
<text text-anchor="middle" x="315" y="-15.5" font-family="Times Roman,serif" font-size="10.00">1</text>
</g>
<!-- 140336092902752&#45;&gt;140336092903472 -->
<g id="edge34" class="edge"><title>140336092902752&#45;&gt;140336092903472</title>
<path fill="none" stroke="black" d="M371.731,-74.7307C362.629,-65.6292 350.846,-53.8461 340.379,-43.3788"/>
<polygon fill="black" stroke="black" points="342.593,-40.6429 333.047,-36.0467 337.643,-45.5927 342.593,-40.6429"/>
</g>
<!-- 140336092905056 -->
<g id="node36" class="node"><title>140336092905056</title>
<polygon fill="none" stroke="black" points="414,-36 360,-36 360,-1.77636e-14 414,-3.55271e-15 414,-36"/>
<text text-anchor="middle" x="387" y="-15.5" font-family="Times Roman,serif" font-size="10.00">1</text>
</g>
<!-- 140336092902752&#45;&gt;140336092905056 -->
<g id="edge36" class="edge"><title>140336092902752&#45;&gt;140336092905056</title>
<path fill="none" stroke="black" d="M387,-71.8314C387,-64.131 387,-54.9743 387,-46.4166"/>
<polygon fill="black" stroke="black" points="390.5,-46.4132 387,-36.4133 383.5,-46.4133 390.5,-46.4132"/>
</g>
<!-- 140336092887736 -->
<g id="node40" class="node"><title>140336092887736</title>
<ellipse fill="none" stroke="black" cx="531" cy="-90" rx="27" ry="18"/>
<text text-anchor="middle" x="531" y="-87.5" font-family="Times Roman,serif" font-size="10.00">3</text>
</g>
<!-- 140336092887088&#45;&gt;140336092887736 -->
<g id="edge40" class="edge"><title>140336092887088&#45;&gt;140336092887736</title>
<path fill="none" stroke="black" d="M687.837,-152.735C656.331,-140.133 599.793,-117.517 563.898,-103.159"/>
<polygon fill="black" stroke="black" points="564.944,-99.8081 554.36,-99.3438 562.344,-106.307 564.944,-99.8081"/>
</g>
<!-- 140336092887232 -->
<g id="node46" class="node"><title>140336092887232</title>
<ellipse fill="none" stroke="black" cx="675" cy="-90" rx="27" ry="18"/>
<text text-anchor="middle" x="675" y="-87.5" font-family="Times Roman,serif" font-size="10.00">4</text>
</g>
<!-- 140336092887088&#45;&gt;140336092887232 -->
<g id="edge46" class="edge"><title>140336092887088&#45;&gt;140336092887232</title>
<path fill="none" stroke="black" d="M702.285,-144.571C698.04,-136.081 692.846,-125.693 688.134,-116.267"/>
<polygon fill="black" stroke="black" points="691.237,-114.648 683.634,-107.269 684.976,-117.778 691.237,-114.648"/>
</g>
<!-- 15501792 -->
<g id="node52" class="node"><title>15501792</title>
<ellipse fill="none" stroke="black" cx="747" cy="-90" rx="27" ry="18"/>
<text text-anchor="middle" x="747" y="-87.5" font-family="Times Roman,serif" font-size="10.00">4</text>
</g>
<!-- 140336092887088&#45;&gt;15501792 -->
<g id="edge52" class="edge"><title>140336092887088&#45;&gt;15501792</title>
<path fill="none" stroke="black" d="M719.715,-144.571C723.96,-136.081 729.154,-125.693 733.866,-116.267"/>
<polygon fill="black" stroke="black" points="737.024,-117.778 738.366,-107.269 730.763,-114.648 737.024,-117.778"/>
</g>
<!-- 140336092888024 -->
<g id="node42" class="node"><title>140336092888024</title>
<polygon fill="none" stroke="black" points="486,-36 432,-36 432,-1.77636e-14 486,-3.55271e-15 486,-36"/>
<text text-anchor="middle" x="459" y="-15.5" font-family="Times Roman,serif" font-size="10.00">1</text>
</g>
<!-- 140336092887736&#45;&gt;140336092888024 -->
<g id="edge42" class="edge"><title>140336092887736&#45;&gt;140336092888024</title>
<path fill="none" stroke="black" d="M515.731,-74.7307C506.629,-65.6292 494.846,-53.8461 484.379,-43.3788"/>
<polygon fill="black" stroke="black" points="486.593,-40.6429 477.047,-36.0467 481.643,-45.5927 486.593,-40.6429"/>
</g>
<!-- 15501144 -->
<g id="node44" class="node"><title>15501144</title>
<polygon fill="none" stroke="black" points="558,-36 504,-36 504,-1.77636e-14 558,-3.55271e-15 558,-36"/>
<text text-anchor="middle" x="531" y="-15.5" font-family="Times Roman,serif" font-size="10.00">2</text>
</g>
<!-- 140336092887736&#45;&gt;15501144 -->
<g id="edge44" class="edge"><title>140336092887736&#45;&gt;15501144</title>
<path fill="none" stroke="black" d="M531,-71.8314C531,-64.131 531,-54.9743 531,-46.4166"/>
<polygon fill="black" stroke="black" points="534.5,-46.4132 531,-36.4133 527.5,-46.4133 534.5,-46.4132"/>
</g>
<!-- 140336092886800 -->
<g id="node48" class="node"><title>140336092886800</title>
<polygon fill="none" stroke="black" points="630,-36 576,-36 576,-1.77636e-14 630,-3.55271e-15 630,-36"/>
<text text-anchor="middle" x="603" y="-15.5" font-family="Times Roman,serif" font-size="10.00">1</text>
</g>
<!-- 140336092887232&#45;&gt;140336092886800 -->
<g id="edge48" class="edge"><title>140336092887232&#45;&gt;140336092886800</title>
<path fill="none" stroke="black" d="M659.731,-74.7307C650.629,-65.6292 638.846,-53.8461 628.379,-43.3788"/>
<polygon fill="black" stroke="black" points="630.593,-40.6429 621.047,-36.0467 625.643,-45.5927 630.593,-40.6429"/>
</g>
<!-- 15501072 -->
<g id="node50" class="node"><title>15501072</title>
<polygon fill="none" stroke="black" points="702,-36 648,-36 648,-1.77636e-14 702,-3.55271e-15 702,-36"/>
<text text-anchor="middle" x="675" y="-15.5" font-family="Times Roman,serif" font-size="10.00">3</text>
</g>
<!-- 140336092887232&#45;&gt;15501072 -->
<g id="edge50" class="edge"><title>140336092887232&#45;&gt;15501072</title>
<path fill="none" stroke="black" d="M675,-71.8314C675,-64.131 675,-54.9743 675,-46.4166"/>
<polygon fill="black" stroke="black" points="678.5,-46.4132 675,-36.4133 671.5,-46.4133 678.5,-46.4132"/>
</g>
<!-- 15499344 -->
<g id="node54" class="node"><title>15499344</title>
<polygon fill="none" stroke="black" points="774,-36 720,-36 720,-1.77636e-14 774,-3.55271e-15 774,-36"/>
<text text-anchor="middle" x="747" y="-15.5" font-family="Times Roman,serif" font-size="10.00">1</text>
</g>
<!-- 15501792&#45;&gt;15499344 -->
<g id="edge54" class="edge"><title>15501792&#45;&gt;15499344</title>
<path fill="none" stroke="black" d="M747,-71.8314C747,-64.131 747,-54.9743 747,-46.4166"/>
<polygon fill="black" stroke="black" points="750.5,-46.4132 747,-36.4133 743.5,-46.4133 750.5,-46.4132"/>
</g>
<!-- 15501936 -->
<g id="node56" class="node"><title>15501936</title>
<polygon fill="none" stroke="black" points="846,-36 792,-36 792,-1.77636e-14 846,-3.55271e-15 846,-36"/>
<text text-anchor="middle" x="819" y="-15.5" font-family="Times Roman,serif" font-size="10.00">3</text>
</g>
<!-- 15501792&#45;&gt;15501936 -->
<g id="edge56" class="edge"><title>15501792&#45;&gt;15501936</title>
<path fill="none" stroke="black" d="M762.269,-74.7307C771.371,-65.6292 783.154,-53.8461 793.621,-43.3788"/>
<polygon fill="black" stroke="black" points="796.357,-45.5927 800.953,-36.0467 791.407,-40.6429 796.357,-45.5927"/>
</g>
<!-- 140336093443208 -->
<g id="node60" class="node"><title>140336093443208</title>
<ellipse fill="none" stroke="black" cx="891" cy="-90" rx="27" ry="18"/>
<text text-anchor="middle" x="891" y="-87.5" font-family="Times Roman,serif" font-size="10.00">1</text>
</g>
<!-- 140336093443568&#45;&gt;140336093443208 -->
<g id="edge60" class="edge"><title>140336093443568&#45;&gt;140336093443208</title>
<path fill="none" stroke="black" d="M918.285,-144.571C914.04,-136.081 908.846,-125.693 904.134,-116.267"/>
<polygon fill="black" stroke="black" points="907.237,-114.648 899.634,-107.269 900.976,-117.778 907.237,-114.648"/>
</g>
<!-- 140336093443784 -->
<g id="node64" class="node"><title>140336093443784</title>
<ellipse fill="none" stroke="black" cx="963" cy="-90" rx="27" ry="18"/>
<text text-anchor="middle" x="963" y="-87.5" font-family="Times Roman,serif" font-size="10.00">2</text>
</g>
<!-- 140336093443568&#45;&gt;140336093443784 -->
<g id="edge64" class="edge"><title>140336093443568&#45;&gt;140336093443784</title>
<path fill="none" stroke="black" d="M935.715,-144.571C939.96,-136.081 945.154,-125.693 949.866,-116.267"/>
<polygon fill="black" stroke="black" points="953.024,-117.778 954.366,-107.269 946.763,-114.648 953.024,-117.778"/>
</g>
<!-- 140336093442632 -->
<g id="node62" class="node"><title>140336093442632</title>
<polygon fill="none" stroke="black" points="918,-36 864,-36 864,-1.77636e-14 918,-3.55271e-15 918,-36"/>
<text text-anchor="middle" x="891" y="-15.5" font-family="Times Roman,serif" font-size="10.00">1</text>
</g>
<!-- 140336093443208&#45;&gt;140336093442632 -->
<g id="edge62" class="edge"><title>140336093443208&#45;&gt;140336093442632</title>
<path fill="none" stroke="black" d="M891,-71.8314C891,-64.131 891,-54.9743 891,-46.4166"/>
<polygon fill="black" stroke="black" points="894.5,-46.4132 891,-36.4133 887.5,-46.4133 894.5,-46.4132"/>
</g>
<!-- 140336093444072 -->
<g id="node66" class="node"><title>140336093444072</title>
<polygon fill="none" stroke="black" points="990,-36 936,-36 936,-1.77636e-14 990,-3.55271e-15 990,-36"/>
<text text-anchor="middle" x="963" y="-15.5" font-family="Times Roman,serif" font-size="10.00">1</text>
</g>
<!-- 140336093443784&#45;&gt;140336093444072 -->
<g id="edge66" class="edge"><title>140336093443784&#45;&gt;140336093444072</title>
<path fill="none" stroke="black" d="M963,-71.8314C963,-64.131 963,-54.9743 963,-46.4166"/>
<polygon fill="black" stroke="black" points="966.5,-46.4132 963,-36.4133 959.5,-46.4133 966.5,-46.4132"/>
</g>
<!-- 140336093443280 -->
<g id="node68" class="node"><title>140336093443280</title>
<polygon fill="none" stroke="black" points="1062,-36 1008,-36 1008,-1.77636e-14 1062,-3.55271e-15 1062,-36"/>
<text text-anchor="middle" x="1035" y="-15.5" font-family="Times Roman,serif" font-size="10.00">1</text>
</g>
<!-- 140336093443784&#45;&gt;140336093443280 -->
<g id="edge68" class="edge"><title>140336093443784&#45;&gt;140336093443280</title>
<path fill="none" stroke="black" d="M978.269,-74.7307C987.371,-65.6292 999.154,-53.8461 1009.62,-43.3788"/>
<polygon fill="black" stroke="black" points="1012.36,-45.5927 1016.95,-36.0467 1007.41,-40.6429 1012.36,-45.5927"/>
</g>
<!-- 15497408 -->
<g id="node72" class="node"><title>15497408</title>
<ellipse fill="none" stroke="black" cx="1071" cy="-90" rx="27" ry="18"/>
<text text-anchor="middle" x="1071" y="-87.5" font-family="Times Roman,serif" font-size="10.00">5</text>
</g>
<!-- 15498056&#45;&gt;15497408 -->
<g id="edge72" class="edge"><title>15498056&#45;&gt;15497408</title>
<path fill="none" stroke="black" d="M1043.71,-144.571C1047.96,-136.081 1053.15,-125.693 1057.87,-116.267"/>
<polygon fill="black" stroke="black" points="1061.02,-117.778 1062.37,-107.269 1054.76,-114.648 1061.02,-117.778"/>
</g>
<!-- 15495248 -->
<g id="node74" class="node"><title>15495248</title>
<polygon fill="none" stroke="black" points="1134,-36 1080,-36 1080,-1.77636e-14 1134,-3.55271e-15 1134,-36"/>
<text text-anchor="middle" x="1107" y="-15.5" font-family="Times Roman,serif" font-size="10.00">5</text>
</g>
<!-- 15497408&#45;&gt;15495248 -->
<g id="edge74" class="edge"><title>15497408&#45;&gt;15495248</title>
<path fill="none" stroke="black" d="M1079.71,-72.5708C1083.82,-64.3544 1088.82,-54.3608 1093.41,-45.1821"/>
<polygon fill="black" stroke="black" points="1096.65,-46.5301 1097.99,-36.0206 1090.39,-43.3996 1096.65,-46.5301"/>
</g>
<!-- 140336092904912 -->
<g id="node78" class="node"><title>140336092904912</title>
<ellipse fill="none" stroke="black" cx="1215" cy="-90" rx="27" ry="18"/>
<text text-anchor="middle" x="1215" y="-87.5" font-family="Times Roman,serif" font-size="10.00">2</text>
</g>
<!-- 140336092904552&#45;&gt;140336092904912 -->
<g id="edge78" class="edge"><title>140336092904552&#45;&gt;140336092904912</title>
<path fill="none" stroke="black" d="M1215,-143.831C1215,-136.131 1215,-126.974 1215,-118.417"/>
<polygon fill="black" stroke="black" points="1218.5,-118.413 1215,-108.413 1211.5,-118.413 1218.5,-118.413"/>
</g>
<!-- 15503160 -->
<g id="node84" class="node"><title>15503160</title>
<ellipse fill="none" stroke="black" cx="1323" cy="-90" rx="27" ry="18"/>
<text text-anchor="middle" x="1323" y="-87.5" font-family="Times Roman,serif" font-size="10.00">3</text>
</g>
<!-- 140336092904552&#45;&gt;15503160 -->
<g id="edge84" class="edge"><title>140336092904552&#45;&gt;15503160</title>
<path fill="none" stroke="black" d="M1234.31,-149.128C1251.36,-137.763 1276.4,-121.065 1295.53,-108.31"/>
<polygon fill="black" stroke="black" points="1297.48,-111.22 1303.86,-102.761 1293.6,-105.396 1297.48,-111.22"/>
</g>
<!-- 140336092904984 -->
<g id="node80" class="node"><title>140336092904984</title>
<polygon fill="none" stroke="black" points="1206,-36 1152,-36 1152,-1.77636e-14 1206,-3.55271e-15 1206,-36"/>
<text text-anchor="middle" x="1179" y="-15.5" font-family="Times Roman,serif" font-size="10.00">1</text>
</g>
<!-- 140336092904912&#45;&gt;140336092904984 -->
<g id="edge80" class="edge"><title>140336092904912&#45;&gt;140336092904984</title>
<path fill="none" stroke="black" d="M1206.29,-72.5708C1202.18,-64.3544 1197.18,-54.3608 1192.59,-45.1821"/>
<polygon fill="black" stroke="black" points="1195.61,-43.3996 1188.01,-36.0206 1189.35,-46.5301 1195.61,-43.3996"/>
</g>
<!-- 140336092905344 -->
<g id="node82" class="node"><title>140336092905344</title>
<polygon fill="none" stroke="black" points="1278,-36 1224,-36 1224,-1.77636e-14 1278,-3.55271e-15 1278,-36"/>
<text text-anchor="middle" x="1251" y="-15.5" font-family="Times Roman,serif" font-size="10.00">1</text>
</g>
<!-- 140336092904912&#45;&gt;140336092905344 -->
<g id="edge82" class="edge"><title>140336092904912&#45;&gt;140336092905344</title>
<path fill="none" stroke="black" d="M1223.71,-72.5708C1227.82,-64.3544 1232.82,-54.3608 1237.41,-45.1821"/>
<polygon fill="black" stroke="black" points="1240.65,-46.5301 1241.99,-36.0206 1234.39,-43.3996 1240.65,-46.5301"/>
</g>
<!-- 15500136 -->
<g id="node86" class="node"><title>15500136</title>
<polygon fill="none" stroke="black" points="1350,-36 1296,-36 1296,-1.77636e-14 1350,-3.55271e-15 1350,-36"/>
<text text-anchor="middle" x="1323" y="-15.5" font-family="Times Roman,serif" font-size="10.00">1</text>
</g>
<!-- 15503160&#45;&gt;15500136 -->
<g id="edge86" class="edge"><title>15503160&#45;&gt;15500136</title>
<path fill="none" stroke="black" d="M1323,-71.8314C1323,-64.131 1323,-54.9743 1323,-46.4166"/>
<polygon fill="black" stroke="black" points="1326.5,-46.4132 1323,-36.4133 1319.5,-46.4133 1326.5,-46.4132"/>
</g>
<!-- 15502152 -->
<g id="node88" class="node"><title>15502152</title>
<polygon fill="none" stroke="black" points="1422,-36 1368,-36 1368,-1.77636e-14 1422,-3.55271e-15 1422,-36"/>
<text text-anchor="middle" x="1395" y="-15.5" font-family="Times Roman,serif" font-size="10.00">2</text>
</g>
<!-- 15503160&#45;&gt;15502152 -->
<g id="edge88" class="edge"><title>15503160&#45;&gt;15502152</title>
<path fill="none" stroke="black" d="M1338.27,-74.7307C1347.37,-65.6292 1359.15,-53.8461 1369.62,-43.3788"/>
<polygon fill="black" stroke="black" points="1372.36,-45.5927 1376.95,-36.0467 1367.41,-40.6429 1372.36,-45.5927"/>
</g>
<!-- 140336093203920 -->
<g id="node92" class="node"><title>140336093203920</title>
<ellipse fill="none" stroke="black" cx="1575" cy="-234" rx="27" ry="18"/>
<text text-anchor="middle" x="1575" y="-231.5" font-family="Times Roman,serif" font-size="10.00">9</text>
</g>
<!-- 140336092906776&#45;&gt;140336093203920 -->
<g id="edge92" class="edge"><title>140336092906776&#45;&gt;140336093203920</title>
<path fill="none" stroke="black" d="M1575,-287.831C1575,-280.131 1575,-270.974 1575,-262.417"/>
<polygon fill="black" stroke="black" points="1578.5,-262.413 1575,-252.413 1571.5,-262.413 1578.5,-262.413"/>
</g>
<!-- 140336092887160 -->
<g id="node94" class="node"><title>140336092887160</title>
<ellipse fill="none" stroke="black" cx="1575" cy="-162" rx="27" ry="18"/>
<text text-anchor="middle" x="1575" y="-159.5" font-family="Times Roman,serif" font-size="10.00">9</text>
</g>
<!-- 140336093203920&#45;&gt;140336092887160 -->
<g id="edge94" class="edge"><title>140336093203920&#45;&gt;140336092887160</title>
<path fill="none" stroke="black" d="M1575,-215.831C1575,-208.131 1575,-198.974 1575,-190.417"/>
<polygon fill="black" stroke="black" points="1578.5,-190.413 1575,-180.413 1571.5,-190.413 1578.5,-190.413"/>
</g>
<!-- 140336092885144 -->
<g id="node96" class="node"><title>140336092885144</title>
<ellipse fill="none" stroke="black" cx="1539" cy="-90" rx="27" ry="18"/>
<text text-anchor="middle" x="1539" y="-87.5" font-family="Times Roman,serif" font-size="10.00">4</text>
</g>
<!-- 140336092887160&#45;&gt;140336092885144 -->
<g id="edge96" class="edge"><title>140336092887160&#45;&gt;140336092885144</title>
<path fill="none" stroke="black" d="M1566.29,-144.571C1562.04,-136.081 1556.85,-125.693 1552.13,-116.267"/>
<polygon fill="black" stroke="black" points="1555.24,-114.648 1547.63,-107.269 1548.98,-117.778 1555.24,-114.648"/>
</g>
<!-- 140336092887016 -->
<g id="node102" class="node"><title>140336092887016</title>
<ellipse fill="none" stroke="black" cx="1611" cy="-90" rx="27" ry="18"/>
<text text-anchor="middle" x="1611" y="-87.5" font-family="Times Roman,serif" font-size="10.00">5</text>
</g>
<!-- 140336092887160&#45;&gt;140336092887016 -->
<g id="edge102" class="edge"><title>140336092887160&#45;&gt;140336092887016</title>
<path fill="none" stroke="black" d="M1583.71,-144.571C1587.96,-136.081 1593.15,-125.693 1597.87,-116.267"/>
<polygon fill="black" stroke="black" points="1601.02,-117.778 1602.37,-107.269 1594.76,-114.648 1601.02,-117.778"/>
</g>
<!-- 140336092887880 -->
<g id="node98" class="node"><title>140336092887880</title>
<polygon fill="none" stroke="black" points="1494,-36 1440,-36 1440,-1.77636e-14 1494,-3.55271e-15 1494,-36"/>
<text text-anchor="middle" x="1467" y="-15.5" font-family="Times Roman,serif" font-size="10.00">1</text>
</g>
<!-- 140336092885144&#45;&gt;140336092887880 -->
<g id="edge98" class="edge"><title>140336092885144&#45;&gt;140336092887880</title>
<path fill="none" stroke="black" d="M1523.73,-74.7307C1514.63,-65.6292 1502.85,-53.8461 1492.38,-43.3788"/>
<polygon fill="black" stroke="black" points="1494.59,-40.6429 1485.05,-36.0467 1489.64,-45.5927 1494.59,-40.6429"/>
</g>
<!-- 140336092903616 -->
<g id="node100" class="node"><title>140336092903616</title>
<polygon fill="none" stroke="black" points="1566,-36 1512,-36 1512,-1.77636e-14 1566,-3.55271e-15 1566,-36"/>
<text text-anchor="middle" x="1539" y="-15.5" font-family="Times Roman,serif" font-size="10.00">3</text>
</g>
<!-- 140336092885144&#45;&gt;140336092903616 -->
<g id="edge100" class="edge"><title>140336092885144&#45;&gt;140336092903616</title>
<path fill="none" stroke="black" d="M1539,-71.8314C1539,-64.131 1539,-54.9743 1539,-46.4166"/>
<polygon fill="black" stroke="black" points="1542.5,-46.4132 1539,-36.4133 1535.5,-46.4133 1542.5,-46.4132"/>
</g>
<!-- 140336092885360 -->
<g id="node104" class="node"><title>140336092885360</title>
<polygon fill="none" stroke="black" points="1638,-36 1584,-36 1584,-1.77636e-14 1638,-3.55271e-15 1638,-36"/>
<text text-anchor="middle" x="1611" y="-15.5" font-family="Times Roman,serif" font-size="10.00">1</text>
</g>
<!-- 140336092887016&#45;&gt;140336092885360 -->
<g id="edge104" class="edge"><title>140336092887016&#45;&gt;140336092885360</title>
<path fill="none" stroke="black" d="M1611,-71.8314C1611,-64.131 1611,-54.9743 1611,-46.4166"/>
<polygon fill="black" stroke="black" points="1614.5,-46.4132 1611,-36.4133 1607.5,-46.4133 1614.5,-46.4132"/>
</g>
<!-- 140336092904480 -->
<g id="node106" class="node"><title>140336092904480</title>
<polygon fill="none" stroke="black" points="1710,-36 1656,-36 1656,-1.77636e-14 1710,-3.55271e-15 1710,-36"/>
<text text-anchor="middle" x="1683" y="-15.5" font-family="Times Roman,serif" font-size="10.00">4</text>
</g>
<!-- 140336092887016&#45;&gt;140336092904480 -->
<g id="edge106" class="edge"><title>140336092887016&#45;&gt;140336092904480</title>
<path fill="none" stroke="black" d="M1626.27,-74.7307C1635.37,-65.6292 1647.15,-53.8461 1657.62,-43.3788"/>
<polygon fill="black" stroke="black" points="1660.36,-45.5927 1664.95,-36.0467 1655.41,-40.6429 1660.36,-45.5927"/>
</g>
<!-- 140336093443352 -->
<g id="node110" class="node"><title>140336093443352</title>
<ellipse fill="none" stroke="black" cx="1741" cy="-234" rx="27" ry="18"/>
<text text-anchor="middle" x="1741" y="-231.5" font-family="Times Roman,serif" font-size="10.00">5</text>
</g>
<!-- 140336093443712&#45;&gt;140336093443352 -->
<g id="edge110" class="edge"><title>140336093443712&#45;&gt;140336093443352</title>
<path fill="none" stroke="black" d="M1676.39,-291.43C1688.03,-281.085 1703.84,-267.029 1716.91,-255.412"/>
<polygon fill="black" stroke="black" points="1719.48,-257.808 1724.63,-248.549 1714.83,-252.576 1719.48,-257.808"/>
</g>
<!-- 140336093442272 -->
<g id="node112" class="node"><title>140336093442272</title>
<ellipse fill="none" stroke="black" cx="1791" cy="-162" rx="27" ry="18"/>
<text text-anchor="middle" x="1791" y="-159.5" font-family="Times Roman,serif" font-size="10.00">5</text>
</g>
<!-- 140336093443352&#45;&gt;140336093442272 -->
<g id="edge112" class="edge"><title>140336093443352&#45;&gt;140336093442272</title>
<path fill="none" stroke="black" d="M1752.35,-217.662C1758.59,-208.677 1766.46,-197.334 1773.47,-187.236"/>
<polygon fill="black" stroke="black" points="1776.52,-188.983 1779.35,-178.773 1770.77,-184.99 1776.52,-188.983"/>
</g>
<!-- 140336092906344 -->
<g id="node114" class="node"><title>140336092906344</title>
<ellipse fill="none" stroke="black" cx="1791" cy="-90" rx="27" ry="18"/>
<text text-anchor="middle" x="1791" y="-87.5" font-family="Times Roman,serif" font-size="10.00">2</text>
</g>
<!-- 140336093442272&#45;&gt;140336092906344 -->
<g id="edge114" class="edge"><title>140336093442272&#45;&gt;140336092906344</title>
<path fill="none" stroke="black" d="M1791,-143.831C1791,-136.131 1791,-126.974 1791,-118.417"/>
<polygon fill="black" stroke="black" points="1794.5,-118.413 1791,-108.413 1787.5,-118.413 1794.5,-118.413"/>
</g>
<!-- 140336092906488 -->
<g id="node120" class="node"><title>140336092906488</title>
<ellipse fill="none" stroke="black" cx="1899" cy="-90" rx="27" ry="18"/>
<text text-anchor="middle" x="1899" y="-87.5" font-family="Times Roman,serif" font-size="10.00">3</text>
</g>
<!-- 140336093442272&#45;&gt;140336092906488 -->
<g id="edge120" class="edge"><title>140336093442272&#45;&gt;140336092906488</title>
<path fill="none" stroke="black" d="M1810.31,-149.128C1827.36,-137.763 1852.4,-121.065 1871.53,-108.31"/>
<polygon fill="black" stroke="black" points="1873.48,-111.22 1879.86,-102.761 1869.6,-105.396 1873.48,-111.22"/>
</g>
<!-- 140336092905696 -->
<g id="node116" class="node"><title>140336092905696</title>
<polygon fill="none" stroke="black" points="1782,-36 1728,-36 1728,-1.77636e-14 1782,-3.55271e-15 1782,-36"/>
<text text-anchor="middle" x="1755" y="-15.5" font-family="Times Roman,serif" font-size="10.00">1</text>
</g>
<!-- 140336092906344&#45;&gt;140336092905696 -->
<g id="edge116" class="edge"><title>140336092906344&#45;&gt;140336092905696</title>
<path fill="none" stroke="black" d="M1782.29,-72.5708C1778.18,-64.3544 1773.18,-54.3608 1768.59,-45.1821"/>
<polygon fill="black" stroke="black" points="1771.61,-43.3996 1764.01,-36.0206 1765.35,-46.5301 1771.61,-43.3996"/>
</g>
<!-- 140336092885504 -->
<g id="node118" class="node"><title>140336092885504</title>
<polygon fill="none" stroke="black" points="1854,-36 1800,-36 1800,-1.77636e-14 1854,-3.55271e-15 1854,-36"/>
<text text-anchor="middle" x="1827" y="-15.5" font-family="Times Roman,serif" font-size="10.00">1</text>
</g>
<!-- 140336092906344&#45;&gt;140336092885504 -->
<g id="edge118" class="edge"><title>140336092906344&#45;&gt;140336092885504</title>
<path fill="none" stroke="black" d="M1799.71,-72.5708C1803.82,-64.3544 1808.82,-54.3608 1813.41,-45.1821"/>
<polygon fill="black" stroke="black" points="1816.65,-46.5301 1817.99,-36.0206 1810.39,-43.3996 1816.65,-46.5301"/>
</g>
<!-- 140336092905840 -->
<g id="node122" class="node"><title>140336092905840</title>
<polygon fill="none" stroke="black" points="1926,-36 1872,-36 1872,-1.77636e-14 1926,-3.55271e-15 1926,-36"/>
<text text-anchor="middle" x="1899" y="-15.5" font-family="Times Roman,serif" font-size="10.00">1</text>
</g>
<!-- 140336092906488&#45;&gt;140336092905840 -->
<g id="edge122" class="edge"><title>140336092906488&#45;&gt;140336092905840</title>
<path fill="none" stroke="black" d="M1899,-71.8314C1899,-64.131 1899,-54.9743 1899,-46.4166"/>
<polygon fill="black" stroke="black" points="1902.5,-46.4132 1899,-36.4133 1895.5,-46.4133 1902.5,-46.4132"/>
</g>
<!-- 140336092907784 -->
<g id="node124" class="node"><title>140336092907784</title>
<polygon fill="none" stroke="black" points="1998,-36 1944,-36 1944,-1.77636e-14 1998,-3.55271e-15 1998,-36"/>
<text text-anchor="middle" x="1971" y="-15.5" font-family="Times Roman,serif" font-size="10.00">2</text>
</g>
<!-- 140336092906488&#45;&gt;140336092907784 -->
<g id="edge124" class="edge"><title>140336092906488&#45;&gt;140336092907784</title>
<path fill="none" stroke="black" d="M1914.27,-74.7307C1923.37,-65.6292 1935.15,-53.8461 1945.62,-43.3788"/>
<polygon fill="black" stroke="black" points="1948.36,-45.5927 1952.95,-36.0467 1943.41,-40.6429 1948.36,-45.5927"/>
</g>
<!-- 140336093442344 -->
<g id="node128" class="node"><title>140336093442344</title>
<ellipse fill="none" stroke="black" cx="1813" cy="-234" rx="27" ry="18"/>
<text text-anchor="middle" x="1813" y="-231.5" font-family="Times Roman,serif" font-size="10.00">1</text>
</g>
<!-- 140336093442704&#45;&gt;140336093442344 -->
<g id="edge128" class="edge"><title>140336093442704&#45;&gt;140336093442344</title>
<path fill="none" stroke="black" d="M1771.25,-289.662C1778.16,-280.456 1786.92,-268.776 1794.63,-258.495"/>
<polygon fill="black" stroke="black" points="1797.6,-260.373 1800.8,-250.273 1792,-256.173 1797.6,-260.373"/>
</g>
<!-- 140336093442560 -->
<g id="node130" class="node"><title>140336093442560</title>
<ellipse fill="none" stroke="black" cx="1953" cy="-162" rx="27" ry="18"/>
<text text-anchor="middle" x="1953" y="-159.5" font-family="Times Roman,serif" font-size="10.00">1</text>
</g>
<!-- 140336093442344&#45;&gt;140336093442560 -->
<g id="edge130" class="edge"><title>140336093442344&#45;&gt;140336093442560</title>
<path fill="none" stroke="black" d="M1834.57,-222.908C1857.93,-210.893 1895.41,-191.617 1921.94,-177.972"/>
<polygon fill="black" stroke="black" points="1923.88,-180.909 1931.18,-173.223 1920.68,-174.684 1923.88,-180.909"/>
</g>
<!-- 140336093444360 -->
<g id="node132" class="node"><title>140336093444360</title>
<ellipse fill="none" stroke="black" cx="2007" cy="-90" rx="27" ry="18"/>
<text text-anchor="middle" x="2007" y="-87.5" font-family="Times Roman,serif" font-size="10.00">1</text>
</g>
<!-- 140336093442560&#45;&gt;140336093444360 -->
<g id="edge132" class="edge"><title>140336093442560&#45;&gt;140336093444360</title>
<path fill="none" stroke="black" d="M1965.25,-145.662C1972.16,-136.456 1980.92,-124.776 1988.63,-114.495"/>
<polygon fill="black" stroke="black" points="1991.6,-116.373 1994.8,-106.273 1986,-112.173 1991.6,-116.373"/>
</g>
<!-- 140336093445656 -->
<g id="node134" class="node"><title>140336093445656</title>
<polygon fill="none" stroke="black" points="2070,-36 2016,-36 2016,-1.77636e-14 2070,-3.55271e-15 2070,-36"/>
<text text-anchor="middle" x="2043" y="-15.5" font-family="Times Roman,serif" font-size="10.00">1</text>
</g>
<!-- 140336093444360&#45;&gt;140336093445656 -->
<g id="edge134" class="edge"><title>140336093444360&#45;&gt;140336093445656</title>
<path fill="none" stroke="black" d="M2015.71,-72.5708C2019.82,-64.3544 2024.82,-54.3608 2029.41,-45.1821"/>
<polygon fill="black" stroke="black" points="2032.65,-46.5301 2033.99,-36.0206 2026.39,-43.3996 2032.65,-46.5301"/>
</g>
</g>
</svg>
