<?xml version="1.0" encoding="UTF-8" standalone="no"?>
<!DOCTYPE svg PUBLIC "-//W3C//DTD SVG 1.1//EN"
 "http://www.w3.org/Graphics/SVG/1.1/DTD/svg11.dtd">
<!-- Generated by graphviz version 2.26.3 (20100126.1600)
 -->
<!-- Title: _anonymous_0 Pages: 1 -->
<svg width="438pt" height="302pt"
 viewBox="0.00 0.00 438.00 302.00" xmlns="http://www.w3.org/2000/svg" xmlns:xlink="http://www.w3.org/1999/xlink">
<g id="graph1" class="graph" transform="scale(1 1) rotate(0) translate(4 298)">
<title>_anonymous_0</title>
<polygon fill="white" stroke="white" points="-4,5 -4,-298 435,-298 435,5 -4,5"/>
<!-- 139684219635112 -->
<g id="node1" class="node"><title>139684219635112</title>
<ellipse fill="none" stroke="black" cx="116" cy="-276" rx="27" ry="18"/>
<text text-anchor="middle" x="116" y="-273.5" font-family="Times Roman,serif" font-size="10.00">protocol</text>
</g>
<!-- 139684219635976 -->
<g id="node2" class="node"><title>139684219635976</title>
<ellipse fill="none" stroke="black" cx="69" cy="-190" rx="27" ry="18"/>
<text text-anchor="middle" x="69" y="-187.5" font-family="Times Roman,serif" font-size="10.00">port</text>
</g>
<!-- 139684219635112&#45;&gt;139684219635976 -->
<g id="edge2" class="edge"><title>139684219635112&#45;&gt;139684219635976</title>
<path fill="none" stroke="black" d="M106.714,-259.009C100.02,-246.759 90.8594,-229.998 83.2432,-216.062"/>
<polygon fill="black" stroke="black" points="86.1334,-214.052 78.2664,-206.956 79.9908,-217.409 86.1334,-214.052"/>
<text text-anchor="middle" x="107" y="-230.5" font-family="Times Roman,serif" font-size="10.00">(0&#45;2)</text>
</g>
<!-- 139684219634896 -->
<g id="node8" class="node"><title>139684219634896</title>
<ellipse fill="none" stroke="black" cx="155" cy="-190" rx="27" ry="18"/>
<text text-anchor="middle" x="155" y="-187.5" font-family="Times Roman,serif" font-size="10.00">port</text>
</g>
<!-- 139684219635112&#45;&gt;139684219634896 -->
<g id="edge8" class="edge"><title>139684219635112&#45;&gt;139684219634896</title>
<path fill="none" stroke="black" d="M123.892,-258.597C129.337,-246.59 136.68,-230.398 142.865,-216.76"/>
<polygon fill="black" stroke="black" points="146.177,-217.93 147.12,-207.378 139.802,-215.039 146.177,-217.93"/>
<text text-anchor="middle" x="149" y="-230.5" font-family="Times Roman,serif" font-size="10.00">(3&#45;3)</text>
</g>
<!-- 139684219635184 -->
<g id="node4" class="node"><title>139684219635184</title>
<ellipse fill="none" stroke="black" cx="27" cy="-104" rx="27" ry="18"/>
<text text-anchor="middle" x="27" y="-101.5" font-family="Times Roman,serif" font-size="10.00">ip</text>
</g>
<!-- 139684219635976&#45;&gt;139684219635184 -->
<g id="edge4" class="edge"><title>139684219635976&#45;&gt;139684219635184</title>
<path fill="none" stroke="black" d="M60.5007,-172.597C54.5801,-160.474 46.5754,-144.083 39.8752,-130.363"/>
<polygon fill="black" stroke="black" points="43.0201,-128.827 35.4867,-121.378 36.7301,-131.899 43.0201,-128.827"/>
<text text-anchor="middle" x="63" y="-144.5" font-family="Times Roman,serif" font-size="10.00">(0&#45;7)</text>
</g>
<!-- 139684219637272 -->
<g id="node6" class="node"><title>139684219637272</title>
<polygon fill="none" stroke="black" points="54,-36 2.13163e-14,-36 0,-1.77636e-14 54,-3.55271e-15 54,-36"/>
<text text-anchor="middle" x="27" y="-15.5" font-family="Times Roman,serif" font-size="10.00">permit</text>
</g>
<!-- 139684219635184&#45;&gt;139684219637272 -->
<g id="edge6" class="edge"><title>139684219635184&#45;&gt;139684219637272</title>
<path fill="none" stroke="black" d="M27,-85.7616C27,-74.3597 27,-59.4342 27,-46.494"/>
<polygon fill="black" stroke="black" points="30.5001,-46.2121 27,-36.2121 23.5001,-46.2121 30.5001,-46.2121"/>
<text text-anchor="middle" x="42" y="-58.5" font-family="Times Roman,serif" font-size="10.00">(0&#45;15)</text>
</g>
<!-- 139684219634968 -->
<g id="node10" class="node"><title>139684219634968</title>
<ellipse fill="none" stroke="black" cx="99" cy="-104" rx="27" ry="18"/>
<text text-anchor="middle" x="99" y="-101.5" font-family="Times Roman,serif" font-size="10.00">ip</text>
</g>
<!-- 139684219634896&#45;&gt;139684219634968 -->
<g id="edge10" class="edge"><title>139684219634896&#45;&gt;139684219634968</title>
<path fill="none" stroke="black" d="M134.924,-177.856C126.359,-171.713 116.98,-163.531 111,-154 106.89,-147.449 104.188,-139.607 102.411,-132.097"/>
<polygon fill="black" stroke="black" points="105.837,-131.377 100.516,-122.215 98.9619,-132.695 105.837,-131.377"/>
<text text-anchor="middle" x="134.5" y="-144.5" font-family="Times Roman,serif" font-size="10.00">(0&#45;1)(5&#45;7)</text>
</g>
<!-- 139684219641728 -->
<g id="node14" class="node"><title>139684219641728</title>
<ellipse fill="none" stroke="black" cx="171" cy="-104" rx="27" ry="18"/>
<text text-anchor="middle" x="171" y="-101.5" font-family="Times Roman,serif" font-size="10.00">ip</text>
</g>
<!-- 139684219634896&#45;&gt;139684219641728 -->
<g id="edge14" class="edge"><title>139684219634896&#45;&gt;139684219641728</title>
<path fill="none" stroke="black" d="M158.393,-171.762C160.55,-160.168 163.385,-144.931 165.82,-131.843"/>
<polygon fill="black" stroke="black" points="169.278,-132.389 167.667,-121.917 162.396,-131.108 169.278,-132.389"/>
<text text-anchor="middle" x="175" y="-144.5" font-family="Times Roman,serif" font-size="10.00">(2&#45;3)</text>
</g>
<!-- 139684219630872 -->
<g id="node20" class="node"><title>139684219630872</title>
<ellipse fill="none" stroke="black" cx="319" cy="-104" rx="27" ry="18"/>
<text text-anchor="middle" x="319" y="-101.5" font-family="Times Roman,serif" font-size="10.00">ip</text>
</g>
<!-- 139684219634896&#45;&gt;139684219630872 -->
<g id="edge20" class="edge"><title>139684219634896&#45;&gt;139684219630872</title>
<path fill="none" stroke="black" d="M176.44,-178.757C205.047,-163.756 255.871,-137.104 288.472,-120.009"/>
<polygon fill="black" stroke="black" points="290.324,-122.99 297.555,-115.246 287.073,-116.79 290.324,-122.99"/>
<text text-anchor="middle" x="258" y="-144.5" font-family="Times Roman,serif" font-size="10.00">(4&#45;4)</text>
</g>
<!-- 139684219633888 -->
<g id="node12" class="node"><title>139684219633888</title>
<polygon fill="none" stroke="black" points="126,-36 72,-36 72,-1.77636e-14 126,-3.55271e-15 126,-36"/>
<text text-anchor="middle" x="99" y="-15.5" font-family="Times Roman,serif" font-size="10.00">permit</text>
</g>
<!-- 139684219634968&#45;&gt;139684219633888 -->
<g id="edge12" class="edge"><title>139684219634968&#45;&gt;139684219633888</title>
<path fill="none" stroke="black" d="M99,-85.7616C99,-74.3597 99,-59.4342 99,-46.494"/>
<polygon fill="black" stroke="black" points="102.5,-46.2121 99,-36.2121 95.5001,-46.2121 102.5,-46.2121"/>
<text text-anchor="middle" x="114" y="-58.5" font-family="Times Roman,serif" font-size="10.00">(0&#45;15)</text>
</g>
<!-- 139684219639496 -->
<g id="node16" class="node"><title>139684219639496</title>
<polygon fill="none" stroke="black" points="198,-36 144,-36 144,-1.77636e-14 198,-3.55271e-15 198,-36"/>
<text text-anchor="middle" x="171" y="-15.5" font-family="Times Roman,serif" font-size="10.00">deny</text>
</g>
<!-- 139684219641728&#45;&gt;139684219639496 -->
<g id="edge16" class="edge"><title>139684219641728&#45;&gt;139684219639496</title>
<path fill="none" stroke="black" d="M171,-85.7616C171,-74.3597 171,-59.4342 171,-46.494"/>
<polygon fill="black" stroke="black" points="174.5,-46.2121 171,-36.2121 167.5,-46.2121 174.5,-46.2121"/>
<text text-anchor="middle" x="197.5" y="-58.5" font-family="Times Roman,serif" font-size="10.00">(0&#45;5)(8&#45;15)</text>
</g>
<!-- 139684219639280 -->
<g id="node18" class="node"><title>139684219639280</title>
<polygon fill="none" stroke="black" points="274,-36 220,-36 220,-1.77636e-14 274,-3.55271e-15 274,-36"/>
<text text-anchor="middle" x="247" y="-15.5" font-family="Times Roman,serif" font-size="10.00">permit</text>
</g>
<!-- 139684219641728&#45;&gt;139684219639280 -->
<g id="edge18" class="edge"><title>139684219641728&#45;&gt;139684219639280</title>
<path fill="none" stroke="black" d="M192.897,-93.2342C203.688,-87.0528 216.231,-78.4393 225,-68 230.49,-61.4644 234.839,-53.3444 238.17,-45.5617"/>
<polygon fill="black" stroke="black" points="241.514,-46.6181 241.856,-36.0287 234.985,-44.0939 241.514,-46.6181"/>
<text text-anchor="middle" x="245" y="-58.5" font-family="Times Roman,serif" font-size="10.00">(6&#45;7)</text>
</g>
<!-- 139684219631376 -->
<g id="node22" class="node"><title>139684219631376</title>
<polygon fill="none" stroke="black" points="346,-36 292,-36 292,-1.77636e-14 346,-3.55271e-15 346,-36"/>
<text text-anchor="middle" x="319" y="-15.5" font-family="Times Roman,serif" font-size="10.00">permit</text>
</g>
<!-- 139684219630872&#45;&gt;139684219631376 -->
<g id="edge22" class="edge"><title>139684219630872&#45;&gt;139684219631376</title>
<path fill="none" stroke="black" d="M319,-85.7616C319,-74.3597 319,-59.4342 319,-46.494"/>
<polygon fill="black" stroke="black" points="322.5,-46.2121 319,-36.2121 315.5,-46.2121 322.5,-46.2121"/>
<text text-anchor="middle" x="342.5" y="-58.5" font-family="Times Roman,serif" font-size="10.00">(0&#45;4)(6&#45;7)</text>
</g>
<!-- 139684219633392 -->
<g id="node24" class="node"><title>139684219633392</title>
<polygon fill="none" stroke="black" points="418,-36 364,-36 364,-1.77636e-14 418,-3.55271e-15 418,-36"/>
<text text-anchor="middle" x="391" y="-15.5" font-family="Times Roman,serif" font-size="10.00">deny</text>
</g>
<!-- 139684219630872&#45;&gt;139684219633392 -->
<g id="edge24" class="edge"><title>139684219630872&#45;&gt;139684219633392</title>
<path fill="none" stroke="black" d="M339.999,-92.4463C349.813,-86.2243 361.057,-77.8093 369,-68 374.287,-61.4703 378.55,-53.4718 381.864,-45.8032"/>
<polygon fill="black" stroke="black" points="385.158,-46.9887 385.56,-36.4015 378.644,-44.4277 385.158,-46.9887"/>
<text text-anchor="middle" x="403.5" y="-58.5" font-family="Times Roman,serif" font-size="10.00">(5&#45;5)(8&#45;15)</text>
</g>
</g>
</svg>
