<?xml version="1.0" encoding="UTF-8" standalone="no"?>
<!DOCTYPE svg PUBLIC "-//W3C//DTD SVG 1.1//EN"
 "http://www.w3.org/Graphics/SVG/1.1/DTD/svg11.dtd">
<!-- Generated by graphviz version 2.26.3 (20100126.1600)
 -->
<!-- Title: _anonymous_0 Pages: 1 -->
<svg width="134pt" height="216pt"
 viewBox="0.00 0.00 134.00 216.00" xmlns="http://www.w3.org/2000/svg" xmlns:xlink="http://www.w3.org/1999/xlink">
<g id="graph1" class="graph" transform="scale(1 1) rotate(0) translate(4 212)">
<title>_anonymous_0</title>
<polygon fill="white" stroke="white" points="-4,5 -4,-212 131,-212 131,5 -4,5"/>
<!-- 140707205285000 -->
<g id="node1" class="node"><title>140707205285000</title>
<polygon fill="none" stroke="black" points="94,-208 40,-208 40,-172 94,-172 94,-208"/>
<text text-anchor="middle" x="67" y="-187.5" font-family="Times Roman,serif" font-size="10.00">deny</text>
</g>
<!-- 140707205285216 -->
<g id="node2" class="node"><title>140707205285216</title>
<ellipse fill="none" stroke="black" cx="32" cy="-104" rx="18" ry="18"/>
</g>
<!-- 140707205285000&#45;&gt;140707205285216 -->
<g id="edge2" class="edge"><title>140707205285000&#45;&gt;140707205285216</title>
<path fill="none" stroke="black" d="M59.5774,-171.762C54.6844,-159.739 48.1969,-143.798 42.7435,-130.398"/>
<polygon fill="black" stroke="black" points="45.8299,-128.697 38.8184,-120.754 39.3462,-131.336 45.8299,-128.697"/>
<text text-anchor="middle" x="55.5" y="-144.5" font-family="Times Roman,serif" font-size="10.00">0</text>
</g>
<!-- 140707205285072 -->
<g id="node6" class="node"><title>140707205285072</title>
<ellipse fill="none" stroke="black" cx="95" cy="-104" rx="18" ry="18"/>
</g>
<!-- 140707205285000&#45;&gt;140707205285072 -->
<g id="edge6" class="edge"><title>140707205285000&#45;&gt;140707205285072</title>
<path fill="none" stroke="black" d="M72.9381,-171.762C76.8013,-159.896 81.907,-144.214 86.2337,-130.925"/>
<polygon fill="black" stroke="black" points="89.5891,-131.925 89.3569,-121.332 82.933,-129.757 89.5891,-131.925"/>
<text text-anchor="middle" x="85.5" y="-144.5" font-family="Times Roman,serif" font-size="10.00">1</text>
</g>
<!-- 140707205285288 -->
<g id="node4" class="node"><title>140707205285288</title>
<polygon fill="none" stroke="black" points="54,-36 2.13163e-14,-36 0,-1.77636e-14 54,-3.55271e-15 54,-36"/>
<text text-anchor="middle" x="27" y="-15.5" font-family="Times Roman,serif" font-size="10.00">permit</text>
</g>
<!-- 140707205285216&#45;&gt;140707205285288 -->
<g id="edge4" class="edge"><title>140707205285216&#45;&gt;140707205285288</title>
<path fill="none" stroke="black" d="M30.9396,-85.7616C30.2767,-74.3597 29.409,-59.4342 28.6566,-46.494"/>
<polygon fill="black" stroke="black" points="32.1334,-45.9921 28.0588,-36.2121 25.1452,-46.3984 32.1334,-45.9921"/>
<text text-anchor="middle" x="33.5" y="-58.5" font-family="Times Roman,serif" font-size="10.00">0</text>
</g>
<!-- 140707205285144 -->
<g id="node8" class="node"><title>140707205285144</title>
<polygon fill="none" stroke="black" points="126,-36 72,-36 72,-1.77636e-14 126,-3.55271e-15 126,-36"/>
<text text-anchor="middle" x="99" y="-15.5" font-family="Times Roman,serif" font-size="10.00">permit</text>
</g>
<!-- 140707205285072&#45;&gt;140707205285144 -->
<g id="edge8" class="edge"><title>140707205285072&#45;&gt;140707205285144</title>
<path fill="none" stroke="black" d="M95.8483,-85.7616C96.3786,-74.3597 97.0728,-59.4342 97.6747,-46.494"/>
<polygon fill="black" stroke="black" points="101.184,-46.3639 98.1529,-36.2121 94.192,-46.0387 101.184,-46.3639"/>
<text text-anchor="middle" x="100.5" y="-58.5" font-family="Times Roman,serif" font-size="10.00">0</text>
</g>
</g>
</svg>
