<?xml version="1.0" encoding="UTF-8" standalone="no"?>
<!DOCTYPE svg PUBLIC "-//W3C//DTD SVG 1.1//EN"
 "http://www.w3.org/Graphics/SVG/1.1/DTD/svg11.dtd">
<!-- Generated by graphviz version 2.26.3 (20100126.1600)
 -->
<!-- Title: _anonymous_0 Pages: 1 -->
<svg width="1245pt" height="302pt"
 viewBox="0.00 0.00 1245.00 302.00" xmlns="http://www.w3.org/2000/svg" xmlns:xlink="http://www.w3.org/1999/xlink">
<g id="graph1" class="graph" transform="scale(1 1) rotate(0) translate(4 298)">
<title>_anonymous_0</title>
<polygon fill="white" stroke="white" points="-4,5 -4,-298 1242,-298 1242,5 -4,5"/>
<!-- 140707205285720 -->
<g id="node1" class="node"><title>140707205285720</title>
<ellipse fill="none" stroke="black" cx="611" cy="-276" rx="27" ry="18"/>
<text text-anchor="middle" x="611" y="-273.5" font-family="Times Roman,serif" font-size="10.00">protocol</text>
</g>
<!-- 140707205276520 -->
<g id="node2" class="node"><title>140707205276520</title>
<ellipse fill="none" stroke="black" cx="329" cy="-190" rx="27" ry="18"/>
<text text-anchor="middle" x="329" y="-187.5" font-family="Times Roman,serif" font-size="10.00">port</text>
</g>
<!-- 140707205285720&#45;&gt;140707205276520 -->
<g id="edge2" class="edge"><title>140707205285720&#45;&gt;140707205276520</title>
<path fill="none" stroke="black" d="M585.974,-268.368C535.364,-252.934 420.792,-217.993 363.282,-200.455"/>
<polygon fill="black" stroke="black" points="364.153,-197.061 353.567,-197.492 362.111,-203.757 364.153,-197.061"/>
<text text-anchor="middle" x="495.5" y="-230.5" font-family="Times Roman,serif" font-size="10.00">(0*)</text>
</g>
<!-- 140707205285504 -->
<g id="node26" class="node"><title>140707205285504</title>
<ellipse fill="none" stroke="black" cx="789" cy="-190" rx="27" ry="18"/>
<text text-anchor="middle" x="789" y="-187.5" font-family="Times Roman,serif" font-size="10.00">port</text>
</g>
<!-- 140707205285720&#45;&gt;140707205285504 -->
<g id="edge26" class="edge"><title>140707205285720&#45;&gt;140707205285504</title>
<path fill="none" stroke="black" d="M633.184,-265.282C664.533,-250.136 721.944,-222.398 757.642,-205.15"/>
<polygon fill="black" stroke="black" points="759.614,-208.085 767.096,-200.583 756.569,-201.782 759.614,-208.085"/>
<text text-anchor="middle" x="719.5" y="-230.5" font-family="Times Roman,serif" font-size="10.00">(1*)</text>
</g>
<!-- 140707205276592 -->
<g id="node4" class="node"><title>140707205276592</title>
<ellipse fill="none" stroke="black" cx="75" cy="-104" rx="27" ry="18"/>
<text text-anchor="middle" x="75" y="-101.5" font-family="Times Roman,serif" font-size="10.00">ip</text>
</g>
<!-- 140707205276520&#45;&gt;140707205276592 -->
<g id="edge4" class="edge"><title>140707205276520&#45;&gt;140707205276592</title>
<path fill="none" stroke="black" d="M304.645,-181.754C259.13,-166.343 161.077,-133.144 109.045,-115.527"/>
<polygon fill="black" stroke="black" points="109.875,-112.113 99.2809,-112.221 107.63,-118.743 109.875,-112.113"/>
<text text-anchor="middle" x="230.5" y="-144.5" font-family="Times Roman,serif" font-size="10.00">(00*)</text>
</g>
<!-- 140707205277024 -->
<g id="node8" class="node"><title>140707205277024</title>
<ellipse fill="none" stroke="black" cx="194" cy="-104" rx="27" ry="18"/>
<text text-anchor="middle" x="194" y="-101.5" font-family="Times Roman,serif" font-size="10.00">ip</text>
</g>
<!-- 140707205276520&#45;&gt;140707205277024 -->
<g id="edge8" class="edge"><title>140707205276520&#45;&gt;140707205277024</title>
<path fill="none" stroke="black" d="M309.37,-177.495C286.474,-162.91 248.44,-138.68 222.343,-122.055"/>
<polygon fill="black" stroke="black" points="223.968,-118.941 213.654,-116.52 220.207,-124.845 223.968,-118.941"/>
<text text-anchor="middle" x="294.5" y="-144.5" font-family="Times Roman,serif" font-size="10.00">(01*)(100)</text>
</g>
<!-- 140707205277744 -->
<g id="node14" class="node"><title>140707205277744</title>
<ellipse fill="none" stroke="black" cx="329" cy="-104" rx="27" ry="18"/>
<text text-anchor="middle" x="329" y="-101.5" font-family="Times Roman,serif" font-size="10.00">ip</text>
</g>
<!-- 140707205276520&#45;&gt;140707205277744 -->
<g id="edge14" class="edge"><title>140707205276520&#45;&gt;140707205277744</title>
<path fill="none" stroke="black" d="M329,-171.762C329,-160.36 329,-145.434 329,-132.494"/>
<polygon fill="black" stroke="black" points="332.5,-132.212 329,-122.212 325.5,-132.212 332.5,-132.212"/>
<text text-anchor="middle" x="355" y="-144.5" font-family="Times Roman,serif" font-size="10.00">(101)(110)</text>
</g>
<!-- 140707205278248 -->
<g id="node20" class="node"><title>140707205278248</title>
<ellipse fill="none" stroke="black" cx="475" cy="-104" rx="27" ry="18"/>
<text text-anchor="middle" x="475" y="-101.5" font-family="Times Roman,serif" font-size="10.00">ip</text>
</g>
<!-- 140707205276520&#45;&gt;140707205278248 -->
<g id="edge20" class="edge"><title>140707205276520&#45;&gt;140707205278248</title>
<path fill="none" stroke="black" d="M349.301,-178.042C374.329,-163.299 417.054,-138.133 445.653,-121.287"/>
<polygon fill="black" stroke="black" points="447.561,-124.225 454.401,-116.134 444.008,-118.193 447.561,-124.225"/>
<text text-anchor="middle" x="423" y="-144.5" font-family="Times Roman,serif" font-size="10.00">(111)</text>
</g>
<!-- 140707205276664 -->
<g id="node6" class="node"><title>140707205276664</title>
<polygon fill="none" stroke="black" points="54,-36 2.13163e-14,-36 0,-1.77636e-14 54,-3.55271e-15 54,-36"/>
<text text-anchor="middle" x="27" y="-15.5" font-family="Times Roman,serif" font-size="10.00">permit</text>
</g>
<!-- 140707205276592&#45;&gt;140707205276664 -->
<g id="edge6" class="edge"><title>140707205276592&#45;&gt;140707205276664</title>
<path fill="none" stroke="black" d="M61.7461,-88.0962C57.0548,-82.0325 51.9634,-74.9132 48,-68 43.9626,-60.9577 40.2627,-52.9875 37.1309,-45.5133"/>
<polygon fill="black" stroke="black" points="40.3259,-44.0766 33.3606,-36.0931 33.8271,-46.6777 40.3259,-44.0766"/>
<text text-anchor="middle" x="62.5" y="-58.5" font-family="Times Roman,serif" font-size="10.00">(****)</text>
</g>
<!-- 140707205277240 -->
<g id="node10" class="node"><title>140707205277240</title>
<polygon fill="none" stroke="black" points="126,-36 72,-36 72,-1.77636e-14 126,-3.55271e-15 126,-36"/>
<text text-anchor="middle" x="99" y="-15.5" font-family="Times Roman,serif" font-size="10.00">permit</text>
</g>
<!-- 140707205277024&#45;&gt;140707205277240 -->
<g id="edge10" class="edge"><title>140707205277024&#45;&gt;140707205277240</title>
<path fill="none" stroke="black" d="M168.799,-97.4195C152.384,-91.9695 131.572,-82.6924 118,-68 112.329,-61.8609 108.297,-53.8586 105.453,-46.0618"/>
<polygon fill="black" stroke="black" points="108.773,-44.9533 102.451,-36.4516 102.092,-47.0404 108.773,-44.9533"/>
<text text-anchor="middle" x="154" y="-58.5" font-family="Times Roman,serif" font-size="10.00">(0***)(10**) ...</text>
</g>
<!-- 140707205277600 -->
<g id="node12" class="node"><title>140707205277600</title>
<polygon fill="none" stroke="black" points="221,-36 167,-36 167,-1.77636e-14 221,-3.55271e-15 221,-36"/>
<text text-anchor="middle" x="194" y="-15.5" font-family="Times Roman,serif" font-size="10.00">deny</text>
</g>
<!-- 140707205277024&#45;&gt;140707205277600 -->
<g id="edge12" class="edge"><title>140707205277024&#45;&gt;140707205277600</title>
<path fill="none" stroke="black" d="M194,-85.7616C194,-74.3597 194,-59.4342 194,-46.494"/>
<polygon fill="black" stroke="black" points="197.5,-46.2121 194,-36.2121 190.5,-46.2121 197.5,-46.2121"/>
<text text-anchor="middle" x="225.5" y="-58.5" font-family="Times Roman,serif" font-size="10.00">(1101)(111*)</text>
</g>
<!-- 140707205277888 -->
<g id="node16" class="node"><title>140707205277888</title>
<polygon fill="none" stroke="black" points="307,-36 253,-36 253,-1.77636e-14 307,-3.55271e-15 307,-36"/>
<text text-anchor="middle" x="280" y="-15.5" font-family="Times Roman,serif" font-size="10.00">permit</text>
</g>
<!-- 140707205277744&#45;&gt;140707205277888 -->
<g id="edge16" class="edge"><title>140707205277744&#45;&gt;140707205277888</title>
<path fill="none" stroke="black" d="M306.014,-94.343C295.12,-88.4546 283.166,-79.7684 277,-68 273.544,-61.4032 272.735,-53.6245 273.191,-46.1929"/>
<polygon fill="black" stroke="black" points="276.687,-46.4505 274.531,-36.0774 269.748,-45.5311 276.687,-46.4505"/>
<text text-anchor="middle" x="314" y="-58.5" font-family="Times Roman,serif" font-size="10.00">(00**)(0100) ...</text>
</g>
<!-- 140707205277960 -->
<g id="node18" class="node"><title>140707205277960</title>
<polygon fill="none" stroke="black" points="404,-36 350,-36 350,-1.77636e-14 404,-3.55271e-15 404,-36"/>
<text text-anchor="middle" x="377" y="-15.5" font-family="Times Roman,serif" font-size="10.00">deny</text>
</g>
<!-- 140707205277744&#45;&gt;140707205277960 -->
<g id="edge18" class="edge"><title>140707205277744&#45;&gt;140707205277960</title>
<path fill="none" stroke="black" d="M341.665,-87.9998C346.171,-81.9256 351.093,-74.8244 355,-68 359.063,-60.9041 362.884,-52.9164 366.166,-45.4425"/>
<polygon fill="black" stroke="black" points="369.475,-46.6052 370.145,-36.0316 363.027,-43.8794 369.475,-46.6052"/>
<text text-anchor="middle" x="398.5" y="-58.5" font-family="Times Roman,serif" font-size="10.00">(0101)(011*) ...</text>
</g>
<!-- 140707205278392 -->
<g id="node22" class="node"><title>140707205278392</title>
<polygon fill="none" stroke="black" points="502,-36 448,-36 448,-1.77636e-14 502,-3.55271e-15 502,-36"/>
<text text-anchor="middle" x="475" y="-15.5" font-family="Times Roman,serif" font-size="10.00">deny</text>
</g>
<!-- 140707205278248&#45;&gt;140707205278392 -->
<g id="edge22" class="edge"><title>140707205278248&#45;&gt;140707205278392</title>
<path fill="none" stroke="black" d="M475,-85.7616C475,-74.3597 475,-59.4342 475,-46.494"/>
<polygon fill="black" stroke="black" points="478.5,-46.2121 475,-36.2121 471.5,-46.2121 478.5,-46.2121"/>
<text text-anchor="middle" x="511.5" y="-58.5" font-family="Times Roman,serif" font-size="10.00">(0***)(100*) ...</text>
</g>
<!-- 140707205278464 -->
<g id="node24" class="node"><title>140707205278464</title>
<polygon fill="none" stroke="black" points="598,-36 544,-36 544,-1.77636e-14 598,-3.55271e-15 598,-36"/>
<text text-anchor="middle" x="571" y="-15.5" font-family="Times Roman,serif" font-size="10.00">permit</text>
</g>
<!-- 140707205278248&#45;&gt;140707205278464 -->
<g id="edge24" class="edge"><title>140707205278248&#45;&gt;140707205278464</title>
<path fill="none" stroke="black" d="M500.004,-96.7888C515.778,-91.1479 535.625,-81.8966 549,-68 554.919,-61.8502 559.395,-53.8447 562.712,-46.0484"/>
<polygon fill="black" stroke="black" points="566.08,-47.0325 566.313,-36.4403 559.526,-44.5753 566.08,-47.0325"/>
<text text-anchor="middle" x="589.5" y="-58.5" font-family="Times Roman,serif" font-size="10.00">(101*)(1100)</text>
</g>
<!-- 140707205286080 -->
<g id="node28" class="node"><title>140707205286080</title>
<ellipse fill="none" stroke="black" cx="677" cy="-104" rx="27" ry="18"/>
<text text-anchor="middle" x="677" y="-101.5" font-family="Times Roman,serif" font-size="10.00">ip</text>
</g>
<!-- 140707205285504&#45;&gt;140707205286080 -->
<g id="edge28" class="edge"><title>140707205285504&#45;&gt;140707205286080</title>
<path fill="none" stroke="black" d="M771.005,-176.183C752.636,-162.077 723.936,-140.04 703.077,-124.024"/>
<polygon fill="black" stroke="black" points="705.013,-121.097 694.95,-117.783 700.75,-126.649 705.013,-121.097"/>
<text text-anchor="middle" x="751.5" y="-144.5" font-family="Times Roman,serif" font-size="10.00">(00*)</text>
</g>
<!-- 140707205286728 -->
<g id="node32" class="node"><title>140707205286728</title>
<ellipse fill="none" stroke="black" cx="789" cy="-104" rx="27" ry="18"/>
<text text-anchor="middle" x="789" y="-101.5" font-family="Times Roman,serif" font-size="10.00">ip</text>
</g>
<!-- 140707205285504&#45;&gt;140707205286728 -->
<g id="edge32" class="edge"><title>140707205285504&#45;&gt;140707205286728</title>
<path fill="none" stroke="black" d="M789,-171.762C789,-160.36 789,-145.434 789,-132.494"/>
<polygon fill="black" stroke="black" points="792.5,-132.212 789,-122.212 785.5,-132.212 792.5,-132.212"/>
<text text-anchor="middle" x="801.5" y="-144.5" font-family="Times Roman,serif" font-size="10.00">(01*)</text>
</g>
<!-- 140707205287736 -->
<g id="node38" class="node"><title>140707205287736</title>
<ellipse fill="none" stroke="black" cx="896" cy="-104" rx="27" ry="18"/>
<text text-anchor="middle" x="896" y="-101.5" font-family="Times Roman,serif" font-size="10.00">ip</text>
</g>
<!-- 140707205285504&#45;&gt;140707205287736 -->
<g id="edge38" class="edge"><title>140707205285504&#45;&gt;140707205287736</title>
<path fill="none" stroke="black" d="M806.669,-175.799C824.12,-161.773 850.984,-140.181 870.698,-124.337"/>
<polygon fill="black" stroke="black" points="873.058,-126.93 878.66,-117.937 868.673,-121.474 873.058,-126.93"/>
<text text-anchor="middle" x="873.5" y="-144.5" font-family="Times Roman,serif" font-size="10.00">(10*)(110)</text>
</g>
<!-- 140707205285576 -->
<g id="node44" class="node"><title>140707205285576</title>
<ellipse fill="none" stroke="black" cx="1091" cy="-104" rx="27" ry="18"/>
<text text-anchor="middle" x="1091" y="-101.5" font-family="Times Roman,serif" font-size="10.00">ip</text>
</g>
<!-- 140707205285504&#45;&gt;140707205285576 -->
<g id="edge44" class="edge"><title>140707205285504&#45;&gt;140707205285576</title>
<path fill="none" stroke="black" d="M813.971,-182.889C867.785,-167.564 994.794,-131.396 1056.35,-113.867"/>
<polygon fill="black" stroke="black" points="1057.34,-117.224 1066,-111.119 1055.42,-110.492 1057.34,-117.224"/>
<text text-anchor="middle" x="971" y="-144.5" font-family="Times Roman,serif" font-size="10.00">(111)</text>
</g>
<!-- 140707205287376 -->
<g id="node30" class="node"><title>140707205287376</title>
<polygon fill="none" stroke="black" points="677,-36 623,-36 623,-1.77636e-14 677,-3.55271e-15 677,-36"/>
<text text-anchor="middle" x="650" y="-15.5" font-family="Times Roman,serif" font-size="10.00">permit</text>
</g>
<!-- 140707205286080&#45;&gt;140707205287376 -->
<g id="edge30" class="edge"><title>140707205286080&#45;&gt;140707205287376</title>
<path fill="none" stroke="black" d="M670.392,-86.5105C668.259,-80.657 665.945,-74.0756 664,-68 661.721,-60.8809 659.45,-53.1277 657.42,-45.8982"/>
<polygon fill="black" stroke="black" points="660.765,-44.8597 654.736,-36.1472 654.016,-46.7175 660.765,-44.8597"/>
<text text-anchor="middle" x="678.5" y="-58.5" font-family="Times Roman,serif" font-size="10.00">(****)</text>
</g>
<!-- 140707205287592 -->
<g id="node34" class="node"><title>140707205287592</title>
<polygon fill="none" stroke="black" points="749,-36 695,-36 695,-1.77636e-14 749,-3.55271e-15 749,-36"/>
<text text-anchor="middle" x="722" y="-15.5" font-family="Times Roman,serif" font-size="10.00">permit</text>
</g>
<!-- 140707205286728&#45;&gt;140707205287592 -->
<g id="edge34" class="edge"><title>140707205286728&#45;&gt;140707205287592</title>
<path fill="none" stroke="black" d="M763.703,-97.4933C748.745,-92.2015 731.012,-83.0735 722,-68 718.185,-61.6194 716.923,-53.9122 716.932,-46.4801"/>
<polygon fill="black" stroke="black" points="720.436,-46.5477 717.658,-36.3235 713.454,-46.0484 720.436,-46.5477"/>
<text text-anchor="middle" x="758" y="-58.5" font-family="Times Roman,serif" font-size="10.00">(0***)(10**) ...</text>
</g>
<!-- 140707205286800 -->
<g id="node36" class="node"><title>140707205286800</title>
<polygon fill="none" stroke="black" points="837,-36 783,-36 783,-1.77636e-14 837,-3.55271e-15 837,-36"/>
<text text-anchor="middle" x="810" y="-15.5" font-family="Times Roman,serif" font-size="10.00">deny</text>
</g>
<!-- 140707205286728&#45;&gt;140707205286800 -->
<g id="edge36" class="edge"><title>140707205286728&#45;&gt;140707205286800</title>
<path fill="none" stroke="black" d="M793.351,-86.1807C796.176,-74.612 799.918,-59.2888 803.138,-46.0997"/>
<polygon fill="black" stroke="black" points="806.61,-46.6372 805.582,-36.0923 799.81,-44.9766 806.61,-46.6372"/>
<text text-anchor="middle" x="831.5" y="-58.5" font-family="Times Roman,serif" font-size="10.00">(1101)(111*)</text>
</g>
<!-- 140707205287880 -->
<g id="node40" class="node"><title>140707205287880</title>
<polygon fill="none" stroke="black" points="923,-36 869,-36 869,-1.77636e-14 923,-3.55271e-15 923,-36"/>
<text text-anchor="middle" x="896" y="-15.5" font-family="Times Roman,serif" font-size="10.00">permit</text>
</g>
<!-- 140707205287736&#45;&gt;140707205287880 -->
<g id="edge40" class="edge"><title>140707205287736&#45;&gt;140707205287880</title>
<path fill="none" stroke="black" d="M896,-85.7616C896,-74.3597 896,-59.4342 896,-46.494"/>
<polygon fill="black" stroke="black" points="899.5,-46.2121 896,-36.2121 892.5,-46.2121 899.5,-46.2121"/>
<text text-anchor="middle" x="933" y="-58.5" font-family="Times Roman,serif" font-size="10.00">(00**)(0100) ...</text>
</g>
<!-- 140707205287808 -->
<g id="node42" class="node"><title>140707205287808</title>
<polygon fill="none" stroke="black" points="1020,-36 966,-36 966,-1.77636e-14 1020,-3.55271e-15 1020,-36"/>
<text text-anchor="middle" x="993" y="-15.5" font-family="Times Roman,serif" font-size="10.00">deny</text>
</g>
<!-- 140707205287736&#45;&gt;140707205287808 -->
<g id="edge42" class="edge"><title>140707205287736&#45;&gt;140707205287808</title>
<path fill="none" stroke="black" d="M920.986,-96.9908C937.028,-91.3947 957.342,-82.1168 971,-68 976.935,-61.8658 981.416,-53.8649 984.732,-46.068"/>
<polygon fill="black" stroke="black" points="988.102,-47.0492 988.331,-36.4569 981.546,-44.5946 988.102,-47.0492"/>
<text text-anchor="middle" x="1017.5" y="-58.5" font-family="Times Roman,serif" font-size="10.00">(0101)(011*) ...</text>
</g>
<!-- 140707205285936 -->
<g id="node46" class="node"><title>140707205285936</title>
<polygon fill="none" stroke="black" points="1118,-36 1064,-36 1064,-1.77636e-14 1118,-3.55271e-15 1118,-36"/>
<text text-anchor="middle" x="1091" y="-15.5" font-family="Times Roman,serif" font-size="10.00">deny</text>
</g>
<!-- 140707205285576&#45;&gt;140707205285936 -->
<g id="edge46" class="edge"><title>140707205285576&#45;&gt;140707205285936</title>
<path fill="none" stroke="black" d="M1091,-85.7616C1091,-74.3597 1091,-59.4342 1091,-46.494"/>
<polygon fill="black" stroke="black" points="1094.5,-46.2121 1091,-36.2121 1087.5,-46.2121 1094.5,-46.2121"/>
<text text-anchor="middle" x="1127.5" y="-58.5" font-family="Times Roman,serif" font-size="10.00">(0***)(100*) ...</text>
</g>
<!-- 140707205276448 -->
<g id="node48" class="node"><title>140707205276448</title>
<polygon fill="none" stroke="black" points="1214,-36 1160,-36 1160,-1.77636e-14 1214,-3.55271e-15 1214,-36"/>
<text text-anchor="middle" x="1187" y="-15.5" font-family="Times Roman,serif" font-size="10.00">permit</text>
</g>
<!-- 140707205285576&#45;&gt;140707205276448 -->
<g id="edge48" class="edge"><title>140707205285576&#45;&gt;140707205276448</title>
<path fill="none" stroke="black" d="M1116,-96.7888C1131.78,-91.1479 1151.63,-81.8966 1165,-68 1170.92,-61.8502 1175.4,-53.8447 1178.71,-46.0484"/>
<polygon fill="black" stroke="black" points="1182.08,-47.0325 1182.31,-36.4403 1175.53,-44.5753 1182.08,-47.0325"/>
<text text-anchor="middle" x="1205.5" y="-58.5" font-family="Times Roman,serif" font-size="10.00">(101*)(1100)</text>
</g>
</g>
</svg>
