<?xml version="1.0" encoding="UTF-8" standalone="no"?>
<!DOCTYPE svg PUBLIC "-//W3C//DTD SVG 1.1//EN"
 "http://www.w3.org/Graphics/SVG/1.1/DTD/svg11.dtd">
<!-- Generated by graphviz version 2.26.3 (20100126.1600)
 -->
<!-- Title: _anonymous_0 Pages: 1 -->
<svg width="762pt" height="302pt"
 viewBox="0.00 0.00 762.00 302.00" xmlns="http://www.w3.org/2000/svg" xmlns:xlink="http://www.w3.org/1999/xlink">
<g id="graph1" class="graph" transform="scale(1 1) rotate(0) translate(4 298)">
<title>_anonymous_0</title>
<polygon fill="white" stroke="white" points="-4,5 -4,-298 759,-298 759,5 -4,5"/>
<!-- 140707205287592 -->
<g id="node1" class="node"><title>140707205287592</title>
<ellipse fill="none" stroke="black" cx="154" cy="-276" rx="27" ry="18"/>
<text text-anchor="middle" x="154" y="-273.5" font-family="Times Roman,serif" font-size="10.00">protocol</text>
</g>
<!-- 140707205285576 -->
<g id="node2" class="node"><title>140707205285576</title>
<ellipse fill="none" stroke="black" cx="61" cy="-190" rx="27" ry="18"/>
<text text-anchor="middle" x="61" y="-187.5" font-family="Times Roman,serif" font-size="10.00">port</text>
</g>
<!-- 140707205287592&#45;&gt;140707205285576 -->
<g id="edge2" class="edge"><title>140707205287592&#45;&gt;140707205285576</title>
<path fill="none" stroke="black" d="M137.801,-261.02C123.132,-247.455 101.337,-227.301 84.708,-211.924"/>
<polygon fill="black" stroke="black" points="86.732,-209.028 77.0137,-204.808 81.9794,-214.167 86.732,-209.028"/>
<text text-anchor="middle" x="124" y="-230.5" font-family="Times Roman,serif" font-size="10.00">(00)</text>
</g>
<!-- 140707205280760 -->
<g id="node8" class="node"><title>140707205280760</title>
<ellipse fill="none" stroke="black" cx="154" cy="-190" rx="27" ry="18"/>
<text text-anchor="middle" x="154" y="-187.5" font-family="Times Roman,serif" font-size="10.00">port</text>
</g>
<!-- 140707205287592&#45;&gt;140707205280760 -->
<g id="edge8" class="edge"><title>140707205287592&#45;&gt;140707205280760</title>
<path fill="none" stroke="black" d="M154,-257.762C154,-246.36 154,-231.434 154,-218.494"/>
<polygon fill="black" stroke="black" points="157.5,-218.212 154,-208.212 150.5,-218.212 157.5,-218.212"/>
<text text-anchor="middle" x="174" y="-230.5" font-family="Times Roman,serif" font-size="10.00">(01)(10)</text>
</g>
<!-- 140707205286800 -->
<g id="node20" class="node"><title>140707205286800</title>
<ellipse fill="none" stroke="black" cx="397" cy="-190" rx="27" ry="18"/>
<text text-anchor="middle" x="397" y="-187.5" font-family="Times Roman,serif" font-size="10.00">port</text>
</g>
<!-- 140707205287592&#45;&gt;140707205286800 -->
<g id="edge20" class="edge"><title>140707205287592&#45;&gt;140707205286800</title>
<path fill="none" stroke="black" d="M178.188,-267.44C221.764,-252.018 313.535,-219.539 363.261,-201.941"/>
<polygon fill="black" stroke="black" points="364.65,-205.162 372.91,-198.526 362.315,-198.563 364.65,-205.162"/>
<text text-anchor="middle" x="300" y="-230.5" font-family="Times Roman,serif" font-size="10.00">(11)</text>
</g>
<!-- 140707205282560 -->
<g id="node4" class="node"><title>140707205282560</title>
<ellipse fill="none" stroke="black" cx="27" cy="-104" rx="27" ry="18"/>
<text text-anchor="middle" x="27" y="-101.5" font-family="Times Roman,serif" font-size="10.00">ip</text>
</g>
<!-- 140707205285576&#45;&gt;140707205282560 -->
<g id="edge4" class="edge"><title>140707205285576&#45;&gt;140707205282560</title>
<path fill="none" stroke="black" d="M53.9552,-172.181C49.2742,-160.341 43.0385,-144.568 37.7437,-131.175"/>
<polygon fill="black" stroke="black" points="40.851,-129.515 33.9195,-121.502 34.3413,-132.089 40.851,-129.515"/>
<text text-anchor="middle" x="59" y="-144.5" font-family="Times Roman,serif" font-size="10.00">(***)</text>
</g>
<!-- 140707205281336 -->
<g id="node6" class="node"><title>140707205281336</title>
<polygon fill="none" stroke="black" points="54,-36 2.13163e-14,-36 0,-1.77636e-14 54,-3.55271e-15 54,-36"/>
<text text-anchor="middle" x="27" y="-15.5" font-family="Times Roman,serif" font-size="10.00">deny</text>
</g>
<!-- 140707205282560&#45;&gt;140707205281336 -->
<g id="edge6" class="edge"><title>140707205282560&#45;&gt;140707205281336</title>
<path fill="none" stroke="black" d="M27,-85.7616C27,-74.3597 27,-59.4342 27,-46.494"/>
<polygon fill="black" stroke="black" points="30.5001,-46.2121 27,-36.2121 23.5001,-46.2121 30.5001,-46.2121"/>
<text text-anchor="middle" x="41.5" y="-58.5" font-family="Times Roman,serif" font-size="10.00">(****)</text>
</g>
<!-- 140707205309360 -->
<g id="node10" class="node"><title>140707205309360</title>
<ellipse fill="none" stroke="black" cx="99" cy="-104" rx="27" ry="18"/>
<text text-anchor="middle" x="99" y="-101.5" font-family="Times Roman,serif" font-size="10.00">ip</text>
</g>
<!-- 140707205280760&#45;&gt;140707205309360 -->
<g id="edge10" class="edge"><title>140707205280760&#45;&gt;140707205309360</title>
<path fill="none" stroke="black" d="M131.055,-180.486C119.936,-174.595 107.59,-165.863 101,-154 97.3871,-147.496 95.9676,-139.748 95.6784,-132.316"/>
<polygon fill="black" stroke="black" points="99.1805,-132.261 95.9112,-122.183 92.1823,-132.1 99.1805,-132.261"/>
<text text-anchor="middle" x="132" y="-144.5" font-family="Times Roman,serif" font-size="10.00">(0**)(101) ...</text>
</g>
<!-- 140707205281840 -->
<g id="node14" class="node"><title>140707205281840</title>
<ellipse fill="none" stroke="black" cx="184" cy="-104" rx="27" ry="18"/>
<text text-anchor="middle" x="184" y="-101.5" font-family="Times Roman,serif" font-size="10.00">ip</text>
</g>
<!-- 140707205280760&#45;&gt;140707205281840 -->
<g id="edge14" class="edge"><title>140707205280760&#45;&gt;140707205281840</title>
<path fill="none" stroke="black" d="M160.216,-172.181C164.319,-160.419 169.776,-144.777 174.427,-131.442"/>
<polygon fill="black" stroke="black" points="177.803,-132.391 177.792,-121.796 171.193,-130.086 177.803,-132.391"/>
<text text-anchor="middle" x="183" y="-144.5" font-family="Times Roman,serif" font-size="10.00">(100)</text>
</g>
<!-- 140707205311304 -->
<g id="node12" class="node"><title>140707205311304</title>
<polygon fill="none" stroke="black" points="126,-36 72,-36 72,-1.77636e-14 126,-3.55271e-15 126,-36"/>
<text text-anchor="middle" x="99" y="-15.5" font-family="Times Roman,serif" font-size="10.00">deny</text>
</g>
<!-- 140707205309360&#45;&gt;140707205311304 -->
<g id="edge12" class="edge"><title>140707205309360&#45;&gt;140707205311304</title>
<path fill="none" stroke="black" d="M99,-85.7616C99,-74.3597 99,-59.4342 99,-46.494"/>
<polygon fill="black" stroke="black" points="102.5,-46.2121 99,-36.2121 95.5001,-46.2121 102.5,-46.2121"/>
<text text-anchor="middle" x="113.5" y="-58.5" font-family="Times Roman,serif" font-size="10.00">(****)</text>
</g>
<!-- 140707205289312 -->
<g id="node16" class="node"><title>140707205289312</title>
<polygon fill="none" stroke="black" points="198,-36 144,-36 144,-1.77636e-14 198,-3.55271e-15 198,-36"/>
<text text-anchor="middle" x="171" y="-15.5" font-family="Times Roman,serif" font-size="10.00">permit</text>
</g>
<!-- 140707205281840&#45;&gt;140707205289312 -->
<g id="edge16" class="edge"><title>140707205281840&#45;&gt;140707205289312</title>
<path fill="none" stroke="black" d="M176.931,-86.3282C174.951,-80.5774 173.053,-74.1026 172,-68 170.79,-60.9869 170.252,-53.3387 170.08,-46.1812"/>
<polygon fill="black" stroke="black" points="173.58,-46.1678 170.055,-36.1768 166.58,-46.1858 173.58,-46.1678"/>
<text text-anchor="middle" x="203" y="-58.5" font-family="Times Roman,serif" font-size="10.00">(00**)(0100)</text>
</g>
<!-- 140707205283640 -->
<g id="node18" class="node"><title>140707205283640</title>
<polygon fill="none" stroke="black" points="283,-36 229,-36 229,-1.77636e-14 283,-3.55271e-15 283,-36"/>
<text text-anchor="middle" x="256" y="-15.5" font-family="Times Roman,serif" font-size="10.00">deny</text>
</g>
<!-- 140707205281840&#45;&gt;140707205283640 -->
<g id="edge18" class="edge"><title>140707205281840&#45;&gt;140707205283640</title>
<path fill="none" stroke="black" d="M204.999,-92.4463C214.813,-86.2243 226.057,-77.8093 234,-68 239.287,-61.4703 243.55,-53.4718 246.864,-45.8032"/>
<polygon fill="black" stroke="black" points="250.158,-46.9887 250.56,-36.4015 243.644,-44.4277 250.158,-46.9887"/>
<text text-anchor="middle" x="279.5" y="-58.5" font-family="Times Roman,serif" font-size="10.00">(0101)(011*) ...</text>
</g>
<!-- 140707205288448 -->
<g id="node22" class="node"><title>140707205288448</title>
<ellipse fill="none" stroke="black" cx="354" cy="-104" rx="27" ry="18"/>
<text text-anchor="middle" x="354" y="-101.5" font-family="Times Roman,serif" font-size="10.00">ip</text>
</g>
<!-- 140707205286800&#45;&gt;140707205288448 -->
<g id="edge22" class="edge"><title>140707205286800&#45;&gt;140707205288448</title>
<path fill="none" stroke="black" d="M376.442,-177.875C368.205,-171.833 359.592,-163.727 355,-154 351.826,-147.276 350.663,-139.455 350.522,-132.024"/>
<polygon fill="black" stroke="black" points="354.023,-132.056 350.899,-121.933 347.028,-131.795 354.023,-132.056"/>
<text text-anchor="middle" x="386.5" y="-144.5" font-family="Times Roman,serif" font-size="10.00">(00*)(101) ...</text>
</g>
<!-- 140707205287736 -->
<g id="node26" class="node"><title>140707205287736</title>
<ellipse fill="none" stroke="black" cx="440" cy="-104" rx="27" ry="18"/>
<text text-anchor="middle" x="440" y="-101.5" font-family="Times Roman,serif" font-size="10.00">ip</text>
</g>
<!-- 140707205286800&#45;&gt;140707205287736 -->
<g id="edge26" class="edge"><title>140707205286800&#45;&gt;140707205287736</title>
<path fill="none" stroke="black" d="M407.445,-173.008C410.948,-167.074 414.78,-160.318 418,-154 421.713,-146.715 425.42,-138.665 428.704,-131.193"/>
<polygon fill="black" stroke="black" points="432.002,-132.383 432.743,-121.814 425.573,-129.614 432.002,-132.383"/>
<text text-anchor="middle" x="436.5" y="-144.5" font-family="Times Roman,serif" font-size="10.00">(01*)</text>
</g>
<!-- 140707205286008 -->
<g id="node32" class="node"><title>140707205286008</title>
<ellipse fill="none" stroke="black" cx="594" cy="-104" rx="27" ry="18"/>
<text text-anchor="middle" x="594" y="-101.5" font-family="Times Roman,serif" font-size="10.00">ip</text>
</g>
<!-- 140707205286800&#45;&gt;140707205286008 -->
<g id="edge32" class="edge"><title>140707205286800&#45;&gt;140707205286008</title>
<path fill="none" stroke="black" d="M419.598,-180.135C454.611,-164.85 522.089,-135.393 562.068,-117.94"/>
<polygon fill="black" stroke="black" points="563.598,-121.091 571.363,-113.882 560.797,-114.676 563.598,-121.091"/>
<text text-anchor="middle" x="520" y="-144.5" font-family="Times Roman,serif" font-size="10.00">(100)</text>
</g>
<!-- 140707205290032 -->
<g id="node24" class="node"><title>140707205290032</title>
<polygon fill="none" stroke="black" points="381,-36 327,-36 327,-1.77636e-14 381,-3.55271e-15 381,-36"/>
<text text-anchor="middle" x="354" y="-15.5" font-family="Times Roman,serif" font-size="10.00">deny</text>
</g>
<!-- 140707205288448&#45;&gt;140707205290032 -->
<g id="edge24" class="edge"><title>140707205288448&#45;&gt;140707205290032</title>
<path fill="none" stroke="black" d="M354,-85.7616C354,-74.3597 354,-59.4342 354,-46.494"/>
<polygon fill="black" stroke="black" points="357.5,-46.2121 354,-36.2121 350.5,-46.2121 357.5,-46.2121"/>
<text text-anchor="middle" x="368.5" y="-58.5" font-family="Times Roman,serif" font-size="10.00">(****)</text>
</g>
<!-- 140707205289384 -->
<g id="node28" class="node"><title>140707205289384</title>
<polygon fill="none" stroke="black" points="453,-36 399,-36 399,-1.77636e-14 453,-3.55271e-15 453,-36"/>
<text text-anchor="middle" x="426" y="-15.5" font-family="Times Roman,serif" font-size="10.00">deny</text>
</g>
<!-- 140707205287736&#45;&gt;140707205289384 -->
<g id="edge28" class="edge"><title>140707205287736&#45;&gt;140707205289384</title>
<path fill="none" stroke="black" d="M432.339,-86.3752C430.193,-80.6269 428.138,-74.1417 427,-68 425.703,-61.0024 425.134,-53.3599 424.96,-46.2028"/>
<polygon fill="black" stroke="black" points="428.46,-46.1917 424.948,-36.1958 421.46,-46.1998 428.46,-46.1917"/>
<text text-anchor="middle" x="463.5" y="-58.5" font-family="Times Roman,serif" font-size="10.00">(00**)(010*) ...</text>
</g>
<!-- 140707205320784 -->
<g id="node30" class="node"><title>140707205320784</title>
<polygon fill="none" stroke="black" points="549,-36 495,-36 495,-1.77636e-14 549,-3.55271e-15 549,-36"/>
<text text-anchor="middle" x="522" y="-15.5" font-family="Times Roman,serif" font-size="10.00">permit</text>
</g>
<!-- 140707205287736&#45;&gt;140707205320784 -->
<g id="edge30" class="edge"><title>140707205287736&#45;&gt;140707205320784</title>
<path fill="none" stroke="black" d="M463.167,-94.3161C475.419,-88.2416 489.96,-79.3915 500,-68 505.644,-61.5969 510.038,-53.5161 513.365,-45.7287"/>
<polygon fill="black" stroke="black" points="516.717,-46.7605 517.02,-36.17 510.179,-44.2601 516.717,-46.7605"/>
<text text-anchor="middle" x="524.5" y="-58.5" font-family="Times Roman,serif" font-size="10.00">(011*)</text>
</g>
<!-- 140707205290464 -->
<g id="node34" class="node"><title>140707205290464</title>
<polygon fill="none" stroke="black" points="621,-36 567,-36 567,-1.77636e-14 621,-3.55271e-15 621,-36"/>
<text text-anchor="middle" x="594" y="-15.5" font-family="Times Roman,serif" font-size="10.00">permit</text>
</g>
<!-- 140707205286008&#45;&gt;140707205290464 -->
<g id="edge34" class="edge"><title>140707205286008&#45;&gt;140707205290464</title>
<path fill="none" stroke="black" d="M594,-85.7616C594,-74.3597 594,-59.4342 594,-46.494"/>
<polygon fill="black" stroke="black" points="597.5,-46.2121 594,-36.2121 590.5,-46.2121 597.5,-46.2121"/>
<text text-anchor="middle" x="631" y="-58.5" font-family="Times Roman,serif" font-size="10.00">(00**)(0100) ...</text>
</g>
<!-- 140707205287376 -->
<g id="node36" class="node"><title>140707205287376</title>
<polygon fill="none" stroke="black" points="718,-36 664,-36 664,-1.77636e-14 718,-3.55271e-15 718,-36"/>
<text text-anchor="middle" x="691" y="-15.5" font-family="Times Roman,serif" font-size="10.00">deny</text>
</g>
<!-- 140707205286008&#45;&gt;140707205287376 -->
<g id="edge36" class="edge"><title>140707205286008&#45;&gt;140707205287376</title>
<path fill="none" stroke="black" d="M618.986,-96.9908C635.028,-91.3947 655.342,-82.1168 669,-68 674.935,-61.8658 679.416,-53.8649 682.732,-46.068"/>
<polygon fill="black" stroke="black" points="686.102,-47.0492 686.331,-36.4569 679.546,-44.5946 686.102,-47.0492"/>
<text text-anchor="middle" x="716" y="-58.5" font-family="Times Roman,serif" font-size="10.00">(0101)(1101) ...</text>
</g>
</g>
</svg>
