<?xml version="1.0" encoding="UTF-8" standalone="no"?>
<!DOCTYPE svg PUBLIC "-//W3C//DTD SVG 1.1//EN"
 "http://www.w3.org/Graphics/SVG/1.1/DTD/svg11.dtd">
<!-- Generated by graphviz version 2.26.3 (20100126.1600)
 -->
<!-- Title: _anonymous_0 Pages: 1 -->
<svg width="654pt" height="302pt"
 viewBox="0.00 0.00 654.00 302.00" xmlns="http://www.w3.org/2000/svg" xmlns:xlink="http://www.w3.org/1999/xlink">
<g id="graph1" class="graph" transform="scale(1 1) rotate(0) translate(4 298)">
<title>_anonymous_0</title>
<polygon fill="white" stroke="white" points="-4,5 -4,-298 651,-298 651,5 -4,5"/>
<!-- 140429180954960 -->
<g id="node1" class="node"><title>140429180954960</title>
<ellipse fill="none" stroke="black" cx="149" cy="-276" rx="27" ry="18"/>
<text text-anchor="middle" x="149" y="-273.5" font-family="Times Roman,serif" font-size="10.00">protocol</text>
</g>
<!-- 140429180945760 -->
<g id="node2" class="node"><title>140429180945760</title>
<ellipse fill="none" stroke="black" cx="59" cy="-190" rx="27" ry="18"/>
<text text-anchor="middle" x="59" y="-187.5" font-family="Times Roman,serif" font-size="10.00">port</text>
</g>
<!-- 140429180954960&#45;&gt;140429180945760 -->
<g id="edge2" class="edge"><title>140429180954960&#45;&gt;140429180945760</title>
<path fill="none" stroke="black" d="M133.323,-261.02C119.127,-247.455 98.0354,-227.301 81.9432,-211.924"/>
<polygon fill="black" stroke="black" points="84.1451,-209.187 74.4972,-204.808 79.3091,-214.247 84.1451,-209.187"/>
<text text-anchor="middle" x="122" y="-230.5" font-family="Times Roman,serif" font-size="10.00">(0&#45;0)</text>
</g>
<!-- 140429180957400 -->
<g id="node8" class="node"><title>140429180957400</title>
<ellipse fill="none" stroke="black" cx="149" cy="-190" rx="27" ry="18"/>
<text text-anchor="middle" x="149" y="-187.5" font-family="Times Roman,serif" font-size="10.00">port</text>
</g>
<!-- 140429180954960&#45;&gt;140429180957400 -->
<g id="edge8" class="edge"><title>140429180954960&#45;&gt;140429180957400</title>
<path fill="none" stroke="black" d="M149,-257.762C149,-246.36 149,-231.434 149,-218.494"/>
<polygon fill="black" stroke="black" points="152.5,-218.212 149,-208.212 145.5,-218.212 152.5,-218.212"/>
<text text-anchor="middle" x="161" y="-230.5" font-family="Times Roman,serif" font-size="10.00">(1&#45;2)</text>
</g>
<!-- 140429180953448 -->
<g id="node20" class="node"><title>140429180953448</title>
<ellipse fill="none" stroke="black" cx="350" cy="-190" rx="27" ry="18"/>
<text text-anchor="middle" x="350" y="-187.5" font-family="Times Roman,serif" font-size="10.00">port</text>
</g>
<!-- 140429180954960&#45;&gt;140429180953448 -->
<g id="edge20" class="edge"><title>140429180954960&#45;&gt;140429180953448</title>
<path fill="none" stroke="black" d="M172.057,-266.135C207.952,-250.777 277.288,-221.11 318.003,-203.69"/>
<polygon fill="black" stroke="black" points="319.395,-206.902 327.212,-199.75 316.641,-200.466 319.395,-206.902"/>
<text text-anchor="middle" x="273" y="-230.5" font-family="Times Roman,serif" font-size="10.00">(3&#45;3)</text>
</g>
<!-- 140429180949568 -->
<g id="node4" class="node"><title>140429180949568</title>
<ellipse fill="none" stroke="black" cx="27" cy="-104" rx="27" ry="18"/>
<text text-anchor="middle" x="27" y="-101.5" font-family="Times Roman,serif" font-size="10.00">ip</text>
</g>
<!-- 140429180945760&#45;&gt;140429180949568 -->
<g id="edge4" class="edge"><title>140429180945760&#45;&gt;140429180949568</title>
<path fill="none" stroke="black" d="M52.3696,-172.181C47.964,-160.341 42.095,-144.568 37.1117,-131.175"/>
<polygon fill="black" stroke="black" points="40.2801,-129.654 33.5124,-121.502 33.7196,-132.095 40.2801,-129.654"/>
<text text-anchor="middle" x="57" y="-144.5" font-family="Times Roman,serif" font-size="10.00">(0&#45;7)</text>
</g>
<!-- 140429180957832 -->
<g id="node6" class="node"><title>140429180957832</title>
<polygon fill="none" stroke="black" points="54,-36 2.13163e-14,-36 0,-1.77636e-14 54,-3.55271e-15 54,-36"/>
<text text-anchor="middle" x="27" y="-15.5" font-family="Times Roman,serif" font-size="10.00">deny</text>
</g>
<!-- 140429180949568&#45;&gt;140429180957832 -->
<g id="edge6" class="edge"><title>140429180949568&#45;&gt;140429180957832</title>
<path fill="none" stroke="black" d="M27,-85.7616C27,-74.3597 27,-59.4342 27,-46.494"/>
<polygon fill="black" stroke="black" points="30.5001,-46.2121 27,-36.2121 23.5001,-46.2121 30.5001,-46.2121"/>
<text text-anchor="middle" x="42" y="-58.5" font-family="Times Roman,serif" font-size="10.00">(0&#45;15)</text>
</g>
<!-- 140429180957976 -->
<g id="node10" class="node"><title>140429180957976</title>
<ellipse fill="none" stroke="black" cx="99" cy="-104" rx="27" ry="18"/>
<text text-anchor="middle" x="99" y="-101.5" font-family="Times Roman,serif" font-size="10.00">ip</text>
</g>
<!-- 140429180957400&#45;&gt;140429180957976 -->
<g id="edge10" class="edge"><title>140429180957400&#45;&gt;140429180957976</title>
<path fill="none" stroke="black" d="M129.071,-177.551C120.951,-171.449 112.255,-163.385 107,-154 103.322,-147.431 101.21,-139.661 100.027,-132.23"/>
<polygon fill="black" stroke="black" points="103.486,-131.664 98.9074,-122.109 96.528,-132.433 103.486,-131.664"/>
<text text-anchor="middle" x="130.5" y="-144.5" font-family="Times Roman,serif" font-size="10.00">(0&#45;3)(5&#45;7)</text>
</g>
<!-- 140429180957256 -->
<g id="node14" class="node"><title>140429180957256</title>
<ellipse fill="none" stroke="black" cx="171" cy="-104" rx="27" ry="18"/>
<text text-anchor="middle" x="171" y="-101.5" font-family="Times Roman,serif" font-size="10.00">ip</text>
</g>
<!-- 140429180957400&#45;&gt;140429180957256 -->
<g id="edge14" class="edge"><title>140429180957400&#45;&gt;140429180957256</title>
<path fill="none" stroke="black" d="M153.558,-172.181C156.538,-160.534 160.49,-145.083 163.88,-131.834"/>
<polygon fill="black" stroke="black" points="167.36,-132.352 166.447,-121.796 160.578,-130.617 167.36,-132.352"/>
<text text-anchor="middle" x="173" y="-144.5" font-family="Times Roman,serif" font-size="10.00">(4&#45;4)</text>
</g>
<!-- 140429180958048 -->
<g id="node12" class="node"><title>140429180958048</title>
<polygon fill="none" stroke="black" points="126,-36 72,-36 72,-1.77636e-14 126,-3.55271e-15 126,-36"/>
<text text-anchor="middle" x="99" y="-15.5" font-family="Times Roman,serif" font-size="10.00">deny</text>
</g>
<!-- 140429180957976&#45;&gt;140429180958048 -->
<g id="edge12" class="edge"><title>140429180957976&#45;&gt;140429180958048</title>
<path fill="none" stroke="black" d="M99,-85.7616C99,-74.3597 99,-59.4342 99,-46.494"/>
<polygon fill="black" stroke="black" points="102.5,-46.2121 99,-36.2121 95.5001,-46.2121 102.5,-46.2121"/>
<text text-anchor="middle" x="114" y="-58.5" font-family="Times Roman,serif" font-size="10.00">(0&#45;15)</text>
</g>
<!-- 140429180958408 -->
<g id="node16" class="node"><title>140429180958408</title>
<polygon fill="none" stroke="black" points="198,-36 144,-36 144,-1.77636e-14 198,-3.55271e-15 198,-36"/>
<text text-anchor="middle" x="171" y="-15.5" font-family="Times Roman,serif" font-size="10.00">permit</text>
</g>
<!-- 140429180957256&#45;&gt;140429180958408 -->
<g id="edge16" class="edge"><title>140429180957256&#45;&gt;140429180958408</title>
<path fill="none" stroke="black" d="M171,-85.7616C171,-74.3597 171,-59.4342 171,-46.494"/>
<polygon fill="black" stroke="black" points="174.5,-46.2121 171,-36.2121 167.5,-46.2121 174.5,-46.2121"/>
<text text-anchor="middle" x="183" y="-58.5" font-family="Times Roman,serif" font-size="10.00">(0&#45;4)</text>
</g>
<!-- 140429180957616 -->
<g id="node18" class="node"><title>140429180957616</title>
<polygon fill="none" stroke="black" points="270,-36 216,-36 216,-1.77636e-14 270,-3.55271e-15 270,-36"/>
<text text-anchor="middle" x="243" y="-15.5" font-family="Times Roman,serif" font-size="10.00">deny</text>
</g>
<!-- 140429180957256&#45;&gt;140429180957616 -->
<g id="edge18" class="edge"><title>140429180957256&#45;&gt;140429180957616</title>
<path fill="none" stroke="black" d="M184.206,-88.2263C194.523,-75.9035 209.082,-58.5129 221.131,-44.1209"/>
<polygon fill="black" stroke="black" points="224.149,-45.969 227.885,-36.0546 218.781,-41.4754 224.149,-45.969"/>
<text text-anchor="middle" x="226" y="-58.5" font-family="Times Roman,serif" font-size="10.00">(5&#45;15)</text>
</g>
<!-- 140429180958480 -->
<g id="node22" class="node"><title>140429180958480</title>
<ellipse fill="none" stroke="black" cx="315" cy="-104" rx="27" ry="18"/>
<text text-anchor="middle" x="315" y="-101.5" font-family="Times Roman,serif" font-size="10.00">ip</text>
</g>
<!-- 140429180953448&#45;&gt;140429180958480 -->
<g id="edge22" class="edge"><title>140429180953448&#45;&gt;140429180958480</title>
<path fill="none" stroke="black" d="M332.815,-175.963C326.671,-169.909 320.425,-162.309 317,-154 314.242,-147.308 313.067,-139.677 312.737,-132.425"/>
<polygon fill="black" stroke="black" points="316.238,-132.24 312.773,-122.228 309.238,-132.215 316.238,-132.24"/>
<text text-anchor="middle" x="340.5" y="-144.5" font-family="Times Roman,serif" font-size="10.00">(0&#45;1)(5&#45;7)</text>
</g>
<!-- 140429180959128 -->
<g id="node26" class="node"><title>140429180959128</title>
<ellipse fill="none" stroke="black" cx="387" cy="-104" rx="27" ry="18"/>
<text text-anchor="middle" x="387" y="-101.5" font-family="Times Roman,serif" font-size="10.00">ip</text>
</g>
<!-- 140429180953448&#45;&gt;140429180959128 -->
<g id="edge26" class="edge"><title>140429180953448&#45;&gt;140429180959128</title>
<path fill="none" stroke="black" d="M357.488,-172.597C362.653,-160.59 369.62,-144.398 375.487,-130.76"/>
<polygon fill="black" stroke="black" points="378.787,-131.947 379.524,-121.378 372.356,-129.18 378.787,-131.947"/>
<text text-anchor="middle" x="382" y="-144.5" font-family="Times Roman,serif" font-size="10.00">(2&#45;3)</text>
</g>
<!-- 140429180955968 -->
<g id="node32" class="node"><title>140429180955968</title>
<ellipse fill="none" stroke="black" cx="535" cy="-104" rx="27" ry="18"/>
<text text-anchor="middle" x="535" y="-101.5" font-family="Times Roman,serif" font-size="10.00">ip</text>
</g>
<!-- 140429180953448&#45;&gt;140429180955968 -->
<g id="edge32" class="edge"><title>140429180953448&#45;&gt;140429180955968</title>
<path fill="none" stroke="black" d="M372.315,-179.626C404.956,-164.453 465.883,-136.13 503.203,-118.781"/>
<polygon fill="black" stroke="black" points="505.013,-121.8 512.606,-114.41 502.062,-115.452 505.013,-121.8"/>
<text text-anchor="middle" x="465" y="-144.5" font-family="Times Roman,serif" font-size="10.00">(4&#45;4)</text>
</g>
<!-- 140429180958552 -->
<g id="node24" class="node"><title>140429180958552</title>
<polygon fill="none" stroke="black" points="342,-36 288,-36 288,-1.77636e-14 342,-3.55271e-15 342,-36"/>
<text text-anchor="middle" x="315" y="-15.5" font-family="Times Roman,serif" font-size="10.00">deny</text>
</g>
<!-- 140429180958480&#45;&gt;140429180958552 -->
<g id="edge24" class="edge"><title>140429180958480&#45;&gt;140429180958552</title>
<path fill="none" stroke="black" d="M315,-85.7616C315,-74.3597 315,-59.4342 315,-46.494"/>
<polygon fill="black" stroke="black" points="318.5,-46.2121 315,-36.2121 311.5,-46.2121 318.5,-46.2121"/>
<text text-anchor="middle" x="330" y="-58.5" font-family="Times Roman,serif" font-size="10.00">(0&#45;15)</text>
</g>
<!-- 140429180959488 -->
<g id="node28" class="node"><title>140429180959488</title>
<polygon fill="none" stroke="black" points="414,-36 360,-36 360,-1.77636e-14 414,-3.55271e-15 414,-36"/>
<text text-anchor="middle" x="387" y="-15.5" font-family="Times Roman,serif" font-size="10.00">deny</text>
</g>
<!-- 140429180959128&#45;&gt;140429180959488 -->
<g id="edge28" class="edge"><title>140429180959128&#45;&gt;140429180959488</title>
<path fill="none" stroke="black" d="M387,-85.7616C387,-74.3597 387,-59.4342 387,-46.494"/>
<polygon fill="black" stroke="black" points="390.5,-46.2121 387,-36.2121 383.5,-46.2121 390.5,-46.2121"/>
<text text-anchor="middle" x="413.5" y="-58.5" font-family="Times Roman,serif" font-size="10.00">(0&#45;5)(8&#45;15)</text>
</g>
<!-- 140429180959200 -->
<g id="node30" class="node"><title>140429180959200</title>
<polygon fill="none" stroke="black" points="490,-36 436,-36 436,-1.77636e-14 490,-3.55271e-15 490,-36"/>
<text text-anchor="middle" x="463" y="-15.5" font-family="Times Roman,serif" font-size="10.00">permit</text>
</g>
<!-- 140429180959128&#45;&gt;140429180959200 -->
<g id="edge30" class="edge"><title>140429180959128&#45;&gt;140429180959200</title>
<path fill="none" stroke="black" d="M408.897,-93.2342C419.688,-87.0528 432.231,-78.4393 441,-68 446.49,-61.4644 450.839,-53.3444 454.17,-45.5617"/>
<polygon fill="black" stroke="black" points="457.514,-46.6181 457.856,-36.0287 450.985,-44.0939 457.514,-46.6181"/>
<text text-anchor="middle" x="461" y="-58.5" font-family="Times Roman,serif" font-size="10.00">(6&#45;7)</text>
</g>
<!-- 140429180959920 -->
<g id="node34" class="node"><title>140429180959920</title>
<polygon fill="none" stroke="black" points="562,-36 508,-36 508,-1.77636e-14 562,-3.55271e-15 562,-36"/>
<text text-anchor="middle" x="535" y="-15.5" font-family="Times Roman,serif" font-size="10.00">permit</text>
</g>
<!-- 140429180955968&#45;&gt;140429180959920 -->
<g id="edge34" class="edge"><title>140429180955968&#45;&gt;140429180959920</title>
<path fill="none" stroke="black" d="M535,-85.7616C535,-74.3597 535,-59.4342 535,-46.494"/>
<polygon fill="black" stroke="black" points="538.5,-46.2121 535,-36.2121 531.5,-46.2121 538.5,-46.2121"/>
<text text-anchor="middle" x="558.5" y="-58.5" font-family="Times Roman,serif" font-size="10.00">(0&#45;4)(6&#45;7)</text>
</g>
<!-- 140429180954888 -->
<g id="node36" class="node"><title>140429180954888</title>
<polygon fill="none" stroke="black" points="634,-36 580,-36 580,-1.77636e-14 634,-3.55271e-15 634,-36"/>
<text text-anchor="middle" x="607" y="-15.5" font-family="Times Roman,serif" font-size="10.00">deny</text>
</g>
<!-- 140429180955968&#45;&gt;140429180954888 -->
<g id="edge36" class="edge"><title>140429180955968&#45;&gt;140429180954888</title>
<path fill="none" stroke="black" d="M555.999,-92.4463C565.813,-86.2243 577.057,-77.8093 585,-68 590.287,-61.4703 594.55,-53.4718 597.864,-45.8032"/>
<polygon fill="black" stroke="black" points="601.158,-46.9887 601.56,-36.4015 594.644,-44.4277 601.158,-46.9887"/>
<text text-anchor="middle" x="619.5" y="-58.5" font-family="Times Roman,serif" font-size="10.00">(5&#45;5)(8&#45;15)</text>
</g>
</g>
</svg>
