<?xml version="1.0" encoding="UTF-8" standalone="no"?>
<!DOCTYPE svg PUBLIC "-//W3C//DTD SVG 1.1//EN"
 "http://www.w3.org/Graphics/SVG/1.1/DTD/svg11.dtd">
<!-- Generated by graphviz version 2.26.3 (20100126.1600)
 -->
<!-- Title: _anonymous_0 Pages: 1 -->
<svg width="425pt" height="302pt"
 viewBox="0.00 0.00 425.00 302.00" xmlns="http://www.w3.org/2000/svg" xmlns:xlink="http://www.w3.org/1999/xlink">
<g id="graph1" class="graph" transform="scale(1 1) rotate(0) translate(4 298)">
<title>_anonymous_0</title>
<polygon fill="white" stroke="white" points="-4,5 -4,-298 422,-298 422,5 -4,5"/>
<!-- 139684219640072 -->
<g id="node1" class="node"><title>139684219640072</title>
<ellipse fill="none" stroke="black" cx="149" cy="-276" rx="27" ry="18"/>
<text text-anchor="middle" x="149" y="-273.5" font-family="Times Roman,serif" font-size="10.00">protocol</text>
</g>
<!-- 139684219631880 -->
<g id="node2" class="node"><title>139684219631880</title>
<ellipse fill="none" stroke="black" cx="59" cy="-190" rx="27" ry="18"/>
<text text-anchor="middle" x="59" y="-187.5" font-family="Times Roman,serif" font-size="10.00">port</text>
</g>
<!-- 139684219640072&#45;&gt;139684219631880 -->
<g id="edge2" class="edge"><title>139684219640072&#45;&gt;139684219631880</title>
<path fill="none" stroke="black" d="M133.323,-261.02C119.127,-247.455 98.0354,-227.301 81.9432,-211.924"/>
<polygon fill="black" stroke="black" points="84.1451,-209.187 74.4972,-204.808 79.3091,-214.247 84.1451,-209.187"/>
<text text-anchor="middle" x="122" y="-230.5" font-family="Times Roman,serif" font-size="10.00">(0&#45;0)</text>
</g>
<!-- 139684219654800 -->
<g id="node8" class="node"><title>139684219654800</title>
<ellipse fill="none" stroke="black" cx="149" cy="-190" rx="27" ry="18"/>
<text text-anchor="middle" x="149" y="-187.5" font-family="Times Roman,serif" font-size="10.00">port</text>
</g>
<!-- 139684219640072&#45;&gt;139684219654800 -->
<g id="edge8" class="edge"><title>139684219640072&#45;&gt;139684219654800</title>
<path fill="none" stroke="black" d="M149,-257.762C149,-246.36 149,-231.434 149,-218.494"/>
<polygon fill="black" stroke="black" points="152.5,-218.212 149,-208.212 145.5,-218.212 152.5,-218.212"/>
<text text-anchor="middle" x="161" y="-230.5" font-family="Times Roman,serif" font-size="10.00">(1&#45;2)</text>
</g>
<!-- 139684219639064 -->
<g id="node20" class="node"><title>139684219639064</title>
<ellipse fill="none" stroke="black" cx="315" cy="-190" rx="27" ry="18"/>
<text text-anchor="middle" x="315" y="-187.5" font-family="Times Roman,serif" font-size="10.00">port</text>
</g>
<!-- 139684219640072&#45;&gt;139684219639064 -->
<g id="edge20" class="edge"><title>139684219640072&#45;&gt;139684219639064</title>
<path fill="none" stroke="black" d="M170.362,-264.933C199.293,-249.945 251.113,-223.098 284.235,-205.938"/>
<polygon fill="black" stroke="black" points="286.188,-208.868 293.457,-201.161 282.968,-202.653 286.188,-208.868"/>
<text text-anchor="middle" x="253" y="-230.5" font-family="Times Roman,serif" font-size="10.00">(3&#45;3)</text>
</g>
<!-- 139684219634680 -->
<g id="node4" class="node"><title>139684219634680</title>
<ellipse fill="none" stroke="black" cx="27" cy="-104" rx="27" ry="18"/>
<text text-anchor="middle" x="27" y="-101.5" font-family="Times Roman,serif" font-size="10.00">ip</text>
</g>
<!-- 139684219631880&#45;&gt;139684219634680 -->
<g id="edge4" class="edge"><title>139684219631880&#45;&gt;139684219634680</title>
<path fill="none" stroke="black" d="M52.3696,-172.181C47.964,-160.341 42.095,-144.568 37.1117,-131.175"/>
<polygon fill="black" stroke="black" points="40.2801,-129.654 33.5124,-121.502 33.7196,-132.095 40.2801,-129.654"/>
<text text-anchor="middle" x="57" y="-144.5" font-family="Times Roman,serif" font-size="10.00">(0&#45;7)</text>
</g>
<!-- 139684219655232 -->
<g id="node6" class="node"><title>139684219655232</title>
<polygon fill="none" stroke="black" points="54,-36 2.13163e-14,-36 0,-1.77636e-14 54,-3.55271e-15 54,-36"/>
<text text-anchor="middle" x="27" y="-15.5" font-family="Times Roman,serif" font-size="10.00">deny</text>
</g>
<!-- 139684219634680&#45;&gt;139684219655232 -->
<g id="edge6" class="edge"><title>139684219634680&#45;&gt;139684219655232</title>
<path fill="none" stroke="black" d="M27,-85.7616C27,-74.3597 27,-59.4342 27,-46.494"/>
<polygon fill="black" stroke="black" points="30.5001,-46.2121 27,-36.2121 23.5001,-46.2121 30.5001,-46.2121"/>
<text text-anchor="middle" x="42" y="-58.5" font-family="Times Roman,serif" font-size="10.00">(0&#45;15)</text>
</g>
<!-- 139684219655376 -->
<g id="node10" class="node"><title>139684219655376</title>
<ellipse fill="none" stroke="black" cx="99" cy="-104" rx="27" ry="18"/>
<text text-anchor="middle" x="99" y="-101.5" font-family="Times Roman,serif" font-size="10.00">ip</text>
</g>
<!-- 139684219654800&#45;&gt;139684219655376 -->
<g id="edge10" class="edge"><title>139684219654800&#45;&gt;139684219655376</title>
<path fill="none" stroke="black" d="M129.071,-177.551C120.951,-171.449 112.255,-163.385 107,-154 103.322,-147.431 101.21,-139.661 100.027,-132.23"/>
<polygon fill="black" stroke="black" points="103.486,-131.664 98.9074,-122.109 96.528,-132.433 103.486,-131.664"/>
<text text-anchor="middle" x="130.5" y="-144.5" font-family="Times Roman,serif" font-size="10.00">(0&#45;3)(5&#45;7)</text>
</g>
<!-- 139684219654656 -->
<g id="node14" class="node"><title>139684219654656</title>
<ellipse fill="none" stroke="black" cx="171" cy="-104" rx="27" ry="18"/>
<text text-anchor="middle" x="171" y="-101.5" font-family="Times Roman,serif" font-size="10.00">ip</text>
</g>
<!-- 139684219654800&#45;&gt;139684219654656 -->
<g id="edge14" class="edge"><title>139684219654800&#45;&gt;139684219654656</title>
<path fill="none" stroke="black" d="M153.558,-172.181C156.538,-160.534 160.49,-145.083 163.88,-131.834"/>
<polygon fill="black" stroke="black" points="167.36,-132.352 166.447,-121.796 160.578,-130.617 167.36,-132.352"/>
<text text-anchor="middle" x="173" y="-144.5" font-family="Times Roman,serif" font-size="10.00">(4&#45;4)</text>
</g>
<!-- 139684219655448 -->
<g id="node12" class="node"><title>139684219655448</title>
<polygon fill="none" stroke="black" points="126,-36 72,-36 72,-1.77636e-14 126,-3.55271e-15 126,-36"/>
<text text-anchor="middle" x="99" y="-15.5" font-family="Times Roman,serif" font-size="10.00">deny</text>
</g>
<!-- 139684219655376&#45;&gt;139684219655448 -->
<g id="edge12" class="edge"><title>139684219655376&#45;&gt;139684219655448</title>
<path fill="none" stroke="black" d="M99,-85.7616C99,-74.3597 99,-59.4342 99,-46.494"/>
<polygon fill="black" stroke="black" points="102.5,-46.2121 99,-36.2121 95.5001,-46.2121 102.5,-46.2121"/>
<text text-anchor="middle" x="114" y="-58.5" font-family="Times Roman,serif" font-size="10.00">(0&#45;15)</text>
</g>
<!-- 139684219655808 -->
<g id="node16" class="node"><title>139684219655808</title>
<polygon fill="none" stroke="black" points="198,-36 144,-36 144,-1.77636e-14 198,-3.55271e-15 198,-36"/>
<text text-anchor="middle" x="171" y="-15.5" font-family="Times Roman,serif" font-size="10.00">permit</text>
</g>
<!-- 139684219654656&#45;&gt;139684219655808 -->
<g id="edge16" class="edge"><title>139684219654656&#45;&gt;139684219655808</title>
<path fill="none" stroke="black" d="M171,-85.7616C171,-74.3597 171,-59.4342 171,-46.494"/>
<polygon fill="black" stroke="black" points="174.5,-46.2121 171,-36.2121 167.5,-46.2121 174.5,-46.2121"/>
<text text-anchor="middle" x="183" y="-58.5" font-family="Times Roman,serif" font-size="10.00">(0&#45;4)</text>
</g>
<!-- 139684219655016 -->
<g id="node18" class="node"><title>139684219655016</title>
<polygon fill="none" stroke="black" points="270,-36 216,-36 216,-1.77636e-14 270,-3.55271e-15 270,-36"/>
<text text-anchor="middle" x="243" y="-15.5" font-family="Times Roman,serif" font-size="10.00">deny</text>
</g>
<!-- 139684219654656&#45;&gt;139684219655016 -->
<g id="edge18" class="edge"><title>139684219654656&#45;&gt;139684219655016</title>
<path fill="none" stroke="black" d="M184.206,-88.2263C194.523,-75.9035 209.082,-58.5129 221.131,-44.1209"/>
<polygon fill="black" stroke="black" points="224.149,-45.969 227.885,-36.0546 218.781,-41.4754 224.149,-45.969"/>
<text text-anchor="middle" x="226" y="-58.5" font-family="Times Roman,serif" font-size="10.00">(5&#45;15)</text>
</g>
<!-- 139684219655880 -->
<g id="node22" class="node"><title>139684219655880</title>
<ellipse fill="none" stroke="black" cx="315" cy="-104" rx="27" ry="18"/>
<text text-anchor="middle" x="315" y="-101.5" font-family="Times Roman,serif" font-size="10.00">ip</text>
</g>
<!-- 139684219639064&#45;&gt;139684219655880 -->
<g id="edge22" class="edge"><title>139684219639064&#45;&gt;139684219655880</title>
<path fill="none" stroke="black" d="M315,-171.762C315,-160.36 315,-145.434 315,-132.494"/>
<polygon fill="black" stroke="black" points="318.5,-132.212 315,-122.212 311.5,-132.212 318.5,-132.212"/>
<text text-anchor="middle" x="338.5" y="-144.5" font-family="Times Roman,serif" font-size="10.00">(0&#45;1)(5&#45;7)</text>
</g>
<!-- 139684219656528 -->
<g id="node26" class="node"><title>139684219656528</title>
<ellipse fill="none" stroke="black" cx="387" cy="-104" rx="27" ry="18"/>
<text text-anchor="middle" x="387" y="-101.5" font-family="Times Roman,serif" font-size="10.00">ip</text>
</g>
<!-- 139684219639064&#45;&gt;139684219656528 -->
<g id="edge26" class="edge"><title>139684219639064&#45;&gt;139684219656528</title>
<path fill="none" stroke="black" d="M335.992,-177.99C345.475,-171.771 356.261,-163.489 364,-154 369.435,-147.336 373.891,-139.178 377.385,-131.399"/>
<polygon fill="black" stroke="black" points="380.729,-132.471 381.297,-121.892 374.255,-129.807 380.729,-132.471"/>
<text text-anchor="middle" x="385" y="-144.5" font-family="Times Roman,serif" font-size="10.00">(2&#45;4)</text>
</g>
<!-- 139684219655952 -->
<g id="node24" class="node"><title>139684219655952</title>
<polygon fill="none" stroke="black" points="342,-36 288,-36 288,-1.77636e-14 342,-3.55271e-15 342,-36"/>
<text text-anchor="middle" x="315" y="-15.5" font-family="Times Roman,serif" font-size="10.00">deny</text>
</g>
<!-- 139684219655880&#45;&gt;139684219655952 -->
<g id="edge24" class="edge"><title>139684219655880&#45;&gt;139684219655952</title>
<path fill="none" stroke="black" d="M315,-85.7616C315,-74.3597 315,-59.4342 315,-46.494"/>
<polygon fill="black" stroke="black" points="318.5,-46.2121 315,-36.2121 311.5,-46.2121 318.5,-46.2121"/>
<text text-anchor="middle" x="330" y="-58.5" font-family="Times Roman,serif" font-size="10.00">(0&#45;15)</text>
</g>
<!-- 139684219656888 -->
<g id="node28" class="node"><title>139684219656888</title>
<polygon fill="none" stroke="black" points="414,-36 360,-36 360,-1.77636e-14 414,-3.55271e-15 414,-36"/>
<text text-anchor="middle" x="387" y="-15.5" font-family="Times Roman,serif" font-size="10.00">permit</text>
</g>
<!-- 139684219656528&#45;&gt;139684219656888 -->
<g id="edge28" class="edge"><title>139684219656528&#45;&gt;139684219656888</title>
<path fill="none" stroke="black" d="M387,-85.7616C387,-74.3597 387,-59.4342 387,-46.494"/>
<polygon fill="black" stroke="black" points="390.5,-46.2121 387,-36.2121 383.5,-46.2121 390.5,-46.2121"/>
<text text-anchor="middle" x="402" y="-58.5" font-family="Times Roman,serif" font-size="10.00">(0&#45;15)</text>
</g>
</g>
</svg>
