<?xml version="1.0" encoding="UTF-8" standalone="no"?>
<!DOCTYPE svg PUBLIC "-//W3C//DTD SVG 1.1//EN"
 "http://www.w3.org/Graphics/SVG/1.1/DTD/svg11.dtd">
<!-- Generated by graphviz version 2.26.3 (20100126.1600)
 -->
<!-- Title: _anonymous_0 Pages: 1 -->
<svg width="362pt" height="302pt"
 viewBox="0.00 0.00 362.00 302.00" xmlns="http://www.w3.org/2000/svg" xmlns:xlink="http://www.w3.org/1999/xlink">
<g id="graph1" class="graph" transform="scale(1 1) rotate(0) translate(4 298)">
<title>_anonymous_0</title>
<polygon fill="white" stroke="white" points="-4,5 -4,-298 359,-298 359,5 -4,5"/>
<!-- 140707205313816 -->
<g id="node1" class="node"><title>140707205313816</title>
<ellipse fill="none" stroke="black" cx="99" cy="-276" rx="27" ry="18"/>
<text text-anchor="middle" x="99" y="-273.5" font-family="Times Roman,serif" font-size="10.00">protocol</text>
</g>
<!-- 140707205287808 -->
<g id="node2" class="node"><title>140707205287808</title>
<ellipse fill="none" stroke="black" cx="27" cy="-190" rx="27" ry="18"/>
<text text-anchor="middle" x="27" y="-187.5" font-family="Times Roman,serif" font-size="10.00">port</text>
</g>
<!-- 140707205313816&#45;&gt;140707205287808 -->
<g id="edge2" class="edge"><title>140707205313816&#45;&gt;140707205287808</title>
<path fill="none" stroke="black" d="M85.7941,-260.226C74.9013,-247.215 59.2788,-228.555 46.8753,-213.74"/>
<polygon fill="black" stroke="black" points="49.4691,-211.386 40.366,-205.965 44.1018,-215.879 49.4691,-211.386"/>
<text text-anchor="middle" x="80" y="-230.5" font-family="Times Roman,serif" font-size="10.00">(0&#45;0)</text>
</g>
<!-- 140707205321936 -->
<g id="node8" class="node"><title>140707205321936</title>
<ellipse fill="none" stroke="black" cx="99" cy="-190" rx="27" ry="18"/>
<text text-anchor="middle" x="99" y="-187.5" font-family="Times Roman,serif" font-size="10.00">port</text>
</g>
<!-- 140707205313816&#45;&gt;140707205321936 -->
<g id="edge8" class="edge"><title>140707205313816&#45;&gt;140707205321936</title>
<path fill="none" stroke="black" d="M99,-257.762C99,-246.36 99,-231.434 99,-218.494"/>
<polygon fill="black" stroke="black" points="102.5,-218.212 99,-208.212 95.5001,-218.212 102.5,-218.212"/>
<text text-anchor="middle" x="111" y="-230.5" font-family="Times Roman,serif" font-size="10.00">(1&#45;2)</text>
</g>
<!-- 140707205313672 -->
<g id="node14" class="node"><title>140707205313672</title>
<ellipse fill="none" stroke="black" cx="171" cy="-190" rx="27" ry="18"/>
<text text-anchor="middle" x="171" y="-187.5" font-family="Times Roman,serif" font-size="10.00">port</text>
</g>
<!-- 140707205313816&#45;&gt;140707205313672 -->
<g id="edge14" class="edge"><title>140707205313816&#45;&gt;140707205313672</title>
<path fill="none" stroke="black" d="M112.206,-260.226C123.099,-247.215 138.721,-228.555 151.125,-213.74"/>
<polygon fill="black" stroke="black" points="153.898,-215.879 157.634,-205.965 148.531,-211.386 153.898,-215.879"/>
<text text-anchor="middle" x="151" y="-230.5" font-family="Times Roman,serif" font-size="10.00">(3&#45;3)</text>
</g>
<!-- 140707205282416 -->
<g id="node4" class="node"><title>140707205282416</title>
<ellipse fill="none" stroke="black" cx="27" cy="-104" rx="27" ry="18"/>
<text text-anchor="middle" x="27" y="-101.5" font-family="Times Roman,serif" font-size="10.00">ip</text>
</g>
<!-- 140707205287808&#45;&gt;140707205282416 -->
<g id="edge4" class="edge"><title>140707205287808&#45;&gt;140707205282416</title>
<path fill="none" stroke="black" d="M27,-171.762C27,-160.36 27,-145.434 27,-132.494"/>
<polygon fill="black" stroke="black" points="30.5001,-132.212 27,-122.212 23.5001,-132.212 30.5001,-132.212"/>
<text text-anchor="middle" x="39" y="-144.5" font-family="Times Roman,serif" font-size="10.00">(0&#45;7)</text>
</g>
<!-- 140707205281912 -->
<g id="node6" class="node"><title>140707205281912</title>
<polygon fill="none" stroke="black" points="54,-36 2.13163e-14,-36 0,-1.77636e-14 54,-3.55271e-15 54,-36"/>
<text text-anchor="middle" x="27" y="-15.5" font-family="Times Roman,serif" font-size="10.00">deny</text>
</g>
<!-- 140707205282416&#45;&gt;140707205281912 -->
<g id="edge6" class="edge"><title>140707205282416&#45;&gt;140707205281912</title>
<path fill="none" stroke="black" d="M27,-85.7616C27,-74.3597 27,-59.4342 27,-46.494"/>
<polygon fill="black" stroke="black" points="30.5001,-46.2121 27,-36.2121 23.5001,-46.2121 30.5001,-46.2121"/>
<text text-anchor="middle" x="42" y="-58.5" font-family="Times Roman,serif" font-size="10.00">(0&#45;15)</text>
</g>
<!-- 140707205322008 -->
<g id="node10" class="node"><title>140707205322008</title>
<ellipse fill="none" stroke="black" cx="99" cy="-104" rx="27" ry="18"/>
<text text-anchor="middle" x="99" y="-101.5" font-family="Times Roman,serif" font-size="10.00">ip</text>
</g>
<!-- 140707205321936&#45;&gt;140707205322008 -->
<g id="edge10" class="edge"><title>140707205321936&#45;&gt;140707205322008</title>
<path fill="none" stroke="black" d="M99,-171.762C99,-160.36 99,-145.434 99,-132.494"/>
<polygon fill="black" stroke="black" points="102.5,-132.212 99,-122.212 95.5001,-132.212 102.5,-132.212"/>
<text text-anchor="middle" x="111" y="-144.5" font-family="Times Roman,serif" font-size="10.00">(0&#45;7)</text>
</g>
<!-- 140707205322080 -->
<g id="node12" class="node"><title>140707205322080</title>
<polygon fill="none" stroke="black" points="126,-36 72,-36 72,-1.77636e-14 126,-3.55271e-15 126,-36"/>
<text text-anchor="middle" x="99" y="-15.5" font-family="Times Roman,serif" font-size="10.00">permit</text>
</g>
<!-- 140707205322008&#45;&gt;140707205322080 -->
<g id="edge12" class="edge"><title>140707205322008&#45;&gt;140707205322080</title>
<path fill="none" stroke="black" d="M99,-85.7616C99,-74.3597 99,-59.4342 99,-46.494"/>
<polygon fill="black" stroke="black" points="102.5,-46.2121 99,-36.2121 95.5001,-46.2121 102.5,-46.2121"/>
<text text-anchor="middle" x="114" y="-58.5" font-family="Times Roman,serif" font-size="10.00">(0&#45;15)</text>
</g>
<!-- 140707205322512 -->
<g id="node16" class="node"><title>140707205322512</title>
<ellipse fill="none" stroke="black" cx="171" cy="-104" rx="27" ry="18"/>
<text text-anchor="middle" x="171" y="-101.5" font-family="Times Roman,serif" font-size="10.00">ip</text>
</g>
<!-- 140707205313672&#45;&gt;140707205322512 -->
<g id="edge16" class="edge"><title>140707205313672&#45;&gt;140707205322512</title>
<path fill="none" stroke="black" d="M171,-171.762C171,-160.36 171,-145.434 171,-132.494"/>
<polygon fill="black" stroke="black" points="174.5,-132.212 171,-122.212 167.5,-132.212 174.5,-132.212"/>
<text text-anchor="middle" x="194.5" y="-144.5" font-family="Times Roman,serif" font-size="10.00">(0&#45;3)(5&#45;7)</text>
</g>
<!-- 140707205315184 -->
<g id="node20" class="node"><title>140707205315184</title>
<ellipse fill="none" stroke="black" cx="243" cy="-104" rx="27" ry="18"/>
<text text-anchor="middle" x="243" y="-101.5" font-family="Times Roman,serif" font-size="10.00">ip</text>
</g>
<!-- 140707205313672&#45;&gt;140707205315184 -->
<g id="edge20" class="edge"><title>140707205313672&#45;&gt;140707205315184</title>
<path fill="none" stroke="black" d="M191.992,-177.99C201.475,-171.771 212.261,-163.489 220,-154 225.435,-147.336 229.891,-139.178 233.385,-131.399"/>
<polygon fill="black" stroke="black" points="236.729,-132.471 237.297,-121.892 230.255,-129.807 236.729,-132.471"/>
<text text-anchor="middle" x="241" y="-144.5" font-family="Times Roman,serif" font-size="10.00">(4&#45;4)</text>
</g>
<!-- 140707205322584 -->
<g id="node18" class="node"><title>140707205322584</title>
<polygon fill="none" stroke="black" points="198,-36 144,-36 144,-1.77636e-14 198,-3.55271e-15 198,-36"/>
<text text-anchor="middle" x="171" y="-15.5" font-family="Times Roman,serif" font-size="10.00">permit</text>
</g>
<!-- 140707205322512&#45;&gt;140707205322584 -->
<g id="edge18" class="edge"><title>140707205322512&#45;&gt;140707205322584</title>
<path fill="none" stroke="black" d="M171,-85.7616C171,-74.3597 171,-59.4342 171,-46.494"/>
<polygon fill="black" stroke="black" points="174.5,-46.2121 171,-36.2121 167.5,-46.2121 174.5,-46.2121"/>
<text text-anchor="middle" x="186" y="-58.5" font-family="Times Roman,serif" font-size="10.00">(0&#45;15)</text>
</g>
<!-- 140707205323880 -->
<g id="node22" class="node"><title>140707205323880</title>
<polygon fill="none" stroke="black" points="270,-36 216,-36 216,-1.77636e-14 270,-3.55271e-15 270,-36"/>
<text text-anchor="middle" x="243" y="-15.5" font-family="Times Roman,serif" font-size="10.00">permit</text>
</g>
<!-- 140707205315184&#45;&gt;140707205323880 -->
<g id="edge22" class="edge"><title>140707205315184&#45;&gt;140707205323880</title>
<path fill="none" stroke="black" d="M243,-85.7616C243,-74.3597 243,-59.4342 243,-46.494"/>
<polygon fill="black" stroke="black" points="246.5,-46.2121 243,-36.2121 239.5,-46.2121 246.5,-46.2121"/>
<text text-anchor="middle" x="266.5" y="-58.5" font-family="Times Roman,serif" font-size="10.00">(0&#45;4)(6&#45;7)</text>
</g>
<!-- 140707205314608 -->
<g id="node24" class="node"><title>140707205314608</title>
<polygon fill="none" stroke="black" points="342,-36 288,-36 288,-1.77636e-14 342,-3.55271e-15 342,-36"/>
<text text-anchor="middle" x="315" y="-15.5" font-family="Times Roman,serif" font-size="10.00">deny</text>
</g>
<!-- 140707205315184&#45;&gt;140707205314608 -->
<g id="edge24" class="edge"><title>140707205315184&#45;&gt;140707205314608</title>
<path fill="none" stroke="black" d="M263.999,-92.4463C273.813,-86.2243 285.057,-77.8093 293,-68 298.287,-61.4703 302.55,-53.4718 305.864,-45.8032"/>
<polygon fill="black" stroke="black" points="309.158,-46.9887 309.56,-36.4015 302.644,-44.4277 309.158,-46.9887"/>
<text text-anchor="middle" x="327.5" y="-58.5" font-family="Times Roman,serif" font-size="10.00">(5&#45;5)(8&#45;15)</text>
</g>
</g>
</svg>
