<?xml version="1.0" encoding="UTF-8" standalone="no"?>
<!DOCTYPE svg PUBLIC "-//W3C//DTD SVG 1.1//EN"
 "http://www.w3.org/Graphics/SVG/1.1/DTD/svg11.dtd">
<!-- Generated by graphviz version 2.26.3 (20100126.1600)
 -->
<!-- Title: _anonymous_0 Pages: 1 -->
<svg width="242pt" height="332pt"
 viewBox="0.00 0.00 242.00 332.00" xmlns="http://www.w3.org/2000/svg" xmlns:xlink="http://www.w3.org/1999/xlink">
<g id="graph1" class="graph" transform="scale(1 1) rotate(0) translate(4 328)">
<title>_anonymous_0</title>
<polygon fill="white" stroke="white" points="-4,5 -4,-328 239,-328 239,5 -4,5"/>
<!-- 0 -->
<g id="node1" class="node"><title>0</title>
<ellipse fill="none" stroke="black" cx="27" cy="-162" rx="27" ry="18"/>
<text text-anchor="middle" x="27" y="-159.5" font-family="Times Roman,serif" font-size="10.00">0</text>
</g>
<!-- 7 -->
<g id="node8" class="node"><title>7</title>
<ellipse fill="none" stroke="black" cx="27" cy="-90" rx="27" ry="18"/>
<text text-anchor="middle" x="27" y="-87.5" font-family="Times Roman,serif" font-size="10.00">7</text>
</g>
<!-- 0&#45;&gt;7 -->
<g id="edge20" class="edge"><title>0&#45;&gt;7</title>
<path fill="none" stroke="black" d="M27,-143.831C27,-136.131 27,-126.974 27,-118.417"/>
<polygon fill="black" stroke="black" points="30.5001,-118.413 27,-108.413 23.5001,-118.413 30.5001,-118.413"/>
</g>
<!-- 8 -->
<g id="node9" class="node"><title>8</title>
<ellipse fill="none" stroke="black" cx="99" cy="-90" rx="27" ry="18"/>
<text text-anchor="middle" x="99" y="-87.5" font-family="Times Roman,serif" font-size="10.00">8</text>
</g>
<!-- 0&#45;&gt;8 -->
<g id="edge22" class="edge"><title>0&#45;&gt;8</title>
<path fill="none" stroke="black" d="M42.2693,-146.731C52.197,-136.803 65.3153,-123.685 76.4363,-112.564"/>
<polygon fill="black" stroke="black" points="79.1564,-114.793 83.7527,-105.247 74.2067,-109.844 79.1564,-114.793"/>
</g>
<!-- 1 -->
<g id="node2" class="node"><title>1</title>
<ellipse fill="none" stroke="black" cx="63" cy="-234" rx="27" ry="18"/>
<text text-anchor="middle" x="63" y="-231.5" font-family="Times Roman,serif" font-size="10.00">1</text>
</g>
<!-- 6 -->
<g id="node7" class="node"><title>6</title>
<ellipse fill="none" stroke="black" cx="99" cy="-162" rx="27" ry="18"/>
<text text-anchor="middle" x="99" y="-159.5" font-family="Times Roman,serif" font-size="10.00">6</text>
</g>
<!-- 1&#45;&gt;6 -->
<g id="edge18" class="edge"><title>1&#45;&gt;6</title>
<path fill="none" stroke="black" d="M71.7146,-216.571C75.9597,-208.081 81.1536,-197.693 85.8663,-188.267"/>
<polygon fill="black" stroke="black" points="89.024,-189.778 90.3657,-179.269 82.763,-186.648 89.024,-189.778"/>
</g>
<!-- 2 -->
<g id="node3" class="node"><title>2</title>
<ellipse fill="none" stroke="black" cx="63" cy="-306" rx="27" ry="18"/>
<text text-anchor="middle" x="63" y="-303.5" font-family="Times Roman,serif" font-size="10.00">2</text>
</g>
<!-- 5 -->
<g id="node6" class="node"><title>5</title>
<ellipse fill="none" stroke="black" cx="135" cy="-234" rx="27" ry="18"/>
<text text-anchor="middle" x="135" y="-231.5" font-family="Times Roman,serif" font-size="10.00">5</text>
</g>
<!-- 2&#45;&gt;5 -->
<g id="edge16" class="edge"><title>2&#45;&gt;5</title>
<path fill="none" stroke="black" d="M78.2693,-290.731C88.197,-280.803 101.315,-267.685 112.436,-256.564"/>
<polygon fill="black" stroke="black" points="115.156,-258.793 119.753,-249.247 110.207,-253.844 115.156,-258.793"/>
</g>
<!-- 3 -->
<g id="node4" class="node"><title>3</title>
<ellipse fill="none" stroke="black" cx="135" cy="-306" rx="27" ry="18"/>
<text text-anchor="middle" x="135" y="-303.5" font-family="Times Roman,serif" font-size="10.00">3</text>
</g>
<!-- 3&#45;&gt;5 -->
<g id="edge14" class="edge"><title>3&#45;&gt;5</title>
<path fill="none" stroke="black" d="M135,-287.831C135,-280.131 135,-270.974 135,-262.417"/>
<polygon fill="black" stroke="black" points="138.5,-262.413 135,-252.413 131.5,-262.413 138.5,-262.413"/>
</g>
<!-- 4 -->
<g id="node5" class="node"><title>4</title>
<ellipse fill="none" stroke="black" cx="207" cy="-306" rx="27" ry="18"/>
<text text-anchor="middle" x="207" y="-303.5" font-family="Times Roman,serif" font-size="10.00">4</text>
</g>
<!-- 4&#45;&gt;5 -->
<g id="edge12" class="edge"><title>4&#45;&gt;5</title>
<path fill="none" stroke="black" d="M191.731,-290.731C181.803,-280.803 168.685,-267.685 157.564,-256.564"/>
<polygon fill="black" stroke="black" points="159.793,-253.844 150.247,-249.247 154.844,-258.793 159.793,-253.844"/>
</g>
<!-- 5&#45;&gt;6 -->
<g id="edge10" class="edge"><title>5&#45;&gt;6</title>
<path fill="none" stroke="black" d="M126.285,-216.571C122.04,-208.081 116.846,-197.693 112.134,-188.267"/>
<polygon fill="black" stroke="black" points="115.237,-186.648 107.634,-179.269 108.976,-189.778 115.237,-186.648"/>
</g>
<!-- 6&#45;&gt;7 -->
<g id="edge6" class="edge"><title>6&#45;&gt;7</title>
<path fill="none" stroke="black" d="M83.7307,-146.731C73.803,-136.803 60.6847,-123.685 49.5637,-112.564"/>
<polygon fill="black" stroke="black" points="51.7933,-109.844 42.2473,-105.247 46.8436,-114.793 51.7933,-109.844"/>
</g>
<!-- 6&#45;&gt;8 -->
<g id="edge8" class="edge"><title>6&#45;&gt;8</title>
<path fill="none" stroke="black" d="M99,-143.831C99,-136.131 99,-126.974 99,-118.417"/>
<polygon fill="black" stroke="black" points="102.5,-118.413 99,-108.413 95.5001,-118.413 102.5,-118.413"/>
</g>
<!-- 9 -->
<g id="node10" class="node"><title>9</title>
<ellipse fill="none" stroke="black" cx="63" cy="-18" rx="27" ry="18"/>
<text text-anchor="middle" x="63" y="-15.5" font-family="Times Roman,serif" font-size="10.00">9</text>
</g>
<!-- 7&#45;&gt;9 -->
<g id="edge4" class="edge"><title>7&#45;&gt;9</title>
<path fill="none" stroke="black" d="M35.7146,-72.5708C39.9597,-64.0807 45.1536,-53.6929 49.8663,-44.2674"/>
<polygon fill="black" stroke="black" points="53.024,-45.7782 54.3657,-35.2687 46.763,-42.6477 53.024,-45.7782"/>
</g>
<!-- 8&#45;&gt;9 -->
<g id="edge2" class="edge"><title>8&#45;&gt;9</title>
<path fill="none" stroke="black" d="M90.2854,-72.5708C86.0403,-64.0807 80.8464,-53.6929 76.1337,-44.2674"/>
<polygon fill="black" stroke="black" points="79.237,-42.6477 71.6343,-35.2687 72.976,-45.7782 79.237,-42.6477"/>
</g>
</g>
</svg>
