<?xml version="1.0" encoding="UTF-8" standalone="no"?>
<!DOCTYPE svg PUBLIC "-//W3C//DTD SVG 1.1//EN"
 "http://www.w3.org/Graphics/SVG/1.1/DTD/svg11.dtd">
<!-- Generated by graphviz version 2.26.3 (20100126.1600)
 -->
<!-- Title: _anonymous_0 Pages: 1 -->
<svg width="1060pt" height="302pt"
 viewBox="0.00 0.00 1060.00 302.00" xmlns="http://www.w3.org/2000/svg" xmlns:xlink="http://www.w3.org/1999/xlink">
<g id="graph1" class="graph" transform="scale(1 1) rotate(0) translate(4 298)">
<title>_anonymous_0</title>
<polygon fill="white" stroke="white" points="-4,5 -4,-298 1057,-298 1057,5 -4,5"/>
<!-- 140707205285720 -->
<g id="node1" class="node"><title>140707205285720</title>
<ellipse fill="none" stroke="black" cx="513" cy="-276" rx="27" ry="18"/>
<text text-anchor="middle" x="513" y="-273.5" font-family="Times Roman,serif" font-size="10.00">protocol</text>
</g>
<!-- 140707205276520 -->
<g id="node2" class="node"><title>140707205276520</title>
<ellipse fill="none" stroke="black" cx="293" cy="-190" rx="27" ry="18"/>
<text text-anchor="middle" x="293" y="-187.5" font-family="Times Roman,serif" font-size="10.00">port</text>
</g>
<!-- 140707205285720&#45;&gt;140707205276520 -->
<g id="edge2" class="edge"><title>140707205285720&#45;&gt;140707205276520</title>
<path fill="none" stroke="black" d="M489.456,-266.796C450.09,-251.408 370.814,-220.418 325.935,-202.875"/>
<polygon fill="black" stroke="black" points="326.963,-199.518 316.375,-199.137 324.414,-206.038 326.963,-199.518"/>
<text text-anchor="middle" x="425.5" y="-230.5" font-family="Times Roman,serif" font-size="10.00">(**)</text>
</g>
<!-- 140707205285504 -->
<g id="node26" class="node"><title>140707205285504</title>
<ellipse fill="none" stroke="black" cx="661" cy="-190" rx="27" ry="18"/>
<text text-anchor="middle" x="661" y="-187.5" font-family="Times Roman,serif" font-size="10.00">port</text>
</g>
<!-- 140707205285720&#45;&gt;140707205285504 -->
<g id="edge26" class="edge"><title>140707205285720&#45;&gt;140707205285504</title>
<path fill="none" stroke="black" d="M533.579,-264.042C559.093,-249.216 602.75,-223.848 631.741,-207.002"/>
<polygon fill="black" stroke="black" points="633.708,-209.907 640.596,-201.856 630.191,-203.854 633.708,-209.907"/>
<text text-anchor="middle" x="604.5" y="-230.5" font-family="Times Roman,serif" font-size="10.00">(1*)</text>
</g>
<!-- 140707205276592 -->
<g id="node4" class="node"><title>140707205276592</title>
<ellipse fill="none" stroke="black" cx="63" cy="-104" rx="27" ry="18"/>
<text text-anchor="middle" x="63" y="-101.5" font-family="Times Roman,serif" font-size="10.00">ip</text>
</g>
<!-- 140707205276520&#45;&gt;140707205276592 -->
<g id="edge4" class="edge"><title>140707205276520&#45;&gt;140707205276592</title>
<path fill="none" stroke="black" d="M268.515,-181.867C247.37,-174.763 216.047,-164.042 189,-154 157.057,-142.14 120.944,-127.703 95.5945,-117.396"/>
<polygon fill="black" stroke="black" points="96.6848,-114.061 86.1035,-113.526 94.0417,-120.543 96.6848,-114.061"/>
<text text-anchor="middle" x="201" y="-144.5" font-family="Times Roman,serif" font-size="10.00">(***)</text>
</g>
<!-- 140707205277024 -->
<g id="node8" class="node"><title>140707205277024</title>
<ellipse fill="none" stroke="black" cx="164" cy="-104" rx="27" ry="18"/>
<text text-anchor="middle" x="164" y="-101.5" font-family="Times Roman,serif" font-size="10.00">ip</text>
</g>
<!-- 140707205276520&#45;&gt;140707205277024 -->
<g id="edge8" class="edge"><title>140707205276520&#45;&gt;140707205277024</title>
<path fill="none" stroke="black" d="M273.61,-177.407C263.055,-170.528 249.783,-161.837 238,-154 222.644,-143.787 205.582,-132.271 191.715,-122.867"/>
<polygon fill="black" stroke="black" points="193.353,-119.748 183.114,-117.027 189.421,-125.54 193.353,-119.748"/>
<text text-anchor="middle" x="263.5" y="-144.5" font-family="Times Roman,serif" font-size="10.00">(01*)(100)</text>
</g>
<!-- 140707205277744 -->
<g id="node14" class="node"><title>140707205277744</title>
<ellipse fill="none" stroke="black" cx="293" cy="-104" rx="27" ry="18"/>
<text text-anchor="middle" x="293" y="-101.5" font-family="Times Roman,serif" font-size="10.00">ip</text>
</g>
<!-- 140707205276520&#45;&gt;140707205277744 -->
<g id="edge14" class="edge"><title>140707205276520&#45;&gt;140707205277744</title>
<path fill="none" stroke="black" d="M293,-171.762C293,-160.36 293,-145.434 293,-132.494"/>
<polygon fill="black" stroke="black" points="296.5,-132.212 293,-122.212 289.5,-132.212 296.5,-132.212"/>
<text text-anchor="middle" x="305.5" y="-144.5" font-family="Times Roman,serif" font-size="10.00">(1**)</text>
</g>
<!-- 140707205278248 -->
<g id="node20" class="node"><title>140707205278248</title>
<ellipse fill="none" stroke="black" cx="409" cy="-104" rx="27" ry="18"/>
<text text-anchor="middle" x="409" y="-101.5" font-family="Times Roman,serif" font-size="10.00">ip</text>
</g>
<!-- 140707205276520&#45;&gt;140707205278248 -->
<g id="edge20" class="edge"><title>140707205276520&#45;&gt;140707205278248</title>
<path fill="none" stroke="black" d="M311.125,-176.562C330.251,-162.383 360.59,-139.89 382.421,-123.705"/>
<polygon fill="black" stroke="black" points="384.671,-126.394 390.619,-117.627 380.502,-120.771 384.671,-126.394"/>
<text text-anchor="middle" x="370" y="-144.5" font-family="Times Roman,serif" font-size="10.00">(111)</text>
</g>
<!-- 140707205276664 -->
<g id="node6" class="node"><title>140707205276664</title>
<polygon fill="none" stroke="black" points="54,-36 2.13163e-14,-36 0,-1.77636e-14 54,-3.55271e-15 54,-36"/>
<text text-anchor="middle" x="27" y="-15.5" font-family="Times Roman,serif" font-size="10.00">permit</text>
</g>
<!-- 140707205276592&#45;&gt;140707205276664 -->
<g id="edge6" class="edge"><title>140707205276592&#45;&gt;140707205276664</title>
<path fill="none" stroke="black" d="M55.7149,-86.5966C50.7881,-74.8272 44.1775,-59.0352 38.5411,-45.5704"/>
<polygon fill="black" stroke="black" points="41.737,-44.1409 34.6471,-36.268 35.28,-46.8439 41.737,-44.1409"/>
<text text-anchor="middle" x="62.5" y="-58.5" font-family="Times Roman,serif" font-size="10.00">(****)</text>
</g>
<!-- 140707205277240 -->
<g id="node10" class="node"><title>140707205277240</title>
<polygon fill="none" stroke="black" points="126,-36 72,-36 72,-1.77636e-14 126,-3.55271e-15 126,-36"/>
<text text-anchor="middle" x="99" y="-15.5" font-family="Times Roman,serif" font-size="10.00">permit</text>
</g>
<!-- 140707205277024&#45;&gt;140707205277240 -->
<g id="edge10" class="edge"><title>140707205277024&#45;&gt;140707205277240</title>
<path fill="none" stroke="black" d="M148.931,-88.7424C143.079,-82.5204 136.479,-75.1239 131,-68 125.4,-60.7191 119.821,-52.4476 114.926,-44.7577"/>
<polygon fill="black" stroke="black" points="117.79,-42.7341 109.535,-36.0918 111.846,-46.4317 117.79,-42.7341"/>
<text text-anchor="middle" x="145.5" y="-58.5" font-family="Times Roman,serif" font-size="10.00">(****)</text>
</g>
<!-- 140707205277600 -->
<g id="node12" class="node"><title>140707205277600</title>
<polygon fill="none" stroke="black" points="198,-36 144,-36 144,-1.77636e-14 198,-3.55271e-15 198,-36"/>
<text text-anchor="middle" x="171" y="-15.5" font-family="Times Roman,serif" font-size="10.00">deny</text>
</g>
<!-- 140707205277024&#45;&gt;140707205277600 -->
<g id="edge12" class="edge"><title>140707205277024&#45;&gt;140707205277600</title>
<path fill="none" stroke="black" d="M163.73,-85.9127C163.748,-76.397 164.021,-64.547 165,-54 165.236,-51.4606 165.546,-48.8298 165.901,-46.1991"/>
<polygon fill="black" stroke="black" points="169.37,-46.663 167.431,-36.2472 162.452,-45.5989 169.37,-46.663"/>
<text text-anchor="middle" x="196.5" y="-58.5" font-family="Times Roman,serif" font-size="10.00">(1101)(111*)</text>
</g>
<!-- 140707205277888 -->
<g id="node16" class="node"><title>140707205277888</title>
<polygon fill="none" stroke="black" points="277,-36 223,-36 223,-1.77636e-14 277,-3.55271e-15 277,-36"/>
<text text-anchor="middle" x="250" y="-15.5" font-family="Times Roman,serif" font-size="10.00">permit</text>
</g>
<!-- 140707205277744&#45;&gt;140707205277888 -->
<g id="edge16" class="edge"><title>140707205277744&#45;&gt;140707205277888</title>
<path fill="none" stroke="black" d="M272.442,-91.8753C264.205,-85.8331 255.592,-77.7267 251,-68 247.912,-61.4589 246.728,-53.8797 246.536,-46.6309"/>
<polygon fill="black" stroke="black" points="250.041,-46.5115 246.857,-36.4063 243.045,-46.2912 250.041,-46.5115"/>
<text text-anchor="middle" x="288" y="-58.5" font-family="Times Roman,serif" font-size="10.00">(00**)(0100) ...</text>
</g>
<!-- 140707205277960 -->
<g id="node18" class="node"><title>140707205277960</title>
<polygon fill="none" stroke="black" points="364,-36 310,-36 310,-1.77636e-14 364,-3.55271e-15 364,-36"/>
<text text-anchor="middle" x="337" y="-15.5" font-family="Times Roman,serif" font-size="10.00">deny</text>
</g>
<!-- 140707205277744&#45;&gt;140707205277960 -->
<g id="edge18" class="edge"><title>140707205277744&#45;&gt;140707205277960</title>
<path fill="none" stroke="black" d="M309.191,-89.1506C314.94,-83.0965 320.976,-75.7095 325,-68 328.482,-61.3302 330.971,-53.6327 332.745,-46.3071"/>
<polygon fill="black" stroke="black" points="336.208,-46.846 334.805,-36.3445 329.353,-45.429 336.208,-46.846"/>
<text text-anchor="middle" x="344.5" y="-58.5" font-family="Times Roman,serif" font-size="10.00">(****)</text>
</g>
<!-- 140707205278392 -->
<g id="node22" class="node"><title>140707205278392</title>
<polygon fill="none" stroke="black" points="436,-36 382,-36 382,-1.77636e-14 436,-3.55271e-15 436,-36"/>
<text text-anchor="middle" x="409" y="-15.5" font-family="Times Roman,serif" font-size="10.00">deny</text>
</g>
<!-- 140707205278248&#45;&gt;140707205278392 -->
<g id="edge22" class="edge"><title>140707205278248&#45;&gt;140707205278392</title>
<path fill="none" stroke="black" d="M409,-85.7616C409,-74.3597 409,-59.4342 409,-46.494"/>
<polygon fill="black" stroke="black" points="412.5,-46.2121 409,-36.2121 405.5,-46.2121 412.5,-46.2121"/>
<text text-anchor="middle" x="423.5" y="-58.5" font-family="Times Roman,serif" font-size="10.00">(****)</text>
</g>
<!-- 140707205278464 -->
<g id="node24" class="node"><title>140707205278464</title>
<polygon fill="none" stroke="black" points="508,-36 454,-36 454,-1.77636e-14 508,-3.55271e-15 508,-36"/>
<text text-anchor="middle" x="481" y="-15.5" font-family="Times Roman,serif" font-size="10.00">permit</text>
</g>
<!-- 140707205278248&#45;&gt;140707205278464 -->
<g id="edge24" class="edge"><title>140707205278248&#45;&gt;140707205278464</title>
<path fill="none" stroke="black" d="M423.733,-88.4719C429.54,-82.2125 436.195,-74.8612 442,-68 448.371,-60.47 455.059,-52.0865 461.062,-44.3692"/>
<polygon fill="black" stroke="black" points="463.927,-46.3854 467.26,-36.3285 458.383,-42.1119 463.927,-46.3854"/>
<text text-anchor="middle" x="484.5" y="-58.5" font-family="Times Roman,serif" font-size="10.00">(101*)(1100)</text>
</g>
<!-- 140707205286080 -->
<g id="node28" class="node"><title>140707205286080</title>
<ellipse fill="none" stroke="black" cx="575" cy="-104" rx="27" ry="18"/>
<text text-anchor="middle" x="575" y="-101.5" font-family="Times Roman,serif" font-size="10.00">ip</text>
</g>
<!-- 140707205285504&#45;&gt;140707205286080 -->
<g id="edge28" class="edge"><title>140707205285504&#45;&gt;140707205286080</title>
<path fill="none" stroke="black" d="M646.02,-175.02C632.538,-161.538 612.546,-141.546 597.205,-126.205"/>
<polygon fill="black" stroke="black" points="599.643,-123.693 590.097,-119.097 594.693,-128.643 599.643,-123.693"/>
<text text-anchor="middle" x="635" y="-144.5" font-family="Times Roman,serif" font-size="10.00">(***)</text>
</g>
<!-- 140707205286728 -->
<g id="node32" class="node"><title>140707205286728</title>
<ellipse fill="none" stroke="black" cx="661" cy="-104" rx="27" ry="18"/>
<text text-anchor="middle" x="661" y="-101.5" font-family="Times Roman,serif" font-size="10.00">ip</text>
</g>
<!-- 140707205285504&#45;&gt;140707205286728 -->
<g id="edge32" class="edge"><title>140707205285504&#45;&gt;140707205286728</title>
<path fill="none" stroke="black" d="M661,-171.762C661,-160.36 661,-145.434 661,-132.494"/>
<polygon fill="black" stroke="black" points="664.5,-132.212 661,-122.212 657.5,-132.212 664.5,-132.212"/>
<text text-anchor="middle" x="673.5" y="-144.5" font-family="Times Roman,serif" font-size="10.00">(01*)</text>
</g>
<!-- 140707205287736 -->
<g id="node38" class="node"><title>140707205287736</title>
<ellipse fill="none" stroke="black" cx="776" cy="-104" rx="27" ry="18"/>
<text text-anchor="middle" x="776" y="-101.5" font-family="Times Roman,serif" font-size="10.00">ip</text>
</g>
<!-- 140707205285504&#45;&gt;140707205287736 -->
<g id="edge38" class="edge"><title>140707205285504&#45;&gt;140707205287736</title>
<path fill="none" stroke="black" d="M678.969,-176.562C697.93,-162.383 728.007,-139.89 749.65,-123.705"/>
<polygon fill="black" stroke="black" points="751.866,-126.419 757.778,-117.627 747.673,-120.813 751.866,-126.419"/>
<text text-anchor="middle" x="737.5" y="-144.5" font-family="Times Roman,serif" font-size="10.00">(1**)</text>
</g>
<!-- 140707205285576 -->
<g id="node44" class="node"><title>140707205285576</title>
<ellipse fill="none" stroke="black" cx="945" cy="-104" rx="27" ry="18"/>
<text text-anchor="middle" x="945" y="-101.5" font-family="Times Roman,serif" font-size="10.00">ip</text>
</g>
<!-- 140707205285504&#45;&gt;140707205285576 -->
<g id="edge44" class="edge"><title>140707205285504&#45;&gt;140707205285576</title>
<path fill="none" stroke="black" d="M685.706,-182.519C736.375,-167.175 852.167,-132.111 910.323,-114.501"/>
<polygon fill="black" stroke="black" points="911.592,-117.773 920.149,-111.525 909.563,-111.074 911.592,-117.773"/>
<text text-anchor="middle" x="833" y="-144.5" font-family="Times Roman,serif" font-size="10.00">(111)</text>
</g>
<!-- 140707205287376 -->
<g id="node30" class="node"><title>140707205287376</title>
<polygon fill="none" stroke="black" points="587,-36 533,-36 533,-1.77636e-14 587,-3.55271e-15 587,-36"/>
<text text-anchor="middle" x="560" y="-15.5" font-family="Times Roman,serif" font-size="10.00">permit</text>
</g>
<!-- 140707205286080&#45;&gt;140707205287376 -->
<g id="edge30" class="edge"><title>140707205286080&#45;&gt;140707205287376</title>
<path fill="none" stroke="black" d="M571.819,-85.7616C569.81,-74.2456 567.175,-59.1353 564.902,-46.1064"/>
<polygon fill="black" stroke="black" points="568.343,-45.462 563.177,-36.2121 561.447,-46.6648 568.343,-45.462"/>
<text text-anchor="middle" x="582.5" y="-58.5" font-family="Times Roman,serif" font-size="10.00">(****)</text>
</g>
<!-- 140707205287592 -->
<g id="node34" class="node"><title>140707205287592</title>
<polygon fill="none" stroke="black" points="659,-36 605,-36 605,-1.77636e-14 659,-3.55271e-15 659,-36"/>
<text text-anchor="middle" x="632" y="-15.5" font-family="Times Roman,serif" font-size="10.00">permit</text>
</g>
<!-- 140707205286728&#45;&gt;140707205287592 -->
<g id="edge34" class="edge"><title>140707205286728&#45;&gt;140707205287592</title>
<path fill="none" stroke="black" d="M648.969,-87.5106C645.211,-81.6176 641.42,-74.7581 639,-68 636.538,-61.1249 634.938,-53.4291 633.898,-46.1749"/>
<polygon fill="black" stroke="black" points="637.35,-45.5501 632.742,-36.0098 630.395,-46.3413 637.35,-45.5501"/>
<text text-anchor="middle" x="653.5" y="-58.5" font-family="Times Roman,serif" font-size="10.00">(****)</text>
</g>
<!-- 140707205286800 -->
<g id="node36" class="node"><title>140707205286800</title>
<polygon fill="none" stroke="black" points="731,-36 677,-36 677,-1.77636e-14 731,-3.55271e-15 731,-36"/>
<text text-anchor="middle" x="704" y="-15.5" font-family="Times Roman,serif" font-size="10.00">deny</text>
</g>
<!-- 140707205286728&#45;&gt;140707205286800 -->
<g id="edge36" class="edge"><title>140707205286728&#45;&gt;140707205286800</title>
<path fill="none" stroke="black" d="M669.702,-86.5966C675.586,-74.8272 683.482,-59.0352 690.215,-45.5704"/>
<polygon fill="black" stroke="black" points="693.524,-46.7775 694.866,-36.268 687.263,-43.647 693.524,-46.7775"/>
<text text-anchor="middle" x="716.5" y="-58.5" font-family="Times Roman,serif" font-size="10.00">(1101)(111*)</text>
</g>
<!-- 140707205287880 -->
<g id="node40" class="node"><title>140707205287880</title>
<polygon fill="none" stroke="black" points="803,-36 749,-36 749,-1.77636e-14 803,-3.55271e-15 803,-36"/>
<text text-anchor="middle" x="776" y="-15.5" font-family="Times Roman,serif" font-size="10.00">permit</text>
</g>
<!-- 140707205287736&#45;&gt;140707205287880 -->
<g id="edge40" class="edge"><title>140707205287736&#45;&gt;140707205287880</title>
<path fill="none" stroke="black" d="M776,-85.7616C776,-74.3597 776,-59.4342 776,-46.494"/>
<polygon fill="black" stroke="black" points="779.5,-46.2121 776,-36.2121 772.5,-46.2121 779.5,-46.2121"/>
<text text-anchor="middle" x="813" y="-58.5" font-family="Times Roman,serif" font-size="10.00">(00**)(0100) ...</text>
</g>
<!-- 140707205287808 -->
<g id="node42" class="node"><title>140707205287808</title>
<polygon fill="none" stroke="black" points="900,-36 846,-36 846,-1.77636e-14 900,-3.55271e-15 900,-36"/>
<text text-anchor="middle" x="873" y="-15.5" font-family="Times Roman,serif" font-size="10.00">deny</text>
</g>
<!-- 140707205287736&#45;&gt;140707205287808 -->
<g id="edge42" class="edge"><title>140707205287736&#45;&gt;140707205287808</title>
<path fill="none" stroke="black" d="M800.986,-96.9908C817.028,-91.3947 837.342,-82.1168 851,-68 856.935,-61.8658 861.416,-53.8649 864.732,-46.068"/>
<polygon fill="black" stroke="black" points="868.102,-47.0492 868.331,-36.4569 861.546,-44.5946 868.102,-47.0492"/>
<text text-anchor="middle" x="874.5" y="-58.5" font-family="Times Roman,serif" font-size="10.00">(****)</text>
</g>
<!-- 140707205285936 -->
<g id="node46" class="node"><title>140707205285936</title>
<polygon fill="none" stroke="black" points="972,-36 918,-36 918,-1.77636e-14 972,-3.55271e-15 972,-36"/>
<text text-anchor="middle" x="945" y="-15.5" font-family="Times Roman,serif" font-size="10.00">deny</text>
</g>
<!-- 140707205285576&#45;&gt;140707205285936 -->
<g id="edge46" class="edge"><title>140707205285576&#45;&gt;140707205285936</title>
<path fill="none" stroke="black" d="M945,-85.7616C945,-74.3597 945,-59.4342 945,-46.494"/>
<polygon fill="black" stroke="black" points="948.5,-46.2121 945,-36.2121 941.5,-46.2121 948.5,-46.2121"/>
<text text-anchor="middle" x="959.5" y="-58.5" font-family="Times Roman,serif" font-size="10.00">(****)</text>
</g>
<!-- 140707205276448 -->
<g id="node48" class="node"><title>140707205276448</title>
<polygon fill="none" stroke="black" points="1044,-36 990,-36 990,-1.77636e-14 1044,-3.55271e-15 1044,-36"/>
<text text-anchor="middle" x="1017" y="-15.5" font-family="Times Roman,serif" font-size="10.00">permit</text>
</g>
<!-- 140707205285576&#45;&gt;140707205276448 -->
<g id="edge48" class="edge"><title>140707205285576&#45;&gt;140707205276448</title>
<path fill="none" stroke="black" d="M959.733,-88.4719C965.54,-82.2125 972.195,-74.8612 978,-68 984.371,-60.47 991.059,-52.0865 997.062,-44.3692"/>
<polygon fill="black" stroke="black" points="999.927,-46.3854 1003.26,-36.3285 994.383,-42.1119 999.927,-46.3854"/>
<text text-anchor="middle" x="1020.5" y="-58.5" font-family="Times Roman,serif" font-size="10.00">(101*)(1100)</text>
</g>
</g>
</svg>
