<?xml version="1.0" encoding="UTF-8" standalone="no"?>
<!DOCTYPE svg PUBLIC "-//W3C//DTD SVG 1.1//EN"
 "http://www.w3.org/Graphics/SVG/1.1/DTD/svg11.dtd">
<!-- Generated by graphviz version 2.26.3 (20100126.1600)
 -->
<!-- Title: _anonymous_0 Pages: 1 -->
<svg width="1048pt" height="302pt"
 viewBox="0.00 0.00 1048.00 302.00" xmlns="http://www.w3.org/2000/svg" xmlns:xlink="http://www.w3.org/1999/xlink">
<g id="graph1" class="graph" transform="scale(1 1) rotate(0) translate(4 298)">
<title>_anonymous_0</title>
<polygon fill="white" stroke="white" points="-4,5 -4,-298 1045,-298 1045,5 -4,5"/>
<!-- 140707205285720 -->
<g id="node1" class="node"><title>140707205285720</title>
<ellipse fill="none" stroke="black" cx="512" cy="-276" rx="27" ry="18"/>
<text text-anchor="middle" x="512" y="-273.5" font-family="Times Roman,serif" font-size="10.00">protocol</text>
</g>
<!-- 140707205276520 -->
<g id="node2" class="node"><title>140707205276520</title>
<ellipse fill="none" stroke="black" cx="284" cy="-190" rx="27" ry="18"/>
<text text-anchor="middle" x="284" y="-187.5" font-family="Times Roman,serif" font-size="10.00">port</text>
</g>
<!-- 140707205285720&#45;&gt;140707205276520 -->
<g id="edge2" class="edge"><title>140707205285720&#45;&gt;140707205276520</title>
<path fill="none" stroke="black" d="M488.459,-267.12C447.67,-251.735 363.761,-220.085 317.114,-202.49"/>
<polygon fill="black" stroke="black" points="318.347,-199.215 307.755,-198.96 315.876,-205.764 318.347,-199.215"/>
<text text-anchor="middle" x="423" y="-230.5" font-family="Times Roman,serif" font-size="10.00">(0&#45;1)</text>
</g>
<!-- 140707205285504 -->
<g id="node26" class="node"><title>140707205285504</title>
<ellipse fill="none" stroke="black" cx="659" cy="-190" rx="27" ry="18"/>
<text text-anchor="middle" x="659" y="-187.5" font-family="Times Roman,serif" font-size="10.00">port</text>
</g>
<!-- 140707205285720&#45;&gt;140707205285504 -->
<g id="edge26" class="edge"><title>140707205285720&#45;&gt;140707205285504</title>
<path fill="none" stroke="black" d="M532.44,-264.042C557.639,-249.299 600.657,-224.133 629.452,-207.287"/>
<polygon fill="black" stroke="black" points="631.396,-210.204 638.26,-202.134 627.861,-204.162 631.396,-210.204"/>
<text text-anchor="middle" x="606" y="-230.5" font-family="Times Roman,serif" font-size="10.00">(2&#45;3)</text>
</g>
<!-- 140707205276592 -->
<g id="node4" class="node"><title>140707205276592</title>
<ellipse fill="none" stroke="black" cx="63" cy="-104" rx="27" ry="18"/>
<text text-anchor="middle" x="63" y="-101.5" font-family="Times Roman,serif" font-size="10.00">ip</text>
</g>
<!-- 140707205276520&#45;&gt;140707205276592 -->
<g id="edge4" class="edge"><title>140707205276520&#45;&gt;140707205276592</title>
<path fill="none" stroke="black" d="M260.349,-180.796C220.721,-165.375 140.833,-134.288 95.801,-116.764"/>
<polygon fill="black" stroke="black" points="97.0694,-113.502 86.4808,-113.137 94.5308,-120.026 97.0694,-113.502"/>
<text text-anchor="middle" x="198" y="-144.5" font-family="Times Roman,serif" font-size="10.00">(0&#45;1)</text>
</g>
<!-- 140707205277024 -->
<g id="node8" class="node"><title>140707205277024</title>
<ellipse fill="none" stroke="black" cx="171" cy="-104" rx="27" ry="18"/>
<text text-anchor="middle" x="171" y="-101.5" font-family="Times Roman,serif" font-size="10.00">ip</text>
</g>
<!-- 140707205276520&#45;&gt;140707205277024 -->
<g id="edge8" class="edge"><title>140707205276520&#45;&gt;140707205277024</title>
<path fill="none" stroke="black" d="M266.095,-176.373C247.498,-162.22 218.216,-139.934 197.056,-123.83"/>
<polygon fill="black" stroke="black" points="198.899,-120.834 188.821,-117.563 194.659,-126.405 198.899,-120.834"/>
<text text-anchor="middle" x="246" y="-144.5" font-family="Times Roman,serif" font-size="10.00">(2&#45;4)</text>
</g>
<!-- 140707205277744 -->
<g id="node14" class="node"><title>140707205277744</title>
<ellipse fill="none" stroke="black" cx="284" cy="-104" rx="27" ry="18"/>
<text text-anchor="middle" x="284" y="-101.5" font-family="Times Roman,serif" font-size="10.00">ip</text>
</g>
<!-- 140707205276520&#45;&gt;140707205277744 -->
<g id="edge14" class="edge"><title>140707205276520&#45;&gt;140707205277744</title>
<path fill="none" stroke="black" d="M284,-171.762C284,-160.36 284,-145.434 284,-132.494"/>
<polygon fill="black" stroke="black" points="287.5,-132.212 284,-122.212 280.5,-132.212 287.5,-132.212"/>
<text text-anchor="middle" x="296" y="-144.5" font-family="Times Roman,serif" font-size="10.00">(5&#45;6)</text>
</g>
<!-- 140707205278248 -->
<g id="node20" class="node"><title>140707205278248</title>
<ellipse fill="none" stroke="black" cx="402" cy="-104" rx="27" ry="18"/>
<text text-anchor="middle" x="402" y="-101.5" font-family="Times Roman,serif" font-size="10.00">ip</text>
</g>
<!-- 140707205276520&#45;&gt;140707205278248 -->
<g id="edge20" class="edge"><title>140707205276520&#45;&gt;140707205278248</title>
<path fill="none" stroke="black" d="M302.438,-176.562C322.008,-162.299 353.119,-139.625 375.354,-123.42"/>
<polygon fill="black" stroke="black" points="377.672,-126.062 383.692,-117.343 373.549,-120.405 377.672,-126.062"/>
<text text-anchor="middle" x="362" y="-144.5" font-family="Times Roman,serif" font-size="10.00">(7&#45;7)</text>
</g>
<!-- 140707205276664 -->
<g id="node6" class="node"><title>140707205276664</title>
<polygon fill="none" stroke="black" points="54,-36 2.13163e-14,-36 0,-1.77636e-14 54,-3.55271e-15 54,-36"/>
<text text-anchor="middle" x="27" y="-15.5" font-family="Times Roman,serif" font-size="10.00">permit</text>
</g>
<!-- 140707205276592&#45;&gt;140707205276664 -->
<g id="edge6" class="edge"><title>140707205276592&#45;&gt;140707205276664</title>
<path fill="none" stroke="black" d="M55.0543,-86.4796C52.4413,-80.624 49.553,-74.0492 47,-68 43.9509,-60.7754 40.7529,-52.9176 37.8308,-45.617"/>
<polygon fill="black" stroke="black" points="41.0022,-44.12 34.0572,-36.1189 34.4969,-46.7047 41.0022,-44.12"/>
<text text-anchor="middle" x="62" y="-58.5" font-family="Times Roman,serif" font-size="10.00">(0&#45;15)</text>
</g>
<!-- 140707205277240 -->
<g id="node10" class="node"><title>140707205277240</title>
<polygon fill="none" stroke="black" points="126,-36 72,-36 72,-1.77636e-14 126,-3.55271e-15 126,-36"/>
<text text-anchor="middle" x="99" y="-15.5" font-family="Times Roman,serif" font-size="10.00">permit</text>
</g>
<!-- 140707205277024&#45;&gt;140707205277240 -->
<g id="edge10" class="edge"><title>140707205277024&#45;&gt;140707205277240</title>
<path fill="none" stroke="black" d="M156.069,-88.9157C149.995,-82.5948 143.005,-75.0811 137,-68 130.682,-60.5499 124.132,-52.1903 118.286,-44.4704"/>
<polygon fill="black" stroke="black" points="121.056,-42.3296 112.263,-36.4178 115.45,-46.5221 121.056,-42.3296"/>
<text text-anchor="middle" x="152" y="-58.5" font-family="Times Roman,serif" font-size="10.00">(0&#45;12)</text>
</g>
<!-- 140707205277600 -->
<g id="node12" class="node"><title>140707205277600</title>
<polygon fill="none" stroke="black" points="198,-36 144,-36 144,-1.77636e-14 198,-3.55271e-15 198,-36"/>
<text text-anchor="middle" x="171" y="-15.5" font-family="Times Roman,serif" font-size="10.00">deny</text>
</g>
<!-- 140707205277024&#45;&gt;140707205277600 -->
<g id="edge12" class="edge"><title>140707205277024&#45;&gt;140707205277600</title>
<path fill="none" stroke="black" d="M171,-85.7616C171,-74.3597 171,-59.4342 171,-46.494"/>
<polygon fill="black" stroke="black" points="174.5,-46.2121 171,-36.2121 167.5,-46.2121 174.5,-46.2121"/>
<text text-anchor="middle" x="189" y="-58.5" font-family="Times Roman,serif" font-size="10.00">(13&#45;15)</text>
</g>
<!-- 140707205277888 -->
<g id="node16" class="node"><title>140707205277888</title>
<polygon fill="none" stroke="black" points="270,-36 216,-36 216,-1.77636e-14 270,-3.55271e-15 270,-36"/>
<text text-anchor="middle" x="243" y="-15.5" font-family="Times Roman,serif" font-size="10.00">permit</text>
</g>
<!-- 140707205277744&#45;&gt;140707205277888 -->
<g id="edge16" class="edge"><title>140707205277744&#45;&gt;140707205277888</title>
<path fill="none" stroke="black" d="M261.985,-93.4791C252.125,-87.5016 241.497,-78.994 236,-68 232.696,-61.3925 232.327,-53.7163 233.317,-46.3912"/>
<polygon fill="black" stroke="black" points="236.781,-46.9296 235.459,-36.4176 229.937,-45.4597 236.781,-46.9296"/>
<text text-anchor="middle" x="265.5" y="-58.5" font-family="Times Roman,serif" font-size="10.00">(0&#45;4)(10&#45;12)</text>
</g>
<!-- 140707205277960 -->
<g id="node18" class="node"><title>140707205277960</title>
<polygon fill="none" stroke="black" points="347,-36 293,-36 293,-1.77636e-14 347,-3.55271e-15 347,-36"/>
<text text-anchor="middle" x="320" y="-15.5" font-family="Times Roman,serif" font-size="10.00">deny</text>
</g>
<!-- 140707205277744&#45;&gt;140707205277960 -->
<g id="edge18" class="edge"><title>140707205277744&#45;&gt;140707205277960</title>
<path fill="none" stroke="black" d="M291.285,-86.5966C296.212,-74.8272 302.822,-59.0352 308.459,-45.5704"/>
<polygon fill="black" stroke="black" points="311.72,-46.8439 312.353,-36.268 305.263,-44.1409 311.72,-46.8439"/>
<text text-anchor="middle" x="333.5" y="-58.5" font-family="Times Roman,serif" font-size="10.00">(5&#45;9)(13&#45;15)</text>
</g>
<!-- 140707205278392 -->
<g id="node22" class="node"><title>140707205278392</title>
<polygon fill="none" stroke="black" points="429,-36 375,-36 375,-1.77636e-14 429,-3.55271e-15 429,-36"/>
<text text-anchor="middle" x="402" y="-15.5" font-family="Times Roman,serif" font-size="10.00">deny</text>
</g>
<!-- 140707205278248&#45;&gt;140707205278392 -->
<g id="edge22" class="edge"><title>140707205278248&#45;&gt;140707205278392</title>
<path fill="none" stroke="black" d="M402,-85.7616C402,-74.3597 402,-59.4342 402,-46.494"/>
<polygon fill="black" stroke="black" points="405.5,-46.2121 402,-36.2121 398.5,-46.2121 405.5,-46.2121"/>
<text text-anchor="middle" x="431.5" y="-58.5" font-family="Times Roman,serif" font-size="10.00">(0&#45;9)(13&#45;15)</text>
</g>
<!-- 140707205278464 -->
<g id="node24" class="node"><title>140707205278464</title>
<polygon fill="none" stroke="black" points="511,-36 457,-36 457,-1.77636e-14 511,-3.55271e-15 511,-36"/>
<text text-anchor="middle" x="484" y="-15.5" font-family="Times Roman,serif" font-size="10.00">permit</text>
</g>
<!-- 140707205278248&#45;&gt;140707205278464 -->
<g id="edge24" class="edge"><title>140707205278248&#45;&gt;140707205278464</title>
<path fill="none" stroke="black" d="M425.167,-94.3161C437.419,-88.2416 451.96,-79.3915 462,-68 467.644,-61.5969 472.038,-53.5161 475.365,-45.7287"/>
<polygon fill="black" stroke="black" points="478.717,-46.7605 479.02,-36.17 472.179,-44.2601 478.717,-46.7605"/>
<text text-anchor="middle" x="489" y="-58.5" font-family="Times Roman,serif" font-size="10.00">(10&#45;12)</text>
</g>
<!-- 140707205286080 -->
<g id="node28" class="node"><title>140707205286080</title>
<ellipse fill="none" stroke="black" cx="587" cy="-104" rx="27" ry="18"/>
<text text-anchor="middle" x="587" y="-101.5" font-family="Times Roman,serif" font-size="10.00">ip</text>
</g>
<!-- 140707205285504&#45;&gt;140707205286080 -->
<g id="edge28" class="edge"><title>140707205285504&#45;&gt;140707205286080</title>
<path fill="none" stroke="black" d="M645.794,-174.226C634.901,-161.215 619.279,-142.555 606.875,-127.74"/>
<polygon fill="black" stroke="black" points="609.469,-125.386 600.366,-119.965 604.102,-129.879 609.469,-125.386"/>
<text text-anchor="middle" x="639" y="-144.5" font-family="Times Roman,serif" font-size="10.00">(0&#45;1)</text>
</g>
<!-- 140707205286728 -->
<g id="node32" class="node"><title>140707205286728</title>
<ellipse fill="none" stroke="black" cx="659" cy="-104" rx="27" ry="18"/>
<text text-anchor="middle" x="659" y="-101.5" font-family="Times Roman,serif" font-size="10.00">ip</text>
</g>
<!-- 140707205285504&#45;&gt;140707205286728 -->
<g id="edge32" class="edge"><title>140707205285504&#45;&gt;140707205286728</title>
<path fill="none" stroke="black" d="M659,-171.762C659,-160.36 659,-145.434 659,-132.494"/>
<polygon fill="black" stroke="black" points="662.5,-132.212 659,-122.212 655.5,-132.212 662.5,-132.212"/>
<text text-anchor="middle" x="671" y="-144.5" font-family="Times Roman,serif" font-size="10.00">(2&#45;3)</text>
</g>
<!-- 140707205287736 -->
<g id="node38" class="node"><title>140707205287736</title>
<ellipse fill="none" stroke="black" cx="767" cy="-104" rx="27" ry="18"/>
<text text-anchor="middle" x="767" y="-101.5" font-family="Times Roman,serif" font-size="10.00">ip</text>
</g>
<!-- 140707205285504&#45;&gt;140707205287736 -->
<g id="edge38" class="edge"><title>140707205285504&#45;&gt;140707205287736</title>
<path fill="none" stroke="black" d="M676.352,-176.183C693.961,-162.161 721.413,-140.301 741.496,-124.309"/>
<polygon fill="black" stroke="black" points="743.69,-127.036 749.332,-118.069 739.329,-121.56 743.69,-127.036"/>
<text text-anchor="middle" x="731" y="-144.5" font-family="Times Roman,serif" font-size="10.00">(4&#45;6)</text>
</g>
<!-- 140707205285576 -->
<g id="node44" class="node"><title>140707205285576</title>
<ellipse fill="none" stroke="black" cx="931" cy="-104" rx="27" ry="18"/>
<text text-anchor="middle" x="931" y="-101.5" font-family="Times Roman,serif" font-size="10.00">ip</text>
</g>
<!-- 140707205285504&#45;&gt;140707205285576 -->
<g id="edge44" class="edge"><title>140707205285504&#45;&gt;140707205285576</title>
<path fill="none" stroke="black" d="M683.618,-182.216C732.246,-166.841 840.729,-132.542 896.473,-114.917"/>
<polygon fill="black" stroke="black" points="897.762,-118.18 906.242,-111.828 895.652,-111.506 897.762,-118.18"/>
<text text-anchor="middle" x="823" y="-144.5" font-family="Times Roman,serif" font-size="10.00">(7&#45;7)</text>
</g>
<!-- 140707205287376 -->
<g id="node30" class="node"><title>140707205287376</title>
<polygon fill="none" stroke="black" points="583,-36 529,-36 529,-1.77636e-14 583,-3.55271e-15 583,-36"/>
<text text-anchor="middle" x="556" y="-15.5" font-family="Times Roman,serif" font-size="10.00">permit</text>
</g>
<!-- 140707205286080&#45;&gt;140707205287376 -->
<g id="edge30" class="edge"><title>140707205286080&#45;&gt;140707205287376</title>
<path fill="none" stroke="black" d="M580.577,-86.1807C576.365,-74.4975 570.774,-58.985 565.988,-45.7086"/>
<polygon fill="black" stroke="black" points="569.205,-44.3129 562.522,-36.0923 562.62,-46.6867 569.205,-44.3129"/>
<text text-anchor="middle" x="588" y="-58.5" font-family="Times Roman,serif" font-size="10.00">(0&#45;15)</text>
</g>
<!-- 140707205287592 -->
<g id="node34" class="node"><title>140707205287592</title>
<polygon fill="none" stroke="black" points="655,-36 601,-36 601,-1.77636e-14 655,-3.55271e-15 655,-36"/>
<text text-anchor="middle" x="628" y="-15.5" font-family="Times Roman,serif" font-size="10.00">permit</text>
</g>
<!-- 140707205286728&#45;&gt;140707205287592 -->
<g id="edge34" class="edge"><title>140707205286728&#45;&gt;140707205287592</title>
<path fill="none" stroke="black" d="M652.577,-86.1807C648.365,-74.4975 642.774,-58.985 637.988,-45.7086"/>
<polygon fill="black" stroke="black" points="641.205,-44.3129 634.522,-36.0923 634.62,-46.6867 641.205,-44.3129"/>
<text text-anchor="middle" x="660" y="-58.5" font-family="Times Roman,serif" font-size="10.00">(0&#45;12)</text>
</g>
<!-- 140707205286800 -->
<g id="node36" class="node"><title>140707205286800</title>
<polygon fill="none" stroke="black" points="727,-36 673,-36 673,-1.77636e-14 727,-3.55271e-15 727,-36"/>
<text text-anchor="middle" x="700" y="-15.5" font-family="Times Roman,serif" font-size="10.00">deny</text>
</g>
<!-- 140707205286728&#45;&gt;140707205286800 -->
<g id="edge36" class="edge"><title>140707205286728&#45;&gt;140707205286800</title>
<path fill="none" stroke="black" d="M668.336,-86.9141C671.497,-80.9733 674.987,-74.236 678,-68 681.46,-60.8377 685.015,-53.0013 688.23,-45.7015"/>
<polygon fill="black" stroke="black" points="691.587,-46.7597 692.364,-36.1934 685.167,-43.9686 691.587,-46.7597"/>
<text text-anchor="middle" x="702" y="-58.5" font-family="Times Roman,serif" font-size="10.00">(13&#45;15)</text>
</g>
<!-- 140707205287880 -->
<g id="node40" class="node"><title>140707205287880</title>
<polygon fill="none" stroke="black" points="799,-36 745,-36 745,-1.77636e-14 799,-3.55271e-15 799,-36"/>
<text text-anchor="middle" x="772" y="-15.5" font-family="Times Roman,serif" font-size="10.00">permit</text>
</g>
<!-- 140707205287736&#45;&gt;140707205287880 -->
<g id="edge40" class="edge"><title>140707205287736&#45;&gt;140707205287880</title>
<path fill="none" stroke="black" d="M766.967,-85.9314C767.049,-76.4209 767.309,-64.5698 768,-54 768.159,-51.5645 768.362,-49.04 768.592,-46.5095"/>
<polygon fill="black" stroke="black" points="772.102,-46.5914 769.643,-36.2857 765.139,-45.8752 772.102,-46.5914"/>
<text text-anchor="middle" x="797.5" y="-58.5" font-family="Times Roman,serif" font-size="10.00">(0&#45;4)(10&#45;12)</text>
</g>
<!-- 140707205287808 -->
<g id="node42" class="node"><title>140707205287808</title>
<polygon fill="none" stroke="black" points="876,-36 822,-36 822,-1.77636e-14 876,-3.55271e-15 876,-36"/>
<text text-anchor="middle" x="849" y="-15.5" font-family="Times Roman,serif" font-size="10.00">deny</text>
</g>
<!-- 140707205287736&#45;&gt;140707205287808 -->
<g id="edge42" class="edge"><title>140707205287736&#45;&gt;140707205287808</title>
<path fill="none" stroke="black" d="M790.167,-94.3161C802.419,-88.2416 816.96,-79.3915 827,-68 832.644,-61.5969 837.038,-53.5161 840.365,-45.7287"/>
<polygon fill="black" stroke="black" points="843.717,-46.7605 844.02,-36.17 837.179,-44.2601 843.717,-46.7605"/>
<text text-anchor="middle" x="865.5" y="-58.5" font-family="Times Roman,serif" font-size="10.00">(5&#45;9)(13&#45;15)</text>
</g>
<!-- 140707205285936 -->
<g id="node46" class="node"><title>140707205285936</title>
<polygon fill="none" stroke="black" points="958,-36 904,-36 904,-1.77636e-14 958,-3.55271e-15 958,-36"/>
<text text-anchor="middle" x="931" y="-15.5" font-family="Times Roman,serif" font-size="10.00">deny</text>
</g>
<!-- 140707205285576&#45;&gt;140707205285936 -->
<g id="edge46" class="edge"><title>140707205285576&#45;&gt;140707205285936</title>
<path fill="none" stroke="black" d="M931,-85.7616C931,-74.3597 931,-59.4342 931,-46.494"/>
<polygon fill="black" stroke="black" points="934.5,-46.2121 931,-36.2121 927.5,-46.2121 934.5,-46.2121"/>
<text text-anchor="middle" x="960.5" y="-58.5" font-family="Times Roman,serif" font-size="10.00">(0&#45;9)(13&#45;15)</text>
</g>
<!-- 140707205276448 -->
<g id="node48" class="node"><title>140707205276448</title>
<polygon fill="none" stroke="black" points="1040,-36 986,-36 986,-1.77636e-14 1040,-3.55271e-15 1040,-36"/>
<text text-anchor="middle" x="1013" y="-15.5" font-family="Times Roman,serif" font-size="10.00">permit</text>
</g>
<!-- 140707205285576&#45;&gt;140707205276448 -->
<g id="edge48" class="edge"><title>140707205285576&#45;&gt;140707205276448</title>
<path fill="none" stroke="black" d="M954.167,-94.3161C966.419,-88.2416 980.96,-79.3915 991,-68 996.644,-61.5969 1001.04,-53.5161 1004.36,-45.7287"/>
<polygon fill="black" stroke="black" points="1007.72,-46.7605 1008.02,-36.17 1001.18,-44.2601 1007.72,-46.7605"/>
<text text-anchor="middle" x="1018" y="-58.5" font-family="Times Roman,serif" font-size="10.00">(10&#45;12)</text>
</g>
</g>
</svg>
