<?xml version="1.0" encoding="UTF-8" standalone="no"?>
<!DOCTYPE svg PUBLIC "-//W3C//DTD SVG 1.1//EN"
 "http://www.w3.org/Graphics/SVG/1.1/DTD/svg11.dtd">
<!-- Generated by graphviz version 2.26.3 (20100126.1600)
 -->
<!-- Title: _anonymous_0 Pages: 1 -->
<svg width="208pt" height="388pt"
 viewBox="0.00 0.00 208.00 388.00" xmlns="http://www.w3.org/2000/svg" xmlns:xlink="http://www.w3.org/1999/xlink">
<g id="graph1" class="graph" transform="scale(1 1) rotate(0) translate(4 384)">
<title>_anonymous_0</title>
<polygon fill="white" stroke="white" points="-4,5 -4,-384 205,-384 205,5 -4,5"/>
<!-- 35452688 -->
<g id="node1" class="node"><title>35452688</title>
<ellipse fill="none" stroke="black" cx="110" cy="-362" rx="18" ry="18"/>
</g>
<!-- 35452832 -->
<g id="node2" class="node"><title>35452832</title>
<polygon fill="none" stroke="black" points="114,-294 60,-294 60,-258 114,-258 114,-294"/>
<text text-anchor="middle" x="87" y="-273.5" font-family="Times Roman,serif" font-size="10.00">35451896</text>
</g>
<!-- 35452688&#45;&gt;35452832 -->
<g id="edge2" class="edge"><title>35452688&#45;&gt;35452832</title>
<path fill="none" stroke="black" d="M105.346,-344.597C102.229,-332.941 98.0564,-317.341 94.4785,-303.963"/>
<polygon fill="black" stroke="black" points="97.8505,-303.024 91.8856,-294.268 91.0881,-304.833 97.8505,-303.024"/>
<text text-anchor="middle" x="103.5" y="-316.5" font-family="Times Roman,serif" font-size="10.00">0</text>
</g>
<!-- 35452760 -->
<g id="node4" class="node"><title>35452760</title>
<ellipse fill="none" stroke="black" cx="150" cy="-276" rx="18" ry="18"/>
</g>
<!-- 35452688&#45;&gt;35452760 -->
<g id="edge4" class="edge"><title>35452688&#45;&gt;35452760</title>
<path fill="none" stroke="black" d="M117.712,-345.418C123.467,-333.045 131.439,-315.907 138.021,-301.755"/>
<polygon fill="black" stroke="black" points="141.267,-303.074 142.311,-292.531 134.92,-300.122 141.267,-303.074"/>
<text text-anchor="middle" x="135.5" y="-316.5" font-family="Times Roman,serif" font-size="10.00">1</text>
</g>
<!-- 35452976 -->
<g id="node6" class="node"><title>35452976</title>
<ellipse fill="none" stroke="black" cx="110" cy="-190" rx="18" ry="18"/>
</g>
<!-- 35452760&#45;&gt;35452976 -->
<g id="edge6" class="edge"><title>35452760&#45;&gt;35452976</title>
<path fill="none" stroke="black" d="M142.288,-259.418C136.533,-247.045 128.561,-229.907 121.979,-215.755"/>
<polygon fill="black" stroke="black" points="125.08,-214.122 117.689,-206.531 118.733,-217.074 125.08,-214.122"/>
<text text-anchor="middle" x="135.5" y="-230.5" font-family="Times Roman,serif" font-size="10.00">0</text>
</g>
<!-- 35452904 -->
<g id="node16" class="node"><title>35452904</title>
<polygon fill="none" stroke="black" points="200,-208 146,-208 146,-172 200,-172 200,-208"/>
<text text-anchor="middle" x="173" y="-187.5" font-family="Times Roman,serif" font-size="10.00">35451896</text>
</g>
<!-- 35452760&#45;&gt;35452904 -->
<g id="edge16" class="edge"><title>35452760&#45;&gt;35452904</title>
<path fill="none" stroke="black" d="M154.654,-258.597C157.771,-246.941 161.944,-231.341 165.521,-217.963"/>
<polygon fill="black" stroke="black" points="168.912,-218.833 168.114,-208.268 162.15,-217.024 168.912,-218.833"/>
<text text-anchor="middle" x="165.5" y="-230.5" font-family="Times Roman,serif" font-size="10.00">1</text>
</g>
<!-- 35452616 -->
<g id="node8" class="node"><title>35452616</title>
<ellipse fill="none" stroke="black" cx="63" cy="-104" rx="18" ry="18"/>
</g>
<!-- 35452976&#45;&gt;35452616 -->
<g id="edge8" class="edge"><title>35452976&#45;&gt;35452616</title>
<path fill="none" stroke="black" d="M101.16,-173.824C94.2231,-161.132 84.4492,-143.247 76.5298,-128.757"/>
<polygon fill="black" stroke="black" points="79.5089,-126.909 71.6419,-119.813 73.3664,-130.266 79.5089,-126.909"/>
<text text-anchor="middle" x="93.5" y="-144.5" font-family="Times Roman,serif" font-size="10.00">0</text>
</g>
<!-- 35453120 -->
<g id="node14" class="node"><title>35453120</title>
<polygon fill="none" stroke="black" points="153,-122 99,-122 99,-86 153,-86 153,-122"/>
<text text-anchor="middle" x="126" y="-101.5" font-family="Times Roman,serif" font-size="10.00">35452400</text>
</g>
<!-- 35452976&#45;&gt;35453120 -->
<g id="edge14" class="edge"><title>35452976&#45;&gt;35453120</title>
<path fill="none" stroke="black" d="M113.315,-172.181C115.468,-160.612 118.318,-145.289 120.772,-132.1"/>
<polygon fill="black" stroke="black" points="124.246,-132.564 122.634,-122.092 117.364,-131.283 124.246,-132.564"/>
<text text-anchor="middle" x="121.5" y="-144.5" font-family="Times Roman,serif" font-size="10.00">1</text>
</g>
<!-- 35452328 -->
<g id="node10" class="node"><title>35452328</title>
<polygon fill="none" stroke="black" points="54,-36 2.13163e-14,-36 0,-1.77636e-14 54,-3.55271e-15 54,-36"/>
<text text-anchor="middle" x="27" y="-15.5" font-family="Times Roman,serif" font-size="10.00">35452400</text>
</g>
<!-- 35452616&#45;&gt;35452328 -->
<g id="edge10" class="edge"><title>35452616&#45;&gt;35452328</title>
<path fill="none" stroke="black" d="M55.8876,-87.0092C50.9409,-75.192 44.2369,-59.177 38.5325,-45.5497"/>
<polygon fill="black" stroke="black" points="41.6848,-44.0161 34.5948,-36.1431 35.2277,-46.7191 41.6848,-44.0161"/>
<text text-anchor="middle" x="51.5" y="-58.5" font-family="Times Roman,serif" font-size="10.00">0</text>
</g>
<!-- 35453048 -->
<g id="node12" class="node"><title>35453048</title>
<polygon fill="none" stroke="black" points="126,-36 72,-36 72,-1.77636e-14 126,-3.55271e-15 126,-36"/>
<text text-anchor="middle" x="99" y="-15.5" font-family="Times Roman,serif" font-size="10.00">35451896</text>
</g>
<!-- 35452616&#45;&gt;35453048 -->
<g id="edge12" class="edge"><title>35452616&#45;&gt;35453048</title>
<path fill="none" stroke="black" d="M70.1124,-87.0092C75.0591,-75.192 81.7631,-59.177 87.4675,-45.5497"/>
<polygon fill="black" stroke="black" points="90.7723,-46.7191 91.4052,-36.1431 84.3152,-44.0161 90.7723,-46.7191"/>
<text text-anchor="middle" x="87.5" y="-58.5" font-family="Times Roman,serif" font-size="10.00">1</text>
</g>
</g>
</svg>
